<svg width="111" height="112" viewBox="0 0 111 112" fill="none" xmlns="http://www.w3.org/2000/svg">
<path fill-rule="evenodd" clip-rule="evenodd" d="M39.931 14.0393C32.7368 6.72636 24.9799 -0.375692 22.4023 0.0966956C19.2901 0.667046 15.8932 15.3291 13.6567 27.0813C5.72185 34.3087 0.931885 43.6832 0.931885 53.9268C0.931885 76.7866 24.7862 95.318 54.212 95.318C83.6378 95.318 107.492 76.7866 107.492 53.9268C107.492 43.5631 102.589 34.089 94.4869 26.828C92.25 15.1195 88.8795 0.662955 85.7896 0.0966956C83.2168 -0.374808 75.4841 6.69982 68.3014 13.9983C63.8135 13.0448 59.0893 12.5357 54.212 12.5357C49.2653 12.5357 44.4759 13.0594 39.931 14.0393Z" fill="#EDEDED"/>
<g style="mix-blend-mode:multiply">
<path fill-rule="evenodd" clip-rule="evenodd" d="M40.0372 14.0165L39 27.5L49 20L55.5 35L61.5 20L70 27.5L68.2681 13.9913C63.7901 13.0423 59.0772 12.5357 54.212 12.5357C49.3038 12.5357 44.5506 13.0513 40.0372 14.0165Z" fill="#EBEBEB"/>
</g>
<g style="mix-blend-mode:multiply">
<path fill-rule="evenodd" clip-rule="evenodd" d="M105.886 43.8008L91.162 49.6127L107.357 56.8948C107.447 55.9145 107.492 54.9248 107.492 53.9268C107.492 50.4335 106.935 47.0413 105.886 43.8008ZM107.02 59.464L90.6136 60.5649L104.217 68.2471C105.545 65.4491 106.496 62.5089 107.02 59.464ZM102.992 70.6019L88.0001 73.2636L96.3503 79.2601C98.9929 76.6113 101.231 73.7065 102.992 70.6019Z" fill="#E4E4E4"/>
</g>
<g style="mix-blend-mode:multiply">
<path fill-rule="evenodd" clip-rule="evenodd" d="M11.6739 78.8543L19.4591 73.2637L5.54109 70.7925C7.19472 73.6682 9.25824 76.3704 11.6739 78.8543ZM4.00562 67.8159L16.8456 60.565L1.41585 59.5295C1.915 62.3952 2.79164 65.1677 4.00562 67.8159ZM1.03134 56.4769L16.2971 49.6127L2.43025 44.1393C1.4509 47.2772 0.931885 50.555 0.931885 53.9269C0.931885 54.7832 0.965358 55.6334 1.03134 56.4769Z" fill="#E4E4E4"/>
</g>
<path d="M59.0068 62.3361C59.0068 64.0384 57.0353 65.4185 54.6035 65.4185C52.1716 65.4185 50.2001 64.0384 50.2001 62.3361C50.2001 60.6338 52.1716 58.8135 54.6035 58.8135C57.0353 58.8135 59.0068 60.6338 59.0068 62.3361Z" fill="#0F0E0F"/>
<path d="M54.6035 61.0151V67.1798C54.6035 69.1253 53.0263 70.7024 51.0808 70.7024H49.98C48.6425 70.7024 47.5582 69.6181 47.5582 68.2806V68.2806" stroke="#1C1B1C" stroke-width="1.32099" stroke-linecap="round" stroke-linejoin="round"/>
<path d="M54.6034 61.0151V67.1798C54.6034 69.1253 56.1806 70.7024 58.1261 70.7024H59.2269C60.5645 70.7024 61.6487 69.6181 61.6487 68.2806V68.2806" stroke="#1C1B1C" stroke-width="1.32099" stroke-linecap="round" stroke-linejoin="round"/>
<circle cx="31.4371" cy="49.1697" r="10.6903" fill="white"/>
<mask id="mask0_303_3" style="mask-type:alpha" maskUnits="userSpaceOnUse" x="20" y="38" width="23" height="22">
<circle cx="31.4371" cy="49.1697" r="10.6903" fill="#FEDE77"/>
</mask>
<g mask="url(#mask0_303_3)">
<circle cx="34" cy="50" r="8" fill="#1C1B1C"/>
</g>
<circle cx="10.6903" cy="10.6903" r="10.6903" transform="matrix(-1 0 0 1 87.2532 38.4794)" fill="white"/>
<mask id="mask1_303_3" style="mask-type:alpha" maskUnits="userSpaceOnUse" x="65" y="38" width="23" height="22">
<circle cx="10.6903" cy="10.6903" r="10.6903" transform="matrix(-1 0 0 1 87.2532 38.4794)" fill="white"/>
</mask>
<g mask="url(#mask1_303_3)">
<circle cx="8" cy="8" r="8" transform="matrix(-1 0 0 1 82 42)" fill="#0F0E0F"/>
</g>
<g style="mix-blend-mode:multiply">
<path d="M17.9868 23.5758C19.287 17.1415 20.5457 12.8142 23.1521 6.15899C23.3509 5.65133 23.9626 5.44631 24.4254 5.73443C29.4748 8.87759 32.2523 11.2855 36.082 15.4084C36.5256 15.8859 36.3064 16.6621 35.6805 16.8438C29.0554 18.767 24.9388 20.0465 19.46 24.4423C18.8055 24.9674 17.8206 24.3983 17.9868 23.5758Z" fill="#EBEBEB"/>
<path d="M89.3188 22.9496C88.655 16.3536 88.0239 12.432 85.2841 5.68196C85.08 5.17906 84.4689 4.98344 84.011 5.27474C79.4331 8.18664 76.8201 10.3483 72.5328 14.3567C72.0353 14.8219 72.234 15.6521 72.8866 15.8468C79.3907 17.7877 82.4689 19.1688 87.845 23.7092C88.4556 24.2249 89.3988 23.7448 89.3188 22.9496Z" fill="#EBEBEB"/>
</g>
<circle cx="26" cy="68" r="6" fill="#FFCEB9"/>
<circle cx="82" cy="68" r="6" fill="#FFCEB9"/>
<path d="M100.36 27.2602L101.71 21.4067C102.112 19.6638 100.789 18 99 18C97.2113 18 95.8876 19.6638 96.2897 21.4067L97.6398 27.2602L98.299 30.2503L99.9081 30.1457L100.36 27.2602Z" fill="white"/>
<path d="M101.74 31.3601L107.593 32.7102C109.336 33.1123 111 31.7885 111 29.9999C111 28.2112 109.336 26.8875 107.593 27.2895L101.74 28.6397L98.8882 29.2255V30.5726L101.74 31.3601Z" fill="white"/>
<path d="M96.2602 31.3601L90.4067 32.7103C88.6638 33.1124 87 31.7886 87 30C87 28.2113 88.6638 26.8876 90.4067 27.2896L96.2602 28.6397L98.1776 29.1029L98.5433 30.8379L96.2602 31.3601Z" fill="white"/>
<path d="M97.3567 26.0328L94.8401 22.007C93.8919 20.4903 91.7795 20.2499 90.5147 21.5146C89.2499 22.7794 89.4904 24.8918 91.0071 25.84L95.0329 28.3567L97.8808 30.2503L99 29.0815L97.3567 26.0328Z" fill="white"/>
<path d="M102.967 28.3567L106.993 25.8401C108.51 24.8919 108.75 22.7795 107.485 21.5147C106.221 20.2499 104.108 20.4904 103.16 22.0071L100.643 26.0329L98.5434 29.4042L99.6054 30.8867L102.967 28.3567Z" fill="white"/>
<path d="M102.967 31.6432L106.993 34.1599C108.51 35.108 108.75 37.2205 107.485 38.4852C106.221 39.75 104.108 39.5095 103.16 37.9928L100.643 33.9671L98.6672 31.2902L100.276 29.8062L102.967 31.6432Z" fill="white"/>
<path d="M97.3567 33.9671L94.8401 37.9929C93.8919 39.5096 91.7795 39.7501 90.5147 38.4853C89.2499 37.2206 89.4904 35.1081 91.0071 34.1599L95.0329 31.6433L98.5433 29.4993L99.4437 30.2549L97.3567 33.9671Z" fill="white"/>
<path d="M100.541 32.907L101.87 38.6672C102.265 40.3823 100.963 42.0196 99.2026 42.0196C97.4425 42.0196 96.1399 40.3823 96.5354 38.6672L97.8641 32.907L98.3751 29.7857L99.6707 29.6442L100.541 32.907Z" fill="white"/>
<path d="M99.0003 32.8258C100.561 32.8258 101.826 31.5608 101.826 30.0004C101.826 28.4399 100.561 27.175 99.0003 27.175C97.4399 27.175 96.1749 28.4399 96.1749 30.0004C96.1749 31.5608 97.4399 32.8258 99.0003 32.8258Z" fill="#FED402"/>
<g style="mix-blend-mode:multiply">
<path fill-rule="evenodd" clip-rule="evenodd" d="M98.285 32.7345C98.5134 32.7941 98.7532 32.8259 99.0003 32.8259C100.561 32.8259 101.826 31.5609 101.826 30.0004C101.826 28.44 100.561 27.175 99.0003 27.175C98.838 27.175 98.6788 27.1887 98.524 27.215C99.738 27.5318 100.634 28.6358 100.634 29.9491C100.634 31.3472 99.6186 32.5081 98.285 32.7345Z" fill="#FED402" fill-opacity="0.5"/>
</g>
<path fill-rule="evenodd" clip-rule="evenodd" d="M47.2183 96.0563C49.2607 96.0563 51.1165 95.3474 52.5926 94.516C52.2093 96.6157 52.2412 98.5023 52.2714 100.284L52.2779 100.678C52.3221 103.51 52.2892 106.132 50.6876 109.381C50.4099 109.944 50.6415 110.626 51.2049 110.904C51.7683 111.182 52.4501 110.95 52.7279 110.387C54.5797 106.63 54.5977 103.55 54.5523 100.642L54.5469 100.307C54.5088 97.9885 54.4727 95.7882 55.2327 93.2405C56.6304 95.4841 57.2782 97.6888 57.9284 99.9116L57.9458 99.9709C58.7017 102.555 59.4869 105.24 61.6334 107.648C62.0513 108.117 62.7703 108.158 63.2392 107.74C63.7081 107.322 63.7494 106.603 63.3314 106.134C61.5551 104.141 60.8861 101.92 60.1116 99.273L60.0921 99.2062C59.7202 97.935 59.3248 96.5832 58.755 95.1823C59.9545 95.6934 61.3204 96.0563 62.7817 96.0563C65.1457 96.0563 67.3417 95.5974 68.9892 94.8041C70.5558 94.0498 72 92.7881 72 91.0282C72 89.2682 70.5558 88.0065 68.9892 87.2522C67.3417 86.459 65.1457 86 62.7817 86C59.3632 86 56.4674 87.9862 55 89.2083C53.5326 87.9862 50.6368 86 47.2183 86C44.8543 86 42.6583 86.459 41.0108 87.2522C39.4442 88.0065 38 89.2682 38 91.0282C38 92.7881 39.4442 94.0498 41.0108 94.8041C42.6583 95.5974 44.8543 96.0563 47.2183 96.0563ZM41.9976 89.3017C40.6395 89.9556 40.2746 90.6393 40.2746 91.0282C40.2746 91.4171 40.6395 92.1008 41.9976 92.7547C43.2748 93.3697 45.1193 93.7817 47.2183 93.7817C49.8814 93.7817 52.2855 92.1542 53.5784 91.0715L53.6041 91.0065C52.3175 89.9239 49.8992 88.2746 47.2183 88.2746C45.1193 88.2746 43.2748 88.6867 41.9976 89.3017ZM56.6533 91.2614C56.5852 91.1629 56.5157 91.0643 56.4447 90.9656C57.743 89.8829 60.1343 88.2746 62.7817 88.2746C64.8807 88.2746 66.7252 88.6867 68.0024 89.3017C69.3605 89.9556 69.7254 90.6393 69.7254 91.0282C69.7254 91.4171 69.3605 92.1008 68.0024 92.7547C66.7252 93.3697 64.8807 93.7817 62.7817 93.7817C60.2703 93.7817 57.9893 92.3344 56.6533 91.2614Z" fill="#ED653B"/>
</svg>
