<svg width="130" height="111" viewBox="0 0 130 111" fill="none" xmlns="http://www.w3.org/2000/svg">
<path fill-rule="evenodd" clip-rule="evenodd" d="M49.931 23.0393C42.7368 15.7264 34.98 8.62431 32.4023 9.0967C29.2901 9.66705 25.8932 24.3291 23.6567 36.0813C15.7219 43.3087 10.9319 52.6832 10.9319 62.9268C10.9319 85.7866 34.7862 104.318 64.212 104.318C93.6378 104.318 117.492 85.7866 117.492 62.9268C117.492 52.5631 112.589 43.089 104.487 35.828C102.25 24.1195 98.8795 9.66296 95.7897 9.0967C93.2169 8.62519 85.4842 15.6998 78.3014 22.9983C73.8135 22.0448 69.0893 21.5357 64.212 21.5357C59.2653 21.5357 54.476 22.0594 49.931 23.0393Z" fill="#CCCCCC"/>
<g style="mix-blend-mode:multiply">
<path fill-rule="evenodd" clip-rule="evenodd" d="M49.9397 23.0375C47.7937 28.9181 46.1247 35.911 49.8034 36.9621C54.6706 38.3527 56.4173 33.2423 56.9886 30.5782C56.6207 33.7112 56.6659 40.575 64.212 40.2156C71.0195 39.8914 71.4966 34.5934 71.1621 31.4171C71.9154 34.2818 73.8585 38.5494 78.6206 36.9621C82.5533 35.6512 80.7184 28.7207 78.3713 22.9273C78.348 22.951 78.3247 22.9747 78.3014 22.9983C73.8135 22.0448 69.0893 21.5357 64.212 21.5357C59.2685 21.5357 54.4821 22.0588 49.9397 23.0375Z" fill="#C4C4C4" fill-opacity="0.6"/>
</g>
<path d="M113.684 67.2463C120.01 64.9837 121.106 64.6051 127.881 63.3976" stroke="#333333" stroke-width="1.76133" stroke-linecap="round" stroke-linejoin="round"/>
<path d="M112.68 80.015C119.263 81.7523 122.006 82.9135 128.875 83.5455" stroke="#333333" stroke-width="1.76133" stroke-linecap="round" stroke-linejoin="round"/>
<path d="M113.48 73.8264C119.531 74.1825 121.541 73.4692 127.583 72.7121" stroke="#333333" stroke-width="1.76133" stroke-linecap="round" stroke-linejoin="round"/>
<path d="M16.3164 67.2463C9.98994 64.9837 8.89352 64.6051 2.11901 63.3976" stroke="#333333" stroke-width="1.76133" stroke-linecap="round" stroke-linejoin="round"/>
<path d="M17.32 80.015C10.7369 81.7523 7.9939 82.9135 1.1248 83.5455" stroke="#333333" stroke-width="1.76133" stroke-linecap="round" stroke-linejoin="round"/>
<path d="M16.5198 73.8264C10.469 74.1825 8.45933 73.4692 2.41703 72.7121" stroke="#333333" stroke-width="1.76133" stroke-linecap="round" stroke-linejoin="round"/>
<circle cx="41.4371" cy="58.1697" r="10.6903" fill="white"/>
<mask id="mask0_303_2" style="mask-type:alpha" maskUnits="userSpaceOnUse" x="30" y="47" width="23" height="22">
<circle cx="41.4371" cy="58.1697" r="10.6903" fill="white"/>
</mask>
<g mask="url(#mask0_303_2)">
<circle cx="43.2963" cy="55.381" r="9.76068" fill="#333333"/>
</g>
<circle cx="44.813" cy="52.2497" r="1.98149" fill="white"/>
<circle cx="10.6903" cy="10.6903" r="10.6903" transform="matrix(-1 0 0 1 99.5364 47.4794)" fill="white"/>
<mask id="mask1_303_2" style="mask-type:alpha" maskUnits="userSpaceOnUse" x="78" y="47" width="22" height="22">
<circle cx="10.6903" cy="10.6903" r="10.6903" transform="matrix(-1 0 0 1 99.5364 47.4794)" fill="white"/>
</mask>
<g mask="url(#mask1_303_2)">
<circle cx="9.76068" cy="9.76068" r="9.76068" transform="matrix(-1 0 0 1 96.7476 45.6203)" fill="#333333"/>
</g>
<circle cx="1.98149" cy="1.98149" r="1.98149" transform="matrix(-1 0 0 1 87.4518 50.2682)" fill="white"/>
<ellipse cx="64.5" cy="74.5" rx="18.5" ry="13.5" fill="white" fill-opacity="0.25"/>
<path d="M69.0068 69.3361C69.0068 71.0384 67.0353 72.4185 64.6035 72.4185C62.1716 72.4185 60.2001 71.0384 60.2001 69.3361C60.2001 67.6338 62.1716 65.8135 64.6035 65.8135C67.0353 65.8135 69.0068 67.6338 69.0068 69.3361Z" fill="#333333"/>
<path d="M64.6035 68.0151V74.1798C64.6035 76.1253 63.0263 77.7024 61.0808 77.7024H59.98C58.6425 77.7024 57.5582 76.6181 57.5582 75.2806V75.2806" stroke="#323232" stroke-width="1.32099" stroke-linecap="round" stroke-linejoin="round"/>
<path d="M64.6035 68.0151V74.1798C64.6035 76.1253 66.1806 77.7024 68.1261 77.7024H69.2269C70.5645 77.7024 71.6488 76.6181 71.6488 75.2806V75.2806" stroke="#323232" stroke-width="1.32099" stroke-linecap="round" stroke-linejoin="round"/>
<path d="M27.9868 32.5758C29.2869 26.1415 30.5457 21.8142 33.152 15.159C33.3508 14.6513 33.9625 14.4463 34.4254 14.7344C39.4748 17.8776 42.2523 20.2855 46.082 24.4084C46.5255 24.8859 46.3064 25.6621 45.6805 25.8438C39.0554 27.767 34.9387 29.0465 29.46 33.4423C28.8055 33.9674 27.8206 33.3983 27.9868 32.5758Z" fill="#B0B0B0"/>
<path d="M99.3188 31.9496C98.655 25.3536 98.0239 21.432 95.2841 14.682C95.08 14.1791 94.4689 13.9834 94.011 14.2747C89.4331 17.1866 86.8201 19.3483 82.5328 23.3567C82.0353 23.8219 82.234 24.6521 82.8866 24.8468C89.3907 26.7877 92.4689 28.1688 97.845 32.7092C98.4556 33.2249 99.3988 32.7448 99.3188 31.9496Z" fill="#B0B0B0"/>
<path d="M66.1101 95.2148C65.7092 95.44 65.2544 95.5585 64.7915 95.5585H63.5896C63.1267 95.5585 62.6719 95.44 62.271 95.2148L52.4179 89.6812C50.5716 88.6443 48.2859 90.059 48.4208 92.1287C48.7886 97.7742 48.7812 102.226 48.4146 107.873C48.2804 109.94 50.5636 111.351 52.408 110.315L62.656 104.56C63.0569 104.335 63.5117 104.216 63.9746 104.216H64.4065C64.8694 104.216 65.3241 104.335 65.725 104.56L76.0231 110.343C77.8577 111.374 80.1308 109.983 80.0104 107.926C79.6775 102.24 79.6621 97.7703 79.9977 92.0871C80.1195 90.0253 77.8412 88.6265 76.0026 89.6591L66.1101 95.2148Z" fill="#FFD1CD"/>
<circle cx="1.82108" cy="1.82108" r="1.82108" transform="matrix(-0.993492 0.113903 0.113903 0.993492 79.365 7.23691)" fill="#FFC547"/>
<circle cx="1.82108" cy="1.82108" r="1.82108" transform="matrix(-0.993492 0.113903 0.113903 0.993492 68.5845 1.14084)" fill="#FFC547"/>
<circle cx="1.82108" cy="1.82108" r="1.82108" transform="matrix(-0.993492 0.113903 0.113903 0.993492 55.7567 3.83356)" fill="#FFC547"/>
<path d="M77.6645 13.9443L75.2448 25.6171C75.1301 26.1701 74.5431 26.4852 74.0157 26.2835C67.3485 23.7346 62.7755 22.823 55.5975 23.6923C55.0412 23.7596 54.5461 23.3235 54.5572 22.7633L54.8045 10.1836C54.8207 9.36199 55.831 8.98047 56.3862 9.58633L60.4389 14.009C60.8636 14.4724 61.619 14.3764 61.9142 13.8214L65.5478 6.98994C65.9297 6.27187 66.9898 6.37668 67.2237 7.15563L69.7168 15.457C69.8852 16.018 70.5319 16.2763 71.0405 15.9858L76.3213 12.9689C77.0023 12.5799 77.8237 13.1764 77.6645 13.9443Z" fill="#FFC547"/>
<ellipse cx="37" cy="81" rx="6" ry="2" fill="#FFA787"/>
<ellipse cx="93" cy="81" rx="6" ry="2" fill="#FFA787"/>
<circle cx="36.7892" cy="56.3105" r="19.9862" stroke="#323232" stroke-width="1.85918"/>
<circle cx="92.5645" cy="56.3105" r="19.9862" stroke="#323232" stroke-width="1.85918"/>
<path d="M56.7753 54.7739C62.7276 53.7146 66.2207 53.7337 72.5783 54.7739V58.6345C66.5072 57.669 63.0455 57.6554 56.7753 58.6345V54.7739Z" fill="#242424"/>
</svg>
