<svg width="133" height="104" viewBox="0 0 133 104" fill="none" xmlns="http://www.w3.org/2000/svg">
<path fill-rule="evenodd" clip-rule="evenodd" d="M113.471 36.8159C116.709 25.787 120.389 7.86896 112.199 2.49999C104.075 -2.82562 89.1976 6.695 80.9246 12.9561C76.0405 11.6837 70.8624 11 65.5 11C59.5748 11 53.8746 11.8348 48.5474 13.3761C40.0269 7.13365 24.007 -2.94616 15.6991 2.5C6.86567 8.2907 12.5215 28.6793 16.2243 39.2779C13.5044 44.836 12 50.9491 12 57.3667C12 82.9743 35.9528 103.733 65.5 103.733C95.0473 103.733 119 82.9743 119 57.3667C119 49.9868 117.011 43.0096 113.471 36.8159Z" fill="#323232"/>
<path d="M20.1995 8.06145C14.1149 12.0501 19.4689 27.5632 21.3845 32.5345C21.6562 33.2395 22.5767 33.3611 23.0573 32.778C29.0965 25.4507 33.6307 21.9083 41.9276 17.9151C42.5839 17.5993 42.7085 16.7226 42.1376 16.2703C38.2707 13.207 26.0516 4.22516 20.1995 8.06145Z" fill="#FFEDB4"/>
<path d="M109.556 8.06145C115.64 12.0501 110.286 27.5632 108.37 32.5345C108.099 33.2395 107.178 33.3611 106.698 32.778C100.658 25.4507 96.1243 21.9083 87.8274 17.9151C87.1711 17.5993 87.0465 16.7226 87.6174 16.2703C91.4843 13.207 103.703 4.22516 109.556 8.06145Z" fill="#FFEDB4"/>
<path d="M111 64.1249C118.707 63.0755 123.079 62.8087 131 63.1249" stroke="#323232" stroke-width="3.5" stroke-linecap="round" stroke-linejoin="round"/>
<path d="M105.44 74C113.843 78.7162 118.738 81.0893 127.92 84.6532" stroke="#323232" stroke-width="3.5" stroke-linecap="round" stroke-linejoin="round"/>
<path d="M22 64.1249C14.2932 63.0755 9.92126 62.8087 2 63.1249" stroke="#323232" stroke-width="3.5" stroke-linecap="round" stroke-linejoin="round"/>
<path d="M27.5595 74C19.1573 78.7162 14.2623 81.0893 5.08016 84.6532" stroke="#323232" stroke-width="3.5" stroke-linecap="round" stroke-linejoin="round"/>
<circle cx="41" cy="62" r="13" fill="white"/>
<circle cx="45.7895" cy="62.0001" r="5.47368" fill="#323232"/>
<circle cx="13" cy="13" r="13" transform="matrix(-1 0 0 1 105 49)" fill="white"/>
<circle cx="5.47368" cy="5.47368" r="5.47368" transform="matrix(-1 0 0 1 92.6842 56.5264)" fill="#323232"/>
<ellipse cx="66.5" cy="76.5" rx="5.5" ry="4.5" fill="#A27749"/>
</svg>
