<svg width="118" height="125" viewBox="0 0 118 125" fill="none" xmlns="http://www.w3.org/2000/svg">
<path d="M86.943 7.32643C86.1001 5.88585 84.0134 6.14743 83.5563 7.7527C80.7821 17.495 80.726 22.7607 63.6776 26.4725L90.1028 41.86C95.1734 27.8627 93.6721 18.8261 86.943 7.32643Z" fill="#56392B"/>
<path d="M30.5933 7.32643C31.4363 5.88585 33.5229 6.14743 33.9801 7.7527C36.7543 17.495 36.8104 22.7607 53.8588 26.4725L27.4335 41.86C22.363 27.8627 23.8642 18.8261 30.5933 7.32643Z" fill="#56392B"/>
<ellipse cx="17.4787" cy="10.329" rx="17.4787" ry="10.329" transform="matrix(0.96549 -0.260439 0.269145 0.9631 0 37.1043)" fill="#525151"/>
<ellipse cx="17.4787" cy="10.329" rx="17.4787" ry="10.329" transform="matrix(-0.96549 -0.260439 -0.269145 0.9631 117.311 37.1043)" fill="#525151"/>
<rect x="17" y="15" width="85" height="105" rx="42.5" fill="white"/>
<path fill-rule="evenodd" clip-rule="evenodd" d="M38.7283 20.4132C35.4666 27.2289 32.87 35.4987 38.5 37C43.4668 38.3245 47.5564 33.9477 49.7525 30.84C50.3253 30.0294 51.8668 30.3141 52.0759 31.2843C53.0919 35.9994 55.6251 44.0648 61 43.5C65.1638 43.0624 67.436 37.9491 68.559 34.1442C68.858 33.1312 70.7276 32.9502 71.237 33.8755C73.0012 37.0796 76.0356 40.8297 80 39C85.9999 36.2308 82.8139 26.9573 79.203 19.8334C73.3135 16.7463 66.6107 15 59.5 15C51.9555 15 44.8702 16.9658 38.7283 20.4132Z" fill="#525151"/>
<ellipse cx="30" cy="68.4" rx="4" ry="2.4" fill="#ED653B" fill-opacity="0.6"/>
<ellipse cx="89" cy="68.4" rx="4" ry="2.4" fill="#ED653B" fill-opacity="0.6"/>
<ellipse cx="8" cy="10" rx="8" ry="10" transform="matrix(-1 0 0 1 45 47)" fill="#525151"/>
<ellipse cx="3" cy="3.5" rx="3" ry="3.5" transform="matrix(-1 0 0 1 42 50)" fill="white"/>
<circle cx="1.5" cy="1.5" r="1.5" transform="matrix(-1 0 0 1 36 57)" fill="white"/>
<ellipse cx="82" cy="57" rx="8" ry="10" fill="#525151"/>
<ellipse cx="80" cy="53.5" rx="3" ry="3.5" fill="white"/>
<circle cx="84.5" cy="58.5" r="1.5" fill="white"/>
<ellipse cx="59" cy="95.5" rx="46" ry="27.5" fill="#FFCEB9"/>
<ellipse cx="39" cy="85.5" rx="3" ry="4.5" fill="#525151"/>
<ellipse cx="82" cy="85.5" rx="3" ry="4.5" fill="#525151"/>
<path d="M92.6998 108.228C90.2836 104.501 84.1128 102.712 82.3409 102.265C82.0733 102.197 81.814 102.365 81.7665 102.637C81.4519 104.438 80.5668 110.801 82.983 114.528C85.3991 118.255 91.57 120.044 93.3419 120.491C93.6095 120.559 93.8688 120.391 93.9163 120.119C94.2308 118.319 95.116 111.955 92.6998 108.228Z" fill="#00B5AD"/>
<path d="M80.5869 115.274C81.8233 111.688 79.8267 106.617 79.1573 105.088C79.0466 104.835 78.7517 104.733 78.5087 104.864C77.0394 105.656 72.3412 108.419 71.1049 112.005C69.8685 115.591 71.865 120.663 72.5345 122.192C72.6452 122.444 72.94 122.546 73.183 122.415C74.6524 121.624 79.3505 118.86 80.5869 115.274Z" fill="#00B5AD"/>
<path d="M36 99C45 113.5 77 113.5 85.5 99" stroke="#525151" stroke-width="2.5" stroke-linecap="round" stroke-linejoin="round"/>
<path d="M59.4952 47.338C62.2855 34.4929 66.1195 29.4449 76.6203 19" stroke="#00B5AD" stroke-width="1.24764" stroke-linecap="round"/>
<path d="M56.6436 51.5302C56.9908 49.0542 59.5897 46.5582 59.5897 46.5582C59.5897 46.5582 61.12 49.4601 60.7729 51.9361C60.4258 54.412 58.1248 57.0072 58.1248 57.0072C58.1248 57.0072 56.2965 54.0062 56.6436 51.5302Z" fill="#00B5AD"/>
<path d="M61.8058 44.785C60.8859 43.3414 60.836 41.1393 60.836 41.1393C60.836 41.1393 62.8286 42.1423 63.7485 43.5859C64.6684 45.0295 64.7182 47.2316 64.7182 47.2316C64.7182 47.2316 62.7257 46.2287 61.8058 44.785Z" fill="#00B5AD"/>
<path d="M57.1338 42.2663C58.7061 41.3372 61.0064 41.2206 61.0064 41.2206C61.0064 41.2206 59.8161 43.1666 58.2439 44.0957C56.6716 45.0248 54.3713 45.1414 54.3713 45.1414C54.3713 45.1414 55.5616 43.1953 57.1338 42.2663Z" fill="#00B5AD"/>
<path d="M64.17 38.8573C63.2501 37.4137 63.2003 35.2116 63.2003 35.2116C63.2003 35.2116 65.1928 36.2146 66.1127 37.6582C67.0327 39.1018 67.0825 41.3039 67.0825 41.3039C67.0825 41.3039 65.09 40.301 64.17 38.8573Z" fill="#00B5AD"/>
<path d="M59.3823 35.4568C61.1218 34.9067 63.3553 35.3235 63.3553 35.3235C63.3553 35.3235 61.7267 36.9617 59.9872 37.5118C58.2476 38.0619 56.0141 37.6451 56.0141 37.6451C56.0141 37.6451 57.6427 36.0069 59.3823 35.4568Z" fill="#00B5AD"/>
<path d="M67.2889 33.6665C66.4782 32.1602 66.587 29.9522 66.587 29.9522C66.587 29.9522 68.4956 31.0883 69.3062 32.5946C70.1169 34.1009 70.0081 36.3089 70.0081 36.3089C70.0081 36.3089 68.0995 35.1728 67.2889 33.6665Z" fill="#00B5AD"/>
<path d="M62.4618 29.9119C64.2146 29.4097 66.4313 29.8892 66.4313 29.8892C66.4313 29.8892 64.7563 31.4838 63.0034 31.9861C61.2506 32.4883 59.034 32.0088 59.034 32.0088C59.034 32.0088 60.709 30.4142 62.4618 29.9119Z" fill="#00B5AD"/>
<path d="M71.3288 28.1839C70.6566 26.6109 70.9581 24.4098 70.9581 24.4098C70.9581 24.4098 72.752 25.7011 73.4242 27.274C74.0964 28.847 73.7949 31.0481 73.7949 31.0481C73.7949 31.0481 72.001 29.7568 71.3288 28.1839Z" fill="#00B5AD"/>
<path d="M67.2371 24.3649C68.9899 23.8626 71.2065 24.3421 71.2065 24.3421C71.2065 24.3421 69.5315 25.9368 67.7787 26.439C66.0259 26.9413 63.8093 26.4618 63.8093 26.4618C63.8093 26.4618 65.4842 24.8672 67.2371 24.3649Z" fill="#00B5AD"/>
</svg>
