<svg width="128" height="111" viewBox="0 0 128 111" fill="none" xmlns="http://www.w3.org/2000/svg">
<path fill-rule="evenodd" clip-rule="evenodd" d="M48.953 15.0227C41.214 7.15585 32.8695 -0.484154 30.0967 0.0240152C26.7487 0.637567 23.0945 16.4102 20.6886 29.0526C12.1528 36.8274 7 46.912 7 57.9315C7 82.5227 32.6612 102.458 64.3158 102.458C95.9705 102.458 121.632 82.5227 121.632 57.9315C121.632 46.7828 116.357 36.5911 107.641 28.7801C105.235 16.1847 101.609 0.633166 98.2853 0.0240152C95.5176 -0.483203 87.1992 7.12729 79.4723 14.9786C74.6445 13.9528 69.5625 13.4052 64.3158 13.4052C58.9944 13.4052 53.8423 13.9686 48.953 15.0227Z" fill="white"/>
<path fill-rule="evenodd" clip-rule="evenodd" d="M32.4999 67C53.7629 67 70.9999 49.763 70.9999 28.5C70.9999 23.1765 69.9195 18.1055 67.9659 13.494C66.759 13.4351 65.5419 13.4052 64.3158 13.4052C58.9943 13.4052 53.8423 13.9686 48.953 15.0227C41.2139 7.15585 32.8695 -0.484154 30.0966 0.0240152C26.7487 0.637567 23.0945 16.4102 20.6886 29.0526C12.3033 36.6903 7.1828 46.557 7.00476 57.3493C13.7953 63.3548 22.7219 67 32.4999 67Z" fill="#FFCE05"/>
<path fill-rule="evenodd" clip-rule="evenodd" d="M121.488 61.1075C115.254 65.4523 107.675 68 99.5 68C78.237 68 61 50.763 61 29.5C61 23.7543 62.2586 18.3025 64.5153 13.4055C69.6913 13.4191 74.7057 13.9659 79.4724 14.9786C87.1992 7.12729 95.5176 -0.483203 98.2853 0.0240152C101.609 0.633166 105.235 16.1847 107.641 28.7801C116.357 36.5911 121.632 46.7828 121.632 57.9315C121.632 58.9994 121.583 60.0585 121.488 61.1075Z" fill="#FFCE05"/>
<path d="M111.018 55.5641C117.824 53.13 119.004 52.7228 126.291 51.4238" stroke="#333333" stroke-width="1.89474" stroke-linecap="round" stroke-linejoin="round"/>
<path d="M109.474 68.694C116.543 70.61 119.723 71.0008 126.466 74.1005" stroke="#333333" stroke-width="1.89474" stroke-linecap="round" stroke-linejoin="round"/>
<path d="M111.791 62.5152C118.3 62.1322 120.462 62.8996 126.962 63.714" stroke="#333333" stroke-width="1.89474" stroke-linecap="round" stroke-linejoin="round"/>
<path d="M16.9816 55.5641C10.1759 53.13 8.99644 52.7228 1.70881 51.4238" stroke="#333333" stroke-width="1.89474" stroke-linecap="round" stroke-linejoin="round"/>
<path d="M18.5263 68.694C11.4572 70.61 8.2768 71.0008 1.53461 74.1005" stroke="#333333" stroke-width="1.89474" stroke-linecap="round" stroke-linejoin="round"/>
<path d="M16.2092 62.5152C9.70009 62.1322 7.5382 62.8996 1.03822 63.714" stroke="#333333" stroke-width="1.89474" stroke-linecap="round" stroke-linejoin="round"/>
<path d="M70.3159 61.8263C70.3159 63.6575 68.1951 65.1421 65.579 65.1421C62.9629 65.1421 60.8422 63.6575 60.8422 61.8263C60.8422 59.995 62.9629 58.0368 65.579 58.0368C68.1951 58.0368 70.3159 59.995 70.3159 61.8263Z" fill="#333333"/>
<path d="M65.579 60.4052V67.0368C65.579 69.1297 63.8823 70.8263 61.7895 70.8263H60.6053C59.1664 70.8263 58 69.6599 58 68.221V68.221" stroke="#323232" stroke-width="1.42105" stroke-linecap="round" stroke-linejoin="round"/>
<path d="M65.579 60.4052V67.0368C65.579 69.1297 67.2756 70.8263 69.3685 70.8263H70.5527C71.9915 70.8263 73.158 69.6599 73.158 68.221V68.221" stroke="#323232" stroke-width="1.42105" stroke-linecap="round" stroke-linejoin="round"/>
<circle cx="67.4737" cy="60.4052" r="0.947369" fill="white"/>
<g style="mix-blend-mode:multiply">
<path d="M25.0309 25.2815C26.4296 18.3599 27.7836 13.7047 30.5874 6.54547C30.8013 5.99936 31.4593 5.77881 31.9572 6.08875C37.3891 9.46998 40.377 12.0603 44.4967 16.4955C44.9739 17.0092 44.7381 17.8441 44.0648 18.0396C36.9379 20.1085 32.5094 21.4849 26.6157 26.2136C25.9116 26.7785 24.8521 26.1663 25.0309 25.2815Z" fill="#FFCE05" fill-opacity="0.6"/>
<path d="M101.766 24.6079C101.052 17.5123 100.373 13.2937 97.4257 6.03233C97.2061 5.49133 96.5487 5.2809 96.0561 5.59426C91.1314 8.72673 88.3205 11.0521 83.7085 15.3642C83.1733 15.8645 83.3871 16.7576 84.0891 16.9671C91.0859 19.055 94.3972 20.5407 100.18 25.425C100.837 25.9798 101.852 25.4634 101.766 24.6079Z" fill="#FFCE05" fill-opacity="0.6"/>
</g>
<ellipse cx="39.5" cy="52.5" rx="6.5" ry="7.5" fill="#333333"/>
<circle cx="38" cy="50" r="2" fill="white"/>
<ellipse cx="91.5" cy="52.5" rx="6.5" ry="7.5" fill="#333333"/>
<circle cx="90" cy="50" r="2" fill="white"/>
<path d="M67.0418 94.3511C66.6106 94.5933 66.1214 94.7208 65.6234 94.7208H64.3304C63.8324 94.7208 63.3432 94.5933 62.912 94.3511L52.3126 88.3984C50.3264 87.2829 47.8676 88.8048 48.0127 91.0313C48.4083 97.1044 48.4004 101.894 48.0061 107.968C47.8617 110.192 50.3178 111.71 52.3019 110.595L63.3262 104.404C63.7574 104.162 64.2466 104.034 64.7446 104.034H65.2092C65.7072 104.034 66.1964 104.162 66.6276 104.404L77.7058 110.625C79.6793 111.734 82.1246 110.238 81.9951 108.025C81.637 101.908 81.6204 97.1002 81.9814 90.9864C82.1124 88.7685 79.6615 87.2637 77.6836 88.3745L67.0418 94.3511Z" fill="#FFC547"/>
<ellipse cx="31" cy="69" rx="8" ry="5" fill="#FFA787"/>
<ellipse cx="97" cy="69" rx="8" ry="5" fill="#FFA787"/>
</svg>
