<svg width="136" height="139" viewBox="0 0 136 139" fill="none" xmlns="http://www.w3.org/2000/svg">
<path d="M67.89 53.0793C70.3891 47.5229 75.4363 43.7246 81.2557 43.7246C87.5495 43.7246 92.94 48.1674 95.1808 54.4721C96.9171 53.6676 98.8142 53.2247 100.801 53.2247C108.764 53.2247 115.281 60.3359 115.803 69.3317C123.083 71.9907 128.174 78.0858 128.174 85.1798C128.174 90.0072 125.816 94.372 122.016 97.5063C122.975 99.7804 123.513 102.333 123.513 105.029C123.513 114.569 116.782 122.302 108.478 122.302C106.491 122.302 104.594 121.859 102.857 121.055C100.617 127.359 95.226 131.802 88.9322 131.802C85.0864 131.802 81.5778 130.143 78.9191 127.414C76.23 130.312 72.613 132.087 68.6351 132.087C64.3215 132.087 60.4321 130 57.6903 126.657C54.9638 129.833 51.1743 131.802 46.9845 131.802C40.5855 131.802 35.1202 127.21 32.9496 120.737C31.0431 121.742 28.9222 122.302 26.6873 122.302C18.3837 122.302 11.6523 114.569 11.6523 105.029C11.6523 102.267 12.2166 99.6564 13.22 97.341C8.64826 94.2486 5.82611 89.9993 5.82611 85.3098C5.82611 78.8213 11.2289 73.1757 19.1934 70.2708C19.2991 60.8358 25.9895 53.2247 34.2272 53.2247C36.462 53.2247 38.583 53.7849 40.4895 54.7897C42.66 48.3172 48.1253 43.7246 54.5243 43.7246C60.3437 43.7246 65.3909 47.5229 67.89 53.0793Z" fill="#463424"/>
<g style="mix-blend-mode:multiply">
<path fill-rule="evenodd" clip-rule="evenodd" d="M5.92311 83.8098C5.85889 84.3041 5.82611 84.8044 5.82611 85.3098C5.82611 89.7016 8.30131 93.7073 12.3707 96.7382C12.6024 95.9102 12.887 95.1093 13.22 94.341C9.14098 91.5818 6.45475 87.9018 5.92311 83.8098ZM11.7082 103.529C11.6712 104.023 11.6523 104.524 11.6523 105.029C11.6523 114.569 18.3837 122.302 26.6873 122.302C28.9222 122.302 31.0431 121.742 32.9496 120.737C35.1202 127.21 40.5855 131.802 46.9845 131.802C51.1743 131.802 54.9638 129.833 57.6903 126.657C60.4321 130 64.3215 132.087 68.6351 132.087C72.613 132.087 76.23 130.312 78.9191 127.414C81.5778 130.143 85.0864 131.802 88.9322 131.802C95.226 131.802 100.617 127.359 102.857 121.055C104.594 121.859 106.491 122.302 108.478 122.302C116.782 122.302 123.513 114.569 123.513 105.029C123.513 104.524 123.494 104.023 123.457 103.529C122.795 112.366 116.342 119.302 108.478 119.302C106.491 119.302 104.594 118.859 102.857 118.055C100.617 124.359 95.226 128.802 88.9322 128.802C85.0864 128.802 81.5778 127.143 78.9191 124.414C76.23 127.312 72.613 129.087 68.6351 129.087C64.3215 129.087 60.4321 127 57.6903 123.657C54.9638 126.833 51.1743 128.802 46.9845 128.802C40.5855 128.802 35.1202 124.21 32.9496 117.737C31.0431 118.742 28.9222 119.302 26.6873 119.302C18.8236 119.302 12.3699 112.366 11.7082 103.529ZM122.814 96.8101C126.144 93.7408 128.174 89.6594 128.174 85.1798C128.174 84.6744 128.148 84.1742 128.097 83.6798C127.665 87.9076 125.419 91.7002 122.016 94.5063C122.328 95.2463 122.596 96.0158 122.814 96.8101Z" fill="#463424"/>
</g>
<path d="M18.8109 13.6834C19.2122 12.9923 20.2085 13.088 20.4565 13.8477C23.3786 22.7996 25.2961 36.5615 47.8557 33.4234L29.522 50.8638C10.7792 43.1508 10.1254 28.6414 18.8109 13.6834Z" fill="#FADD9D"/>
<path d="M115.915 13.6834C115.514 12.9923 114.517 13.088 114.269 13.8477C111.347 22.7996 109.43 36.5615 86.8702 33.4234L105.204 50.8638C123.947 43.1508 124.601 28.6414 115.915 13.6834Z" fill="#FADD9D"/>
<ellipse cx="18.4543" cy="10.9056" rx="18.4543" ry="10.9056" transform="matrix(0.863045 -0.505127 0.512897 0.85845 0 59.1812)" fill="#AE8964"/>
<ellipse cx="13.2023" cy="7.80188" rx="13.2023" ry="7.80188" transform="matrix(0.863045 -0.505127 0.512897 0.85845 6.02875 59.4566)" fill="#FFCEB9"/>
<ellipse cx="18.4543" cy="10.9056" rx="18.4543" ry="10.9056" transform="matrix(-0.863045 -0.505127 -0.512897 0.85845 135.481 58.7338)" fill="#AE8964"/>
<ellipse cx="13.2023" cy="7.80188" rx="13.2023" ry="7.80188" transform="matrix(-0.863045 -0.505127 -0.512897 0.85845 129.261 59.4566)" fill="#FFCEB9"/>
<rect x="21.1005" y="14.9705" width="92.4406" height="103.493" rx="40.1916" fill="#AE8964"/>
<path fill-rule="evenodd" clip-rule="evenodd" d="M107.062 100.163C99.8937 111.18 87.4723 118.464 73.3496 118.464H61.2921C47.1693 118.464 34.7479 111.18 27.5798 100.163C33.2764 91.8014 42.8751 86.3105 53.7562 86.3105H80.8855C91.7666 86.3105 101.365 91.8014 107.062 100.163Z" fill="#7F5939"/>
<ellipse cx="47.2251" cy="97.8994" rx="3.01437" ry="4.52155" fill="#1A1A1A"/>
<ellipse cx="87.4166" cy="97.8994" rx="3.01437" ry="4.52155" fill="#1A1A1A"/>
<ellipse cx="35.4986" cy="84.724" rx="4.35015" ry="2.53396" fill="#FFCEB9"/>
<ellipse cx="99.6633" cy="84.724" rx="4.35015" ry="2.53396" fill="#FFCEB9"/>
<ellipse cx="6.7971" cy="7.76812" rx="6.7971" ry="7.76812" transform="matrix(-1 0 0 1 47.5797 65.1086)" fill="#181818"/>
<ellipse cx="38.7835" cy="70.4236" rx="2.39898" ry="2.86194" fill="white"/>
<ellipse cx="43.2803" cy="75.3921" rx="1.29827" ry="1.28884" fill="white"/>
<ellipse cx="6.7971" cy="7.76812" rx="6.7971" ry="7.76812" transform="matrix(-1 0 0 1 101.484 65.1086)" fill="#181818"/>
<ellipse cx="92.6874" cy="70.4236" rx="2.39898" ry="2.86194" fill="white"/>
<ellipse cx="97.1844" cy="75.3921" rx="1.29827" ry="1.28884" fill="white"/>
<path fill-rule="evenodd" clip-rule="evenodd" d="M68.1565 6.8875C70.0407 2.79655 73.8461 0 78.2338 0C82.9791 0 87.0434 3.27107 88.7329 7.91296C90.042 7.32064 91.4723 6.99458 92.9705 6.99458C98.974 6.99458 103.888 12.2302 104.281 18.8536C109.77 20.8112 113.609 25.2989 113.609 30.522C113.609 34.0762 111.831 37.2899 108.966 39.5975C109.689 41.2718 110.094 43.1509 110.094 45.1362C110.094 52.1599 105.019 57.8537 98.7585 57.8537C97.2602 57.8537 95.8299 57.5276 94.5208 56.9353C92.8313 61.5772 88.767 64.8483 84.0217 64.8483C81.122 64.8483 78.4767 63.6269 76.4721 61.6178C74.4446 63.7513 71.7175 65.058 68.7183 65.058C65.4659 65.058 62.5335 63.5214 60.4663 61.06C58.4106 63.3987 55.5534 64.8483 52.3944 64.8483C47.5698 64.8483 43.4491 61.467 41.8126 56.7015C40.3752 57.4413 38.776 57.8537 37.091 57.8537C30.8304 57.8537 25.7551 52.1599 25.7551 45.1362C25.7551 43.1026 26.1806 41.1805 26.9371 39.4758C23.4901 37.1989 21.3623 34.0704 21.3623 30.6177C21.3623 25.8404 25.4358 21.6838 31.4408 19.545C31.5205 12.5983 36.5648 6.99458 42.7758 6.99458C44.4608 6.99458 46.0599 7.40702 47.4973 8.14682C49.1339 3.38131 53.2545 0 58.0791 0C62.4668 0 66.2722 2.79654 68.1565 6.8875Z" fill="#4D3A2A"/>
<g style="mix-blend-mode:multiply">
<path fill-rule="evenodd" clip-rule="evenodd" d="M21.5901 28.6761C21.4401 29.309 21.3623 29.9574 21.3623 30.6177C21.3623 33.7513 23.115 36.6178 26.0157 38.8231C26.2163 37.7612 26.5284 36.7475 26.937 35.7991C24.1493 33.9027 22.2244 31.4326 21.5901 28.6761ZM25.8588 43.4082C25.7904 43.9733 25.755 44.5501 25.755 45.1362C25.755 52.1599 30.8303 57.8537 37.091 57.8537C38.776 57.8537 40.3751 57.4413 41.8126 56.7015C43.4491 61.467 47.5698 64.8483 52.3944 64.8483C55.5534 64.8483 58.4106 63.3987 60.4663 61.06C62.5335 63.5214 65.4659 65.058 68.7183 65.058C71.7175 65.058 74.4446 63.7513 76.4721 61.6178C78.4767 63.627 81.122 64.8483 84.0217 64.8483C88.767 64.8483 92.8313 61.5772 94.5208 56.9353C95.8299 57.5277 97.2603 57.8537 98.7585 57.8537C105.019 57.8537 110.094 52.1599 110.094 45.1363C110.094 44.5501 110.059 43.9733 109.991 43.4082C109.239 49.7997 104.497 54.7256 98.7585 54.7256C97.2603 54.7256 95.8299 54.3898 94.5208 53.7798C92.8313 58.5603 88.767 61.929 84.0217 61.929C81.122 61.929 78.4767 60.6712 76.4721 58.602C74.4446 60.7993 71.7175 62.1449 68.7183 62.1449C65.4659 62.1449 62.5335 60.5625 60.4663 58.0276C58.4106 60.4361 55.5534 61.929 52.3944 61.929C47.5698 61.929 43.4491 58.4468 41.8126 53.539C40.3751 54.3009 38.776 54.7256 37.091 54.7256C31.3528 54.7256 26.6104 49.7997 25.8588 43.4082ZM109.836 38.8368C112.187 36.6073 113.609 33.7008 113.609 30.5219C113.609 29.8613 113.547 29.2124 113.429 28.5789C112.91 31.4364 111.299 33.9897 108.966 35.9245C109.35 36.8407 109.645 37.8166 109.836 38.8368Z" fill="#4D3A2A"/>
</g>
<path d="M79.172 113.537C75.2721 111.27 68.4859 112.98 68.4859 112.98C68.4859 112.98 70.3583 119.724 74.2582 121.991C78.1581 124.258 84.9443 122.547 84.9443 122.547C84.9443 122.547 83.072 115.804 79.172 113.537Z" fill="#34876F"/>
<path d="M77.2898 129.083C79.7967 127.148 84.7352 127.793 84.7352 127.793C84.7352 127.793 84.108 132.734 81.6011 134.669C79.0942 136.604 74.1557 135.958 74.1557 135.958C74.1557 135.958 74.7829 131.018 77.2898 129.083Z" fill="#34876F"/>
<path d="M52.4348 105.841C58.0844 116.198 78.1716 116.198 83.5073 105.841" stroke="#181818" stroke-width="1.94203" stroke-linecap="round" stroke-linejoin="round"/>
<path d="M52.312 34.0811C56.5515 31.3171 58.2751 23.6737 58.2751 23.6737C58.2751 23.6737 50.586 22.1669 46.3465 24.9309C42.1069 27.6949 40.3834 35.3382 40.3834 35.3382C40.3834 35.3382 48.0724 36.845 52.312 34.0811Z" fill="#34876F"/>
<path d="M80.1306 42.3081C76.0184 38.5722 67.3468 38.9453 67.3468 38.9453C67.3468 38.9453 67.805 47.6128 71.9171 51.3487C76.0293 55.0846 84.7009 54.7116 84.7009 54.7116C84.7009 54.7116 84.2427 46.044 80.1306 42.3081Z" fill="#34876F"/>
</svg>
