<svg width="122" height="147" viewBox="0 0 122 147" fill="none" xmlns="http://www.w3.org/2000/svg">
<rect x="6" y="6.99135" width="111" height="108.865" rx="44.8891" fill="white"/>
<path fill-rule="evenodd" clip-rule="evenodd" d="M66.5089 6.99135H72.1109C96.9025 6.99135 117 27.0889 117 51.8805V70.9677C117 71.5915 116.987 72.2123 116.962 72.8299C112.723 74.233 108.199 74.9913 103.5 74.9913C79.4756 74.9913 60 55.1648 60 30.7076C60 22.1533 62.3825 13.9903 66.5089 6.99135Z" fill="#FFD374"/>
<path d="M47.5078 3.49135C40.0787 -5.41612 -1.10718 10.4116 1.50779 21.9913C4.12275 33.5711 20.0078 57.9914 32.5078 50.4913C45.0078 42.9913 54.9368 12.3988 47.5078 3.49135Z" fill="#F8B930"/>
<path d="M73.6441 3.49135C81.0731 -5.41612 122.259 10.4116 119.644 21.9913C117.029 33.5711 101.144 57.9914 88.6441 50.4913C76.1441 42.9913 66.2151 12.3988 73.6441 3.49135Z" fill="#F8B930"/>
<circle cx="7.19408" cy="7.19408" r="7.19408" transform="matrix(-1 0 0 1 93 51.9913)" fill="#3A211F"/>
<circle cx="1.59869" cy="1.59869" r="1.59869" transform="matrix(-1 0 0 1 90.1974 55.9913)" fill="white"/>
<path d="M45 62.9913C45 61.9408 44.7931 60.9005 44.391 59.9299C43.989 58.9593 43.3997 58.0774 42.6569 57.3345C41.914 56.5916 41.0321 56.0023 40.0615 55.6003C39.0909 55.1983 38.0506 54.9913 37 54.9913C35.9494 54.9913 34.9091 55.1983 33.9385 55.6003C32.9679 56.0023 32.086 56.5916 31.3431 57.3345C30.6003 58.0774 30.011 58.9593 29.609 59.9299C29.2069 60.9005 29 61.9408 29 62.9913" stroke="#3A211F" stroke-width="2.5" stroke-linecap="round" stroke-linejoin="round"/>
<ellipse cx="60.9634" cy="85.4913" rx="29.9634" ry="19.5" fill="#F2F2F2"/>
<path d="M61.5 75.5047V83.5378C61.5 86.1611 63.6266 88.2878 66.25 88.2878H66.9136C69.1705 88.2878 71 86.4582 71 84.2014V84.2014" stroke="#3A211F" stroke-width="2.5" stroke-linecap="round" stroke-linejoin="round"/>
<path d="M61.5 75.5047V83.5378C61.5 86.1611 59.3734 88.2878 56.75 88.2878H56.0864C53.8295 88.2878 52 86.4582 52 84.2014V84.2014" stroke="#3A211F" stroke-width="2.5" stroke-linecap="round" stroke-linejoin="round"/>
<path d="M68.3658 74.2867C68.3658 72.4667 65.292 70.9913 61.5004 70.9913C57.7087 70.9913 54.635 72.4667 54.635 74.2867C54.635 76.1067 57.7088 80.4312 61.5004 80.4312C65.2921 80.4312 68.3658 76.1067 68.3658 74.2867Z" fill="#3A211F"/>
<circle cx="57.6386" cy="73.9949" r="1.28726" fill="white"/>
<ellipse cx="28.6937" cy="74.4913" rx="7.69369" ry="4.5" fill="#FEB1AA"/>
<ellipse cx="92.0811" cy="74.4913" rx="7.69369" ry="4.5" fill="#FEB1AA"/>
<path d="M45.1859 127.274L45.1896 127.271C48.0151 127.282 50.4374 125.271 50.9442 122.493L72.6614 122.526C73.2695 125.707 76.34 127.803 79.5196 127.205C82.6993 126.608 84.7838 123.545 84.1758 120.363C83.9474 119.167 83.3529 118.071 82.475 117.227C83.6343 116.133 84.2893 114.608 84.2853 113.011C84.3537 109.775 81.7854 107.087 78.549 107.008C75.6293 106.936 73.1095 109.025 72.6399 111.906L50.9263 111.869C50.3183 108.687 47.2478 106.592 44.0681 107.19C40.8886 107.787 38.8039 110.85 39.412 114.032C39.6405 115.228 40.235 116.324 41.1129 117.168C38.7761 119.4 38.6978 123.111 40.9382 125.455C42.0476 126.616 43.5827 127.273 45.1859 127.274Z" fill="#D3D3D3"/>
</svg>
