<svg width="114" height="141" viewBox="0 0 114 141" fill="none" xmlns="http://www.w3.org/2000/svg">
<path fill-rule="evenodd" clip-rule="evenodd" d="M98.094 49.3949C98.1244 49.7556 98.3136 50.0865 98.61 50.2944C107.899 56.8123 113.971 67.6035 113.971 79.8129C113.971 99.7145 97.8378 115.848 77.9362 115.848H36.0351C16.1335 115.848 0 99.7145 0 79.8129C0 68.0527 5.63345 57.6084 14.349 51.0312C14.6331 50.8167 14.8099 50.4867 14.8325 50.1314C16.0083 31.6483 31.3718 17.0211 50.1517 17.0211H62.8293C81.359 17.0211 96.5627 31.2612 98.094 49.3949Z" fill="#D5DE72"/>
<g style="mix-blend-mode:multiply">
<path fill-rule="evenodd" clip-rule="evenodd" d="M61.2445 42.3763C70.58 42.3763 78.1479 34.8083 78.1479 25.4728C78.1479 23.5922 77.8408 21.7832 77.2739 20.0934C72.8631 18.1191 67.9744 17.0211 62.8292 17.0211H50.1516C48.9173 17.0211 47.6978 17.0843 46.4961 17.2076C45.1237 19.6513 44.3411 22.4707 44.3411 25.4728C44.3411 34.8083 51.909 42.3763 61.2445 42.3763Z" fill="#D5DE72"/>
</g>
<g style="mix-blend-mode:multiply">
<path fill-rule="evenodd" clip-rule="evenodd" d="M16.2229 42.3105C18.4929 34.675 23.2702 28.1187 29.6002 23.5962C33.336 25.5286 35.8895 29.4285 35.8895 33.9247C35.8895 40.3429 30.6865 45.5458 24.2683 45.5458C21.1458 45.5458 18.3109 44.3143 16.2229 42.3105Z" fill="#D5DE72"/>
</g>
<g style="mix-blend-mode:multiply">
<path fill-rule="evenodd" clip-rule="evenodd" d="M91.8494 32.1492C95.1993 36.9378 97.3942 42.5939 98.0298 48.7132C92.8667 48.6115 88.7126 44.3943 88.7126 39.2069C88.7126 36.4067 89.9231 33.8892 91.8494 32.1492Z" fill="#D5DE72"/>
</g>
<path fill-rule="evenodd" clip-rule="evenodd" d="M113.515 74.0659C113.815 75.9374 113.971 77.857 113.971 79.813C113.971 99.7146 97.8378 115.848 77.9362 115.848H36.035C16.1334 115.848 0 99.7146 0 79.813C0 76.6611 0.404684 73.6036 1.16493 70.6898C4.72414 68.1316 8.81874 66.6751 13.1754 66.6751C20.1546 66.6751 26.4612 70.4127 30.9717 76.4298C37.3056 70.4127 46.1617 66.675 55.9623 66.675C65.4486 66.675 74.05 70.1768 80.3357 75.8581C84.812 70.1768 90.9372 66.675 97.6926 66.675C103.706 66.675 109.219 69.4495 113.515 74.0659Z" fill="#FFF9BA"/>
<circle cx="15.8166" cy="84.6349" r="8.45172" fill="#FFCEB9"/>
<circle cx="97.1644" cy="84.6349" r="8.45172" fill="#FFCEB9"/>
<ellipse cx="31.3317" cy="57.5443" rx="7.06334" ry="8.82918" fill="#433D3C"/>
<ellipse cx="29.5659" cy="54.4541" rx="2.64875" ry="3.09021" fill="white"/>
<circle cx="33.539" cy="58.8687" r="1.32438" fill="white"/>
<ellipse cx="7.06334" cy="8.82918" rx="7.06334" ry="8.82918" transform="matrix(-1 0 0 1 88.2007 48.7151)" fill="#433D3C"/>
<ellipse cx="2.64875" cy="3.09021" rx="2.64875" ry="3.09021" transform="matrix(-1 0 0 1 85.5519 51.3639)" fill="white"/>
<circle cx="1.32438" cy="1.32438" r="1.32438" transform="matrix(-1 0 0 1 80.2544 57.5443)" fill="white"/>
<ellipse cx="45.2431" cy="78.7486" rx="2.64116" ry="3.69763" transform="rotate(10 45.2431 78.7486)" fill="#433D3C"/>
<ellipse cx="69.7293" cy="78.9322" rx="2.64116" ry="3.69763" transform="rotate(-10 69.7293 78.9322)" fill="#433D3C"/>
<path d="M86.2832 115.143C70.0732 100.942 73.8796 103.122 50.6189 98.4293" stroke="#5EA985" stroke-width="2.60879" stroke-linecap="round"/>
<path d="M72.1168 108.659C71.8036 105.803 69.6705 102.83 69.6705 102.83C69.6705 102.83 68.233 106.195 68.5463 109.051C68.8595 111.906 70.9925 114.88 70.9925 114.88C70.9925 114.88 72.4301 111.514 72.1168 108.659Z" fill="#5EA985"/>
<path d="M74.584 99.2567C71.9086 100.303 69.5925 103.136 69.5925 103.136C69.5925 103.136 73.2163 103.648 75.8918 102.602C78.5672 101.556 80.8834 98.7226 80.8834 98.7226C80.8834 98.7226 77.2595 98.2109 74.584 99.2567Z" fill="#5EA985"/>
<path d="M63.131 104.953C62.6217 102.126 60.2887 99.3057 60.2887 99.3057C60.2887 99.3057 59.0866 102.762 59.596 105.59C60.1053 108.417 62.4382 111.237 62.4382 111.237C62.4382 111.237 63.6403 107.78 63.131 104.953Z" fill="#5EA985"/>
<path d="M54.2817 102.237C53.2728 99.5479 50.4712 97.1931 50.4712 97.1931C50.4712 97.1931 49.9097 100.81 50.9186 103.499C51.9276 106.189 54.7292 108.544 54.7292 108.544C54.7292 108.544 55.2907 104.927 54.2817 102.237Z" fill="#5EA985"/>
<path fill-rule="evenodd" clip-rule="evenodd" d="M88.6409 109.829C88.78 109.428 88.9094 109.007 89.026 108.571C89.904 105.29 89.729 102.392 88.635 102.099C87.5411 101.806 85.9424 104.23 85.0644 107.512C84.9477 107.948 84.8497 108.377 84.7699 108.794C84.5846 108.412 84.3785 108.023 84.1528 107.632C82.453 104.691 80.2802 102.765 79.2997 103.332C78.3192 103.899 78.9023 106.742 80.6021 109.684C80.8277 110.074 81.0617 110.447 81.3001 110.798C80.8991 110.659 80.4785 110.53 80.0429 110.413C76.761 109.535 73.8632 109.71 73.5705 110.804C73.2779 111.898 75.7011 113.497 78.983 114.375C79.4188 114.492 79.8478 114.59 80.2648 114.669C79.8828 114.855 79.4939 115.061 79.1033 115.286C76.1618 116.986 74.2365 119.159 74.8031 120.139C75.3697 121.12 78.2136 120.537 81.1551 118.837C81.5458 118.611 81.9185 118.377 82.2698 118.139C82.1306 118.54 82.0013 118.961 81.8847 119.396C81.0067 122.678 81.1817 125.576 82.2757 125.869C83.3697 126.161 84.9683 123.738 85.8463 120.456C85.963 120.02 86.061 119.591 86.1408 119.174C86.3261 119.556 86.5321 119.945 86.7578 120.336C88.4576 123.277 90.6304 125.203 91.6109 124.636C92.5914 124.069 92.0083 121.225 90.3085 118.284C90.0829 117.893 89.849 117.521 89.6106 117.17C90.0116 117.309 90.4322 117.438 90.8679 117.555C94.1497 118.433 97.0475 118.258 97.3402 117.164C97.6329 116.07 95.2096 114.471 91.9277 113.593C91.4919 113.477 91.0628 113.378 90.6458 113.299C91.0278 113.113 91.4168 112.907 91.8074 112.682C94.7489 110.982 96.6742 108.809 96.1076 107.829C95.541 106.848 92.6971 107.431 89.7556 109.131C89.3649 109.357 88.9922 109.591 88.6409 109.829Z" fill="white"/>
<circle cx="85.4553" cy="113.984" r="2.81939" transform="rotate(-75.0218 85.4553 113.984)" fill="#FED402"/>
<path fill-rule="evenodd" clip-rule="evenodd" d="M27.5816 23.2327C28.0174 23.3493 28.438 23.4786 28.8392 23.6177C28.6007 23.2664 28.3667 22.8938 28.141 22.5032C26.4412 19.5616 25.8581 16.7178 26.8386 16.1512C27.8191 15.5846 29.9919 17.5098 31.6917 20.4514C31.9174 20.8419 32.1234 21.2308 32.3087 21.6129C32.3885 21.1958 32.4865 20.7668 32.6031 20.3309C33.4811 17.049 35.0798 14.6258 36.1737 14.9185C37.2677 15.2112 37.4427 18.1089 36.5647 21.3908C36.4481 21.8267 36.3188 22.2474 36.1796 22.6486C36.5309 22.4101 36.9037 22.176 37.2943 21.9503C40.2358 20.2505 43.0797 19.6674 43.6463 20.6479C44.2129 21.6284 42.2876 23.8012 39.3461 25.501C38.9555 25.7267 38.5667 25.9327 38.1846 26.118C38.6016 26.1978 39.0306 26.2958 39.4664 26.4124C42.7483 27.2904 45.1715 28.889 44.8788 29.983C44.5862 31.077 41.6884 31.252 38.4065 30.374C37.9708 30.2574 37.5503 30.1281 37.1492 29.989C37.3876 30.3402 37.6216 30.7128 37.8472 31.1033C39.547 34.0448 40.1301 36.8887 39.1496 37.4553C38.1691 38.0219 35.9963 36.0966 34.2965 33.1551C34.0708 32.7645 33.8648 32.3756 33.6795 31.9936C33.5997 32.4107 33.5016 32.8398 33.385 33.2757C32.507 36.5576 30.9084 38.9808 29.8144 38.6881C28.7204 38.3954 28.5454 35.4977 29.4234 32.2158C29.5401 31.7798 29.6694 31.359 29.8086 30.9577C29.4572 31.1963 29.0844 31.4304 28.6937 31.6562C25.7522 33.356 22.9083 33.9391 22.3417 32.9586C21.7751 31.9781 23.7004 29.8053 26.6419 28.1055C27.0324 27.8798 27.4212 27.6739 27.8031 27.4886C27.3862 27.4089 26.9573 27.3109 26.5217 27.1943C23.2398 26.3163 20.8166 24.7176 21.1092 23.6237C21.4019 22.5297 24.2997 22.3547 27.5816 23.2327Z" fill="white"/>
<circle cx="32.994" cy="26.8034" r="2.81939" transform="rotate(-75.0218 32.994 26.8034)" fill="#FED402"/>
<path d="M48.567 96.256H64.414V119.85C64.414 120.648 63.5641 121.158 62.8604 120.783L56.4905 117.385L50.1206 120.783C49.4169 121.158 48.567 120.648 48.567 119.85V96.256Z" fill="#FEB1AA"/>
<path d="M30.6072 90.9738C32.9235 94.7055 36.1535 97.5909 40.6436 97.8408C45.2374 98.0964 51.1254 95.6732 56.4906 95.7278C61.6398 95.7803 66.7941 97.9587 71.2811 97.8408C76.3072 97.7087 80.496 95.0785 82.9022 90.9738" stroke="#433D3C" stroke-width="2.64116" stroke-linecap="round" stroke-linejoin="round"/>
</svg>
