<svg width="126" height="137" viewBox="0 0 126 137" fill="none" xmlns="http://www.w3.org/2000/svg">
<path d="M56.3391 61.4117C56.3391 78.7274 49.0683 91.5586 29.0172 91.5586C8.96605 91.5586 -3.81425 86.7351 1.02563 59.6028C5.86551 32.4706 31.2403 18 48.0421 18C64.8439 18 56.3391 44.0959 56.3391 61.4117Z" fill="#B37B5E"/>
<path d="M69.6609 61.4117C69.6609 78.7274 76.9317 91.5586 96.9828 91.5586C117.034 91.5586 129.814 86.7351 124.974 59.6028C120.134 32.4706 94.7597 18 77.9579 18C61.1561 18 69.6609 44.0959 69.6609 61.4117Z" fill="#B37B5E"/>
<path d="M46.5714 7.12656C51.1279 11.1548 54.7076 14.9396 58.1387 22.4277C58.1797 22.5171 58.2696 22.5761 58.368 22.5761H70.7738C70.9325 22.5761 71.0501 22.4251 71.0208 22.2691C69.4896 14.1051 74.638 12.3653 80.4518 7.60021C80.6369 7.44854 80.5184 7.15122 80.2793 7.16046C75.9128 7.32924 74.4688 7.15355 69.8663 10.8979C69.6621 11.064 69.3601 10.8457 69.458 10.6013C70.8353 7.15972 71.3666 4.8445 71.1975 1.51238C71.1831 1.22907 70.7767 1.19468 70.6952 1.46642C69.802 4.44817 68.3948 6.56927 65.0855 10.0933C64.9546 10.2326 64.7216 10.18 64.6672 9.99677C63.5946 6.38188 63.9767 4.43792 64.8892 1.15327C64.9619 0.891535 64.6291 0.718963 64.4605 0.93199C62.2383 3.7404 61.066 5.83008 60.4336 9.44335C60.3889 9.69853 60.0221 9.73799 59.9236 9.49837C58.0468 4.9301 56.5146 3.75953 54.0623 1.21928C53.8623 1.01211 53.5111 1.25134 53.6346 1.51146C55.3788 5.1855 56.1511 6.8293 56.2414 12.1274C56.2452 12.3494 55.9792 12.4632 55.8197 12.3089C52.0082 8.62157 51.1828 7.55794 46.7804 6.69713C46.5315 6.64846 46.3814 6.95855 46.5714 7.12656Z" fill="#DCAD8F"/>
<path d="M107.355 69.558C107.355 100.178 100.237 93.3376 63.4572 94.0671C26.6778 94.7966 19.5592 100.178 19.5592 69.558C19.5592 38.9385 29.7964 16.305 61.6775 16.305C93.5587 16.305 107.355 38.9385 107.355 69.558Z" fill="#DCAD8F"/>
<path d="M104.847 94.0332C104.847 106.483 86.0352 115.389 62.83 115.389C39.6249 115.389 20.8134 106.483 20.8134 94.0332C20.8134 81.5835 36.4913 71.491 62.83 71.491C89.1688 71.491 104.847 81.5835 104.847 94.0332Z" fill="#C9936D"/>
<ellipse cx="44.4887" cy="66.4741" rx="5.01691" ry="7.52537" fill="#3A211F"/>
<circle cx="45.9676" cy="63.067" r="1.3234" fill="white"/>
<ellipse cx="5.01691" cy="7.52537" rx="5.01691" ry="7.52537" transform="matrix(-1 0 0 1 88.3866 58.9487)" fill="#3A211F"/>
<circle cx="1.3234" cy="1.3234" r="1.3234" transform="matrix(-1 0 0 1 86.8004 61.7436)" fill="white"/>
<circle cx="36.0721" cy="89.027" r="7.69369" fill="#FFA98E"/>
<circle cx="89.9279" cy="89.027" r="7.69369" fill="#FFA98E"/>
<rect x="63" y="88" width="3" height="13" rx="1.5" fill="#3A211F"/>
<path d="M75.1172 83.1041C75.1172 80.3051 70.39 78.036 64.5586 78.036C58.7272 78.036 54 80.3051 54 83.1041C54 85.9032 58.7273 92.5541 64.5587 92.5541C70.39 92.5541 75.1172 85.9032 75.1172 83.1041Z" fill="#3A211F"/>
<circle cx="58.6194" cy="82.6554" r="1.97974" fill="white"/>
<path d="M64.3617 16.4181C63.9685 16.5866 63.5224 16.6753 63.0684 16.6753H61.8895C61.4355 16.6753 60.9894 16.5866 60.5962 16.4181L50.9321 12.2771C49.1211 11.5011 46.8793 12.5598 47.0116 14.1087C47.3723 18.3335 47.3651 21.6652 47.0055 25.8907C46.8739 27.438 49.1133 28.4936 50.9223 27.7184L60.9739 23.4114C61.3671 23.2429 61.8131 23.1542 62.2672 23.1542H62.6907C63.1448 23.1542 63.5908 23.2429 63.984 23.4114L74.0847 27.7395C75.8841 28.5105 78.1136 27.4701 77.9955 25.9305C77.669 21.6751 77.6539 18.3306 77.9831 14.0775C78.1025 12.5346 75.8679 11.4878 74.0645 12.2605L64.3617 16.4181Z" fill="#F0836B"/>
<path fill-rule="evenodd" clip-rule="evenodd" d="M56.2183 121.056C58.2607 121.056 60.1165 120.347 61.5926 119.516C61.2093 121.616 61.2412 123.502 61.2714 125.284L61.2779 125.678C61.3221 128.51 61.2892 131.132 59.6876 134.381C59.4099 134.944 59.6415 135.626 60.2049 135.904C60.7683 136.182 61.4501 135.95 61.7279 135.387C63.5797 131.63 63.5977 128.55 63.5523 125.642L63.5469 125.307C63.5088 122.988 63.4727 120.788 64.2327 118.241C65.6304 120.484 66.2782 122.689 66.9284 124.912L66.9458 124.971C67.7017 127.555 68.4869 130.24 70.6334 132.648C71.0513 133.117 71.7703 133.158 72.2392 132.74C72.7081 132.322 72.7494 131.603 72.3314 131.134C70.5551 129.141 69.8861 126.92 69.1116 124.273L69.0921 124.206C68.7202 122.935 68.3248 121.583 67.755 120.182C68.9545 120.693 70.3204 121.056 71.7817 121.056C74.1457 121.056 76.3417 120.597 77.9892 119.804C79.5558 119.05 81 117.788 81 116.028C81 114.268 79.5558 113.007 77.9892 112.252C76.3417 111.459 74.1457 111 71.7817 111C68.3632 111 65.4674 112.986 64 114.208C62.5326 112.986 59.6368 111 56.2183 111C53.8543 111 51.6583 111.459 50.0108 112.252C48.4442 113.007 47 114.268 47 116.028C47 117.788 48.4442 119.05 50.0108 119.804C51.6583 120.597 53.8543 121.056 56.2183 121.056ZM50.9976 114.302C49.6395 114.956 49.2746 115.639 49.2746 116.028C49.2746 116.417 49.6395 117.101 50.9976 117.755C52.2748 118.37 54.1193 118.782 56.2183 118.782C58.8814 118.782 61.2855 117.154 62.5784 116.071L62.6041 116.006C61.3175 114.924 58.8992 113.275 56.2183 113.275C54.1193 113.275 52.2748 113.687 50.9976 114.302ZM65.6533 116.261C65.5852 116.163 65.5157 116.064 65.4447 115.966C66.743 114.883 69.1343 113.275 71.7817 113.275C73.8807 113.275 75.7252 113.687 77.0024 114.302C78.3605 114.956 78.7254 115.639 78.7254 116.028C78.7254 116.417 78.3605 117.101 77.0024 117.755C75.7252 118.37 73.8807 118.782 71.7817 118.782C69.2703 118.782 66.9893 117.334 65.6533 116.261Z" fill="#513831"/>
</svg>
