<svg width="138" height="125" viewBox="0 0 138 125" fill="none" xmlns="http://www.w3.org/2000/svg">
<path fill-rule="evenodd" clip-rule="evenodd" d="M15 20.2111C15 9.04882 24.0488 0 35.2111 0C46.3734 0 55.4222 9.04882 55.4222 20.2111V21.9546C55.4222 22.5069 55.8699 22.9546 56.4222 22.9546H80.5778C81.1301 22.9546 81.5778 22.5069 81.5778 21.9546V20.2111C81.5778 9.04881 90.6266 0 101.789 0C112.951 0 122 9.04882 122 20.2111V58.0244C122 58.5632 121.563 59 121.024 59H56.4222C55.8699 59 55.4222 59.4478 55.4222 60C55.4222 60.5523 54.9745 61 54.4222 61H16C15.4477 61 15 60.5523 15 60V59V22.9546V20.2111Z" fill="#51B36A"/>
<path d="M7 70.69C7 52.7387 21.2289 37.9635 39.1762 37.5866C59.8262 37.1529 77.6467 37.1521 98.2987 37.5856C116.246 37.9624 130.474 52.7379 130.474 70.6888C130.474 89.0861 115.56 104 97.1625 104H40.31C21.9134 104 7 89.0866 7 70.69Z" fill="#59C385"/>
<circle cx="35" cy="20" r="15" fill="white"/>
<circle cx="11" cy="11" r="11" transform="matrix(-1 0 0 1 45 12)" fill="#393939"/>
<circle cx="4.05263" cy="4.05263" r="4.05263" transform="matrix(-1 0 0 1 41.4459 15.6986)" fill="white"/>
<circle cx="1.73684" cy="1.73684" r="1.73684" transform="matrix(-1 0 0 1 34.3685 25.092)" fill="white"/>
<circle cx="103" cy="20" r="15" fill="white"/>
<circle cx="11" cy="11" r="11" transform="matrix(-1 0 0 1 113 12)" fill="#393939"/>
<circle cx="4.05263" cy="4.05263" r="4.05263" transform="matrix(-1 0 0 1 109.446 15.6986)" fill="white"/>
<circle cx="1.73684" cy="1.73684" r="1.73684" transform="matrix(-1 0 0 1 102.368 25.092)" fill="white"/>
<path fill-rule="evenodd" clip-rule="evenodd" d="M112.467 100.502C108.037 102.74 103.029 104 97.7263 104H39.7474C34.4449 104 29.4367 102.74 25.0061 100.502C23.7695 97.1887 23.1052 93.6775 23.1052 90.0421C23.1052 69.8808 43.5352 53.5369 68.7368 53.5369C93.9384 53.5369 114.368 69.8808 114.368 90.0421C114.368 93.6775 113.704 97.1887 112.467 100.502Z" fill="#89E3B4"/>
<ellipse cx="53.1684" cy="47.2421" rx="3.22105" ry="4.29474" fill="#393939"/>
<ellipse cx="84.3053" cy="47.2421" rx="3.22105" ry="4.29474" fill="#393939"/>
<circle cx="22" cy="61.8315" r="11" fill="#FFAA97"/>
<circle cx="116" cy="61.8315" r="11" fill="#FFAA97"/>
<path d="M53 81.842H61.5895V87.2841C61.5895 89.0631 60.1474 90.5052 58.3684 90.5052H56.2211C54.4421 90.5052 53 89.0631 53 87.2841V81.842Z" fill="#F2F2F2"/>
<path d="M77.5895 81.842H86.179V87.2841C86.179 89.0631 84.7368 90.5052 82.9579 90.5052H80.8105C79.0316 90.5052 77.5895 89.0631 77.5895 87.2841V81.842Z" fill="#F2F2F2"/>
<path d="M41 75C43.4869 79.0067 46.955 82.1047 51.7759 82.373C56.7082 82.6475 63.03 80.0457 68.7906 80.1044C74.3193 80.1607 79.8534 82.4996 84.6709 82.373C90.0674 82.2312 94.5648 79.4071 97.1483 75" stroke="#433D3C" stroke-width="2.83577" stroke-linecap="round" stroke-linejoin="round"/>
<rect x="63" y="26" width="12" height="3" rx="1.5" fill="#89E3B4" fill-opacity="0.8"/>
<rect x="63" y="31" width="12" height="3" rx="1.5" fill="#89E3B4" fill-opacity="0.8"/>
<path d="M73.7022 51.9454C73.7156 51.8032 73.7225 51.659 73.7225 51.5131C73.7225 49.0206 71.7155 47 69.2397 47C66.7639 47 64.7569 49.0206 64.7569 51.5131C64.7569 51.7551 64.7758 51.9926 64.8122 52.2243C63.3187 51.3207 61.3855 51.3042 59.8863 52.3367C57.8583 53.7334 57.3926 56.5208 58.8461 58.5626C59.621 59.6511 60.7849 60.3079 62.0101 60.4723C61.8857 60.609 61.7682 60.7545 61.6584 60.9087C60.2049 62.9504 60.6706 65.7379 62.6986 67.1346C64.7267 68.5313 67.549 68.0084 69.0026 65.9666C69.081 65.8564 69.1539 65.744 69.2212 65.6298C69.2885 65.744 69.3614 65.8564 69.4399 65.9666C70.8934 68.0084 73.7158 68.5313 75.7438 67.1346C77.7718 65.7379 78.2376 62.9504 76.784 60.9087C76.6549 60.7273 76.5151 60.558 76.3659 60.4009C77.4419 60.1593 78.4409 59.5322 79.1311 58.5626C80.5847 56.5208 80.1189 53.7334 78.0909 52.3367C76.766 51.4242 75.102 51.331 73.7022 51.9454Z" fill="#FFE799"/>
<g style="mix-blend-mode:multiply">
<circle cx="69.493" cy="57.9469" r="3.38163" transform="rotate(24.6549 69.493 57.9469)" fill="#FFCE05" fill-opacity="0.6"/>
</g>
<path d="M43.3704 111.552C45.6686 112.8 48.1869 114.075 51.0488 115.453C51.3794 115.612 51.7826 115.466 51.9493 115.127C52.116 114.788 51.9831 114.384 51.6525 114.224C48.8461 112.873 46.3752 111.624 44.1203 110.401C44.1213 110.308 44.1106 110.216 44.089 110.126C44.1028 110.078 44.1145 110.027 44.1237 109.974C44.3999 108.397 44.5854 106.344 44.2015 104.498C44.0126 103.59 43.6755 102.683 43.2759 101.833C42.2508 99.6509 39.4699 100.148 39.3935 102.527C39.3637 103.454 39.4147 104.412 39.6036 105.32C39.833 106.423 40.2809 107.525 40.794 108.525C38.341 107.081 36.1062 105.621 33.8887 104.017C33.9029 103.972 33.9153 103.925 33.9256 103.876C34.2565 102.308 34.5134 100.26 34.1946 98.4003C34.0377 97.4853 33.7328 96.5656 33.3636 95.7005C32.4163 93.4813 29.6225 93.8793 29.4632 96.2561C29.4011 97.1827 29.4186 98.1433 29.5754 99.0583C29.6986 99.7768 29.9131 100.498 30.1783 101.194C27.8608 99.3471 25.4445 97.2762 22.7131 94.8453L21.8117 95.8752C24.5235 98.2887 26.9307 100.353 29.2401 102.197C28.5468 102.182 27.8492 102.218 27.1795 102.328C26.2705 102.476 25.3636 102.768 24.5133 103.124C22.3111 104.045 22.848 106.831 25.2599 106.998C26.1912 107.062 27.1518 107.049 28.0609 106.9C29.8195 106.613 31.5701 105.788 32.9187 105.005C34.9962 106.515 37.085 107.898 39.3448 109.256C38.664 109.337 37.986 109.467 37.3446 109.664C36.4603 109.935 35.5974 110.348 34.7993 110.815C32.7322 112.026 33.6389 114.702 36.0601 114.536C36.995 114.472 37.9488 114.328 38.833 114.056C40.525 113.537 42.1389 112.501 43.3704 111.552Z" fill="#BBD468"/>
<path d="M13.0327 83.8455C13.033 81.5349 13.8996 79.2206 15.6374 78.9653C18.6345 78.525 22.4198 82.5742 24.7616 87.6799C26.8157 92.1583 26.9878 96.1755 24.8959 97.3902C24.8572 97.4515 24.8156 97.511 24.7708 97.5685C24.7218 97.6314 24.6696 97.6913 24.6144 97.7482C23.9485 100.085 19.6279 101.394 14.8045 100.467C9.30967 99.41 4.88492 96.182 4.58964 93.1527C4.4178 91.3898 6.43075 89.9912 8.67731 89.4386C7.35044 87.2611 6.53526 85.1202 7.44879 83.9471C8.36032 82.7765 10.6175 83.0804 13.0327 83.8455Z" fill="#FFEBA8"/>
<path d="M13.0327 83.8456C13.033 81.535 13.8996 79.2207 15.6374 78.9654C18.6345 78.5251 22.4198 82.5742 24.7616 87.68C26.8156 92.1583 26.9877 96.1756 24.8958 97.3903C24.8572 97.4516 24.8155 97.511 24.7708 97.5685C24.7217 97.6315 24.6696 97.6914 24.6144 97.7483C23.9484 100.085 19.6279 101.394 14.8044 100.467C9.30963 99.4101 4.88488 96.1821 4.58961 93.1528C4.41776 91.3899 6.43072 89.9913 8.67727 89.4387C7.3504 87.2612 6.53522 85.1203 7.44876 83.9472C8.36029 82.7766 10.6175 83.0804 13.0327 83.8456Z" fill="white"/>
<path d="M93.9872 111.552C91.689 112.8 89.1707 114.075 86.3089 115.453C85.9783 115.612 85.5751 115.466 85.4083 115.127C85.2416 114.788 85.3745 114.384 85.7052 114.224C88.5116 112.873 90.9825 111.624 93.2374 110.401C93.2364 110.308 93.247 110.216 93.2687 110.126C93.2548 110.078 93.2432 110.027 93.234 109.974C92.9578 108.397 92.7723 106.344 93.1562 104.498C93.345 103.59 93.6821 102.683 94.0817 101.833C95.1068 99.6509 97.8878 100.148 97.9642 102.527C97.994 103.454 97.9429 104.412 97.754 105.32C97.5247 106.423 97.0768 107.525 96.5637 108.525C99.0166 107.081 101.252 105.621 103.469 104.017C103.455 103.972 103.442 103.925 103.432 103.876C103.101 102.308 102.844 100.26 103.163 98.4003C103.32 97.4853 103.625 96.5656 103.994 95.7005C104.941 93.4813 107.735 93.8793 107.894 96.2561C107.957 97.1827 107.939 98.1433 107.782 99.0583C107.659 99.7768 107.445 100.498 107.179 101.194C109.497 99.3471 111.913 97.2762 114.645 94.8453L115.546 95.8752C112.834 98.2887 110.427 100.353 108.118 102.197C108.811 102.182 109.508 102.218 110.178 102.328C111.087 102.476 111.994 102.768 112.844 103.124C115.047 104.045 114.51 106.831 112.098 106.998C111.166 107.062 110.206 107.049 109.297 106.9C107.538 106.613 105.788 105.788 104.439 105.005C102.361 106.515 100.273 107.898 98.0129 109.256C98.6937 109.337 99.3716 109.467 100.013 109.664C100.897 109.935 101.76 110.348 102.558 110.815C104.625 112.026 103.719 114.702 101.298 114.536C100.363 114.472 99.4089 114.328 98.5246 114.056C96.8326 113.537 95.2188 112.501 93.9872 111.552Z" fill="#BBD468"/>
<path d="M124.325 83.8455C124.325 81.5349 123.458 79.2206 121.72 78.9653C118.723 78.525 114.938 82.5742 112.596 87.6799C110.542 92.1583 110.37 96.1755 112.462 97.3902C112.5 97.4515 112.542 97.511 112.587 97.5685C112.636 97.6314 112.688 97.6913 112.743 97.7482C113.409 100.085 117.73 101.394 122.553 100.467C128.048 99.41 132.473 96.182 132.768 93.1527C132.94 91.3898 130.927 89.9912 128.68 89.4386C130.007 87.2611 130.822 85.1202 129.909 83.9471C128.997 82.7765 126.74 83.0804 124.325 83.8455Z" fill="#FFEBA8"/>
<path d="M124.325 83.8456C124.325 81.535 123.458 79.2207 121.72 78.9654C118.723 78.5251 114.938 82.5742 112.596 87.68C110.542 92.1583 110.37 96.1756 112.462 97.3903C112.5 97.4516 112.542 97.511 112.587 97.5685C112.636 97.6315 112.688 97.6914 112.743 97.7483C113.409 100.085 117.73 101.394 122.553 100.467C128.048 99.4101 132.473 96.1821 132.768 93.1528C132.94 91.3899 130.927 89.9913 128.68 89.4387C130.007 87.2612 130.822 85.1203 129.909 83.9472C128.997 82.7766 126.74 83.0804 124.325 83.8456Z" fill="white"/>
<path d="M73.7022 107.945C73.7156 107.803 73.7225 107.659 73.7225 107.513C73.7225 105.021 71.7155 103 69.2397 103C66.7639 103 64.7569 105.021 64.7569 107.513C64.7569 107.755 64.7758 107.993 64.8122 108.224C63.3187 107.321 61.3855 107.304 59.8863 108.337C57.8583 109.733 57.3926 112.521 58.8461 114.563C59.621 115.651 60.7849 116.308 62.0101 116.472C61.8857 116.609 61.7682 116.755 61.6584 116.909C60.2049 118.95 60.6706 121.738 62.6986 123.135C64.7267 124.531 67.549 124.008 69.0026 121.967C69.081 121.856 69.1539 121.744 69.2212 121.63C69.2885 121.744 69.3614 121.856 69.4399 121.967C70.8934 124.008 73.7158 124.531 75.7438 123.135C77.7718 121.738 78.2376 118.95 76.784 116.909C76.6549 116.727 76.5151 116.558 76.3659 116.401C77.4419 116.159 78.4409 115.532 79.1311 114.563C80.5847 112.521 80.1189 109.733 78.0909 108.337C76.766 107.424 75.102 107.331 73.7022 107.945Z" fill="white"/>
<g style="mix-blend-mode:multiply">
<circle cx="69.493" cy="113.947" r="3.38163" transform="rotate(24.6549 69.493 113.947)" fill="#FFCE05" fill-opacity="0.6"/>
</g>
<path d="M91.5122 106.256C91.5238 106.133 91.5297 106.009 91.5297 105.884C91.5297 103.739 89.8026 102 87.6721 102C85.5416 102 83.8145 103.739 83.8145 105.884C83.8145 106.092 83.8308 106.296 83.8622 106.496C82.577 105.718 80.9133 105.704 79.6232 106.592C77.8781 107.794 77.4773 110.193 78.7281 111.95C79.3949 112.887 80.3965 113.452 81.4509 113.593C81.3438 113.711 81.2426 113.836 81.1482 113.969C79.8974 115.726 80.2981 118.125 82.0433 119.326C83.7885 120.528 86.2173 120.078 87.4681 118.321C87.5356 118.227 87.5983 118.13 87.6562 118.032C87.7142 118.13 87.7769 118.227 87.8444 118.321C89.0952 120.078 91.5239 120.528 93.2691 119.326C95.0143 118.125 95.4151 115.726 94.1643 113.969C94.0532 113.813 93.9328 113.667 93.8045 113.532C94.7304 113.324 95.5901 112.784 96.1841 111.95C97.4349 110.193 97.0341 107.794 95.2889 106.592C94.1488 105.807 92.7168 105.727 91.5122 106.256Z" fill="white"/>
<g style="mix-blend-mode:multiply">
<circle cx="87.8901" cy="111.42" r="2.91" transform="rotate(24.6549 87.8901 111.42)" fill="#FFCE05" fill-opacity="0.6"/>
</g>
<path d="M54.5122 106.256C54.5238 106.133 54.5297 106.009 54.5297 105.884C54.5297 103.739 52.8026 102 50.6721 102C48.5416 102 46.8145 103.739 46.8145 105.884C46.8145 106.092 46.8308 106.296 46.8622 106.496C45.577 105.718 43.9133 105.704 42.6232 106.592C40.8781 107.794 40.4773 110.193 41.7281 111.95C42.3949 112.887 43.3965 113.452 44.4509 113.593C44.3438 113.711 44.2426 113.836 44.1482 113.969C42.8974 115.726 43.2981 118.125 45.0433 119.326C46.7885 120.528 49.2173 120.078 50.4681 118.321C50.5356 118.227 50.5983 118.13 50.6562 118.032C50.7142 118.13 50.7769 118.227 50.8444 118.321C52.0952 120.078 54.5239 120.528 56.2691 119.326C58.0143 118.125 58.4151 115.726 57.1643 113.969C57.0532 113.813 56.9328 113.667 56.8045 113.532C57.7304 113.324 58.5901 112.784 59.1841 111.95C60.4349 110.193 60.0341 107.794 58.2889 106.592C57.1488 105.807 55.7168 105.727 54.5122 106.256Z" fill="white"/>
<g style="mix-blend-mode:multiply">
<circle cx="50.8901" cy="111.42" r="2.91" transform="rotate(24.6549 50.8901 111.42)" fill="#FFCE05" fill-opacity="0.6"/>
</g>
</svg>
