<svg width="122" height="140" viewBox="0 0 122 140" fill="none" xmlns="http://www.w3.org/2000/svg">
<path d="M39.0114 59.4923C49.0153 35.7518 45.9117 14.5772 20.0761 11.6578" stroke="#FFEBA8" stroke-width="4" stroke-linecap="round"/>
<ellipse cx="7.38182" cy="9.49091" rx="7.38182" ry="9.49091" transform="matrix(-0.398439 0.917195 0.917195 0.398439 15.8828 0)" fill="#FFD974"/>
<path d="M82.5721 59.4923C72.5682 35.7518 75.6718 14.5772 101.507 11.6578" stroke="#FFEBA8" stroke-width="4" stroke-linecap="round"/>
<ellipse cx="99.9369" cy="10.5521" rx="7.38182" ry="9.49091" transform="rotate(66.5194 99.9369 10.5521)" fill="#FFD974"/>
<path d="M2.63003 75.5034C3.95841 49.9985 25.0256 30 50.5651 30H71.4349C96.9743 30 118.042 49.9985 119.37 75.5034C120.8 102.957 98.9254 126 71.4349 126H50.5651C23.0746 126 1.20018 102.957 2.63003 75.5034Z" fill="#FFEBA8"/>
<g style="mix-blend-mode:multiply">
<path fill-rule="evenodd" clip-rule="evenodd" d="M2.65632 75.041C2.64684 75.1949 2.63808 75.3491 2.63004 75.5034C1.20018 102.957 23.0746 126 50.5651 126H71.4349C98.9254 126 120.8 102.957 119.37 75.5034C119.362 75.349 119.353 75.1949 119.344 75.0409C117.797 99.9861 97.0546 120 71.4349 120H50.5651C24.9454 120 4.20339 99.9862 2.65632 75.041Z" fill="#FFEBA8" fill-opacity="0.7"/>
</g>
<circle cx="15" cy="15" r="15" transform="matrix(-1 0 0 1 46 51)" fill="white"/>
<ellipse cx="32.4475" cy="64.434" rx="11.6555" ry="11.1893" fill="#393939"/>
<circle cx="35.711" cy="61.6367" r="3.72976" fill="white"/>
<circle cx="29.6502" cy="68.6301" r="2.3311" fill="white"/>
<circle cx="15" cy="15" r="15" transform="matrix(-1 0 0 1 106 51)" fill="white"/>
<ellipse cx="92.4476" cy="64.434" rx="11.6555" ry="11.1893" fill="#393939"/>
<circle cx="95.7111" cy="61.6367" r="3.72976" fill="white"/>
<circle cx="89.6503" cy="68.6301" r="2.3311" fill="white"/>
<path d="M74 78C74 79.8385 73.6637 81.659 73.0104 83.3576C72.3571 85.0561 71.3995 86.5995 70.1924 87.8995C68.9852 89.1995 67.5521 90.2307 65.9749 90.9343C64.3977 91.6379 62.7072 92 61 92C59.2928 92 57.6023 91.6379 56.0251 90.9343C54.4479 90.2307 53.0148 89.1995 51.8076 87.8995C50.6004 86.5995 49.6429 85.0561 48.9896 83.3576C48.3363 81.659 48 79.8385 48 78L74 78Z" fill="#393939"/>
<path fill-rule="evenodd" clip-rule="evenodd" d="M70.764 87.2431C70.5803 87.4681 70.3897 87.6871 70.1924 87.8995C68.9853 89.1995 67.5522 90.2308 65.9749 90.9343C64.3977 91.6379 62.7072 92 61 92C59.2929 92 57.6024 91.6379 56.0252 90.9343C54.4479 90.2308 53.0148 89.1995 51.8076 87.8995C51.6104 87.6871 51.4198 87.4681 51.2361 87.2431C52.499 85.2838 54.6096 84 57 84C58.4873 84 59.8662 84.4969 61 85.3443C62.1339 84.4969 63.5128 84 65 84C67.3905 84 69.5011 85.2838 70.764 87.2431Z" fill="#ED653B"/>
<ellipse cx="17.5" cy="87.5" rx="5.5" ry="4.5" fill="#FEB1AA"/>
<ellipse cx="107.5" cy="87.5" rx="5.5" ry="4.5" fill="#FEB1AA"/>
<path d="M76.3476 101.677C76.4406 101.614 76.5454 101.564 76.6597 101.532C77.2301 101.369 77.8242 101.696 77.9868 102.262C79.5569 107.725 80.085 110.899 80.1174 116.603C80.1207 117.191 79.6426 117.672 79.0496 117.677C78.4565 117.681 77.9731 117.208 77.9697 116.619C77.9409 111.541 77.5157 108.609 76.2458 104.001C75.462 106.246 74.1093 109.432 72.3153 111.048C69.369 113.701 64.1217 114.094 64.1217 114.094C64.1217 114.094 64.1867 108.081 67.1559 105.618C69.5619 103.622 74.544 102.16 76.3476 101.677Z" fill="#8ED2C9"/>
<path d="M88.1283 116.48C89.0554 121.701 85.0538 124.746 81.2089 125.428C77.3639 126.111 72.7659 123.995 71.9418 119.354C71.1177 114.713 74.3688 109.767 78.6438 110.982C82.0578 108.581 87.2011 111.258 88.1283 116.48Z" fill="#EB735A"/>
<path d="M96.8936 102.874C96.7768 102.794 96.6452 102.732 96.5016 102.691C95.7854 102.486 95.0392 102.897 94.8351 103.607C92.8634 110.468 92.2002 114.454 92.1596 121.617C92.1554 122.356 92.7557 122.96 93.5005 122.966C94.2452 122.971 94.8524 122.377 94.8566 121.638C94.8927 115.26 95.4267 111.579 97.0215 105.792C98.0057 108.611 99.7044 112.612 101.957 114.641C105.657 117.973 112.247 118.466 112.247 118.466C112.247 118.466 112.165 110.915 108.436 107.822C105.415 105.315 99.1585 103.48 96.8936 102.874Z" fill="#8ED2C9"/>
<path d="M82.0996 121.462C80.9353 128.019 85.9604 131.843 90.7888 132.7C95.6173 133.557 101.391 130.9 102.426 125.072C103.461 119.243 99.3785 113.032 94.01 114.559C89.7228 111.543 83.2638 114.905 82.0996 121.462Z" fill="#FB7B60"/>
</svg>
