<svg width="116" height="136" viewBox="0 0 116 136" fill="none" xmlns="http://www.w3.org/2000/svg">
<path d="M55.7968 4.06119C55.7653 1.86603 56.9275 0.048192 58.3926 0.000939431C59.8578 -0.0463132 61.0712 1.69491 61.1027 3.89007L61.1475 7.00529L61.8522 4.10448C62.3534 2.04122 63.8761 0.977399 65.2533 1.72836C66.6304 2.47933 67.3405 4.7607 66.8392 6.82395L64.4191 16.7862C63.9178 18.8495 62.3951 19.9133 61.0179 19.1623C60.577 18.9219 60.2045 18.5246 59.9182 18.0278C59.5464 18.3466 59.1176 18.5347 58.6591 18.5495C58.2835 18.5616 57.9244 18.4561 57.5975 18.2556C57.3529 19.3769 56.7793 20.3244 55.9821 20.7592C54.6049 21.5101 53.0822 20.4463 52.5809 18.383L50.1608 8.42077C49.6595 6.35752 50.3696 4.07615 51.7467 3.32518C53.1239 2.57422 54.6466 3.63804 55.1478 5.7013L55.8626 8.64367L55.7968 4.06119Z" fill="#FAFAFA"/>
<path d="M5 83C5 112.271 28.7289 136 58 136C87.2711 136 111 112.271 111 83V69H5V83Z" fill="#A97337"/>
<g style="mix-blend-mode:multiply">
<path fill-rule="evenodd" clip-rule="evenodd" d="M51.5605 116.126C51.5605 116.657 51.4203 117.182 51.1479 117.672C50.8755 118.163 50.4763 118.608 49.973 118.983C49.4697 119.359 48.8722 119.656 48.2146 119.859C47.557 120.062 46.8522 120.167 46.1405 120.167C45.4287 120.167 44.7239 120.062 44.0663 119.859C43.4087 119.656 42.8112 119.359 42.3079 118.983C41.8046 118.608 41.4054 118.163 41.133 117.672C40.8607 117.182 40.7205 116.657 40.7205 116.126L46.1405 116.126H51.5605ZM62.4005 116.134C62.3992 116.662 62.259 117.185 61.988 117.672C61.7156 118.163 61.3164 118.608 60.8131 118.983C60.3098 119.359 59.7123 119.656 59.0547 119.859C58.3971 120.062 57.6923 120.167 56.9805 120.167C56.2688 120.167 55.564 120.062 54.9064 119.859C54.2488 119.656 53.6513 119.359 53.148 118.983C52.6447 118.608 52.2455 118.163 51.9731 117.672C51.7007 117.182 51.5605 116.657 51.5605 116.126L56.9805 116.126L62.4005 116.126L62.4005 116.126H67.8205H73.2405C73.2405 116.657 73.1004 117.182 72.828 117.672C72.5556 118.163 72.1564 118.608 71.6531 118.983C71.1498 119.359 70.5523 119.656 69.8947 119.859C69.2371 120.062 68.5323 120.167 67.8205 120.167C67.1088 120.167 66.404 120.062 65.7464 119.859C65.0888 119.656 64.4913 119.359 63.988 118.983C63.4847 118.608 63.0855 118.163 62.8131 117.672C62.5421 117.185 62.4019 116.662 62.4005 116.134Z" fill="#4B2807" fill-opacity="0.5"/>
</g>
<g style="mix-blend-mode:multiply">
<path fill-rule="evenodd" clip-rule="evenodd" d="M51.5605 107.236C51.5605 107.749 51.4203 108.257 51.1479 108.731C50.8755 109.205 50.4763 109.635 49.973 109.998C49.4697 110.361 48.8722 110.648 48.2146 110.845C47.557 111.041 46.8522 111.142 46.1405 111.142C45.4287 111.142 44.7239 111.041 44.0663 110.845C43.4087 110.648 42.8112 110.361 42.3079 109.998C41.8046 109.635 41.4054 109.205 41.133 108.731C40.8607 108.257 40.7205 107.749 40.7205 107.236L46.1405 107.236H51.5605ZM62.4005 107.244C62.3992 107.754 62.259 108.259 61.988 108.731C61.7156 109.205 61.3164 109.635 60.8131 109.998C60.3098 110.361 59.7123 110.648 59.0547 110.845C58.3971 111.041 57.6923 111.142 56.9805 111.142C56.2688 111.142 55.564 111.041 54.9064 110.845C54.2488 110.648 53.6513 110.361 53.148 109.998C52.6447 109.635 52.2455 109.205 51.9731 108.731C51.7007 108.257 51.5605 107.749 51.5605 107.236L56.9805 107.236L62.4005 107.236L62.4005 107.236H67.8205H73.2405C73.2405 107.749 73.1004 108.257 72.828 108.731C72.5556 109.205 72.1564 109.635 71.6531 109.998C71.1498 110.361 70.5523 110.648 69.8947 110.845C69.2371 111.041 68.5323 111.142 67.8205 111.142C67.1088 111.142 66.404 111.041 65.7464 110.845C65.0888 110.648 64.4913 110.361 63.988 109.998C63.4847 109.635 63.0855 109.205 62.8131 108.731C62.5421 108.259 62.4019 107.754 62.4005 107.244Z" fill="#4B2807" fill-opacity="0.5"/>
</g>
<g style="mix-blend-mode:multiply">
<path fill-rule="evenodd" clip-rule="evenodd" d="M50.8378 125.016V125.016L57.5225 125.016H64.2072C64.2072 126.338 63.5029 127.606 62.2493 128.54C60.9957 129.475 59.2954 130 57.5225 130C55.7496 130 54.0493 129.475 52.7957 128.54C51.544 127.607 50.8399 126.342 50.8378 125.022C50.8368 125.675 50.6639 126.321 50.329 126.923C49.9931 127.528 49.5007 128.077 48.8799 128.54C48.2592 129.003 47.5223 129.37 46.7113 129.621C45.9002 129.871 45.031 130 44.1532 130C43.2753 130 42.4061 129.871 41.595 129.621C40.784 129.37 40.0471 129.003 39.4264 128.54C38.8056 128.077 38.3133 127.528 37.9773 126.923C37.6414 126.319 37.4685 125.671 37.4685 125.016L44.1532 125.016H50.8378ZM77.0677 126.923C77.4037 126.319 77.5766 125.671 77.5766 125.016H70.8919L64.2072 125.016C64.2072 125.671 64.3801 126.319 64.716 126.923C65.052 127.528 65.5444 128.077 66.1651 128.54C66.7858 129.003 67.5227 129.37 68.3338 129.621C69.1448 129.871 70.014 130 70.8919 130C71.7697 130 72.639 129.871 73.45 129.621C74.261 129.37 74.9979 129.003 75.6187 128.54C76.2394 128.077 76.7318 127.528 77.0677 126.923Z" fill="#4B2807" fill-opacity="0.5"/>
</g>
<path fill-rule="evenodd" clip-rule="evenodd" d="M21.1519 69H5V83C5 103.914 17.1141 121.999 34.7084 130.621C39.9817 123.865 43.1982 114.872 43.1982 105C43.1982 88.2799 33.9714 74.0819 21.1519 69ZM93.8932 69H111V83C111 104.188 98.5674 122.471 80.5996 130.954C75.1704 124.162 71.8469 115.035 71.8469 105C71.8469 88.2799 81.0736 74.0819 93.8932 69Z" fill="#62401A"/>
<path d="M57.5 13.9417C26.8371 13.9417 1.87915 36.8783 1.02272 65.477C1.00765 65.7035 1 65.9319 1 66.1619V91.3318C1 97.3059 6.15742 102.149 12.5194 102.149C18.8814 102.149 24.0388 97.3059 24.0388 91.3318V81.8533L24.0388 91.8469C24.0388 97.5365 28.9507 102.149 35.0097 102.149C41.0688 102.149 45.9806 97.5365 45.9806 91.8469L45.9806 81.8533V91.3318C45.9806 97.3059 51.138 102.149 57.5 102.149C63.862 102.149 69.0194 97.3059 69.0194 91.3318L69.0194 91.8469C69.0194 97.5365 73.9313 102.149 79.9903 102.149C86.0494 102.149 90.9612 97.5365 90.9612 91.8469V91.3538C90.9738 97.3177 96.1264 102.149 102.481 102.149C108.843 102.149 114 97.3059 114 91.3318V66.1619C114 65.9319 113.992 65.7035 113.977 65.477C113.121 36.8783 88.1629 13.9417 57.5 13.9417Z" fill="#DBDBDB"/>
<path fill-rule="evenodd" clip-rule="evenodd" d="M57.5 9.16187C26.2959 9.16187 1 34.4578 1 65.6619V68.5194V77.0735V85.8497C1 92.2117 6.15742 97.3691 12.5194 97.3691C18.8814 97.3691 24.0388 92.2117 24.0388 85.8497V77.0735L24.0389 86.3982C24.0389 92.4573 28.9507 97.3691 35.0097 97.3691C41.0688 97.3691 45.9806 92.4573 45.9806 86.3982L45.9806 77.0735V85.8497C45.9806 92.2117 51.138 97.3691 57.5 97.3691C63.852 97.3691 69.0033 92.2279 69.0194 85.8797V86.3982C69.0194 92.4573 73.9312 97.3691 79.9903 97.3691C86.0493 97.3691 90.9612 92.4573 90.9612 86.3982L90.9612 85.8497C90.9612 92.2117 96.1186 97.3691 102.481 97.3691C108.843 97.3691 114 92.2117 114 85.8497V77.0735V68.5194V65.6619C114 34.4578 88.7041 9.16187 57.5 9.16187Z" fill="#FAFAFA"/>
<path d="M60.0418 95.9704C59.6106 96.16 59.1214 96.2597 58.6234 96.2597H57.3304C56.8324 96.2597 56.3432 96.16 55.912 95.9704L45.3126 91.3118C43.3264 90.4388 40.8676 91.6298 41.0127 93.3723C41.4083 98.1252 41.4004 101.873 41.0061 106.627C40.8617 108.368 43.3178 109.555 45.3019 108.683L56.3262 103.838C56.7574 103.648 57.2466 103.549 57.7446 103.549H58.2092C58.7072 103.549 59.1964 103.648 59.6276 103.838L70.7058 108.707C72.6793 109.574 75.1246 108.404 74.9951 106.672C74.637 101.884 74.6204 98.1219 74.9814 93.3372C75.1124 91.6014 72.6615 90.4238 70.6836 91.2931L60.0418 95.9704Z" fill="#FFCEB9"/>
<path d="M44.025 69.3895C42.0017 67.6857 42.1598 64.5223 44.3428 63.0286L56.6109 54.6346C58.0366 53.6592 59.9273 53.7091 61.2995 54.7584L72.2579 63.1384C74.2184 64.6376 74.3668 67.5371 72.5696 69.2286L61.5936 79.5589C60.1151 80.9505 57.8287 81.0136 56.2756 79.7058L44.025 69.3895Z" fill="#FFD500"/>
<ellipse cx="52.5" cy="67.3636" rx="1.5" ry="1.36364" fill="#512E0C"/>
<ellipse cx="64.2412" cy="67.3636" rx="1.5" ry="1.36364" fill="#512E0C"/>
<circle cx="32" cy="52" r="12" fill="#FFD500"/>
<circle cx="32" cy="52" r="8" fill="#323232"/>
<circle cx="35" cy="49.6666" r="3" fill="white"/>
<circle cx="30" cy="55.3334" r="2" fill="white"/>
<circle cx="84" cy="52" r="12" fill="#FFD500"/>
<circle cx="84" cy="52" r="8" fill="#323232"/>
<circle cx="87" cy="49.6666" r="3" fill="white"/>
<circle cx="82" cy="55.3334" r="2" fill="white"/>
<ellipse cx="24" cy="69.9091" rx="6" ry="4" fill="#FFCEB9"/>
<ellipse cx="92" cy="69.9091" rx="6" ry="4" fill="#FFCEB9"/>
<path d="M95.5767 27.9395L96.6457 23.5529C96.964 22.2468 95.916 21 94.5 21C93.0839 21 92.036 22.2468 92.3543 23.5529L93.4232 27.9395L93.9451 30.1802L95.2189 30.1019L95.5767 27.9395Z" fill="#FFE591"/>
<path d="M96.669 31.0119L101.303 32.0237C102.683 32.325 104 31.333 104 29.9926C104 28.6522 102.683 27.6602 101.303 27.9614L96.669 28.9732L94.4115 29.4123V30.4218L96.669 31.0119Z" fill="#FFE591"/>
<path d="M92.331 31.0119L87.6969 32.0238C86.3172 32.3251 85 31.333 85 29.9926C85 28.6522 86.3172 27.6603 87.6969 27.9615L92.331 28.9733L93.8489 29.3204L94.1384 30.6205L92.331 31.0119Z" fill="#FFE591"/>
<path d="M93.199 27.0197L91.2067 24.0028C90.4561 22.8662 88.7837 22.686 87.7825 23.6338C86.7812 24.5816 86.9716 26.1647 88.1723 26.8752L91.3593 28.7612L93.614 30.1802L94.5 29.3043L93.199 27.0197Z" fill="#FFE591"/>
<path d="M97.6407 28.7612L100.828 26.8752C102.028 26.1647 102.219 24.5817 101.218 23.6339C100.216 22.6861 98.5439 22.8663 97.7933 24.0029L95.801 27.0197L94.1385 29.5462L94.9793 30.6571L97.6407 28.7612Z" fill="#FFE591"/>
<path d="M97.6407 31.2241L100.828 33.11C102.028 33.8205 102.219 35.4036 101.218 36.3514C100.216 37.2992 98.5439 37.119 97.7933 35.9824L95.801 32.9655L94.2366 30.9596L95.5103 29.8474L97.6407 31.2241Z" fill="#FFE591"/>
<path d="M93.199 32.9656L91.2067 35.9824C90.4561 37.119 88.7837 37.2992 87.7825 36.3514C86.7812 35.4037 86.9716 33.8206 88.1723 33.1101L91.3593 31.2241L94.1384 29.6175L94.8513 30.1837L93.199 32.9656Z" fill="#FFE591"/>
<path d="M95.72 32.1711L96.7719 36.4878C97.0851 37.773 96.0538 39 94.6604 39C93.267 39 92.2358 37.773 92.5489 36.4878L93.6008 32.1711L94.0053 29.8321L95.031 29.726L95.72 32.1711Z" fill="#FFE591"/>
<path d="M94.5003 32.1103C95.7356 32.1103 96.7371 31.1623 96.7371 29.9929C96.7371 28.8236 95.7356 27.8756 94.5003 27.8756C93.2649 27.8756 92.2635 28.8236 92.2635 29.9929C92.2635 31.1623 93.2649 32.1103 94.5003 32.1103Z" fill="#FFD500"/>
<g style="mix-blend-mode:multiply">
<path fill-rule="evenodd" clip-rule="evenodd" d="M93.9341 32.0418C94.1149 32.0865 94.3047 32.1103 94.5004 32.1103C95.7357 32.1103 96.7371 31.1623 96.7371 29.9929C96.7371 28.8236 95.7357 27.8756 94.5004 27.8756C94.3718 27.8756 94.2458 27.8859 94.1232 27.9056C95.0843 28.143 95.7937 28.9703 95.7937 29.9545C95.7937 31.0022 94.9898 31.8721 93.9341 32.0418Z" fill="#FED402" fill-opacity="0.5"/>
</g>
<path d="M80.3492 12.2527L81.6983 6.40389C82.1001 4.66243 80.7774 3 78.9902 3C77.203 3 75.8804 4.66243 76.2821 6.40389L77.6312 12.2527L78.2898 15.2403L79.8976 15.1358L80.3492 12.2527Z" fill="#FFE591"/>
<path d="M81.7277 16.3492L87.5765 17.6982C89.318 18.1 90.9804 16.7773 90.9804 14.9901C90.9804 13.2029 89.318 11.8803 87.5765 12.2819L81.7277 13.631L78.8785 14.2164V15.5623L81.7277 16.3492Z" fill="#FFE591"/>
<path d="M76.2527 16.3492L70.4039 17.6983C68.6624 18.1001 67 16.7774 67 14.9902C67 13.203 68.6624 11.8804 70.4039 12.282L76.2527 13.6311L78.1685 14.0939L78.5339 15.8274L76.2527 16.3492Z" fill="#FFE591"/>
<path d="M77.3483 11.0262L74.8337 7.00375C73.8863 5.48831 71.7756 5.24802 70.5118 6.51174C69.2481 7.77546 69.4884 9.88623 71.0038 10.8336L75.0263 13.3483L77.8719 15.2403L78.9903 14.0724L77.3483 11.0262Z" fill="#FFE591"/>
<path d="M82.9541 13.3483L86.9766 10.8337C88.492 9.88633 88.7323 7.77556 87.4686 6.51184C86.2049 5.24812 84.0941 5.4884 83.1468 7.00384L80.6322 11.0263L78.534 14.3949L79.5951 15.8762L82.9541 13.3483Z" fill="#FFE591"/>
<path d="M82.9541 16.6321L86.9766 19.1467C88.492 20.094 88.7323 22.2048 87.4686 23.4685C86.2049 24.7322 84.0941 24.4919 83.1468 22.9765L80.6322 18.954L78.6577 16.2794L80.2653 14.7966L82.9541 16.6321Z" fill="#FFE591"/>
<path d="M77.3483 18.9541L74.8337 22.9766C73.8863 24.492 71.7756 24.7323 70.5118 23.4686C69.2481 22.2049 69.4884 20.0941 71.0038 19.1468L75.0263 16.6322L78.5339 14.4899L79.4336 15.2449L77.3483 18.9541Z" fill="#FFE591"/>
<path d="M80.53 17.8949L81.8576 23.6504C82.2529 25.364 80.9513 27 79.1926 27C77.434 27 76.1325 25.364 76.5277 23.6504L77.8553 17.8949L78.3658 14.7761L79.6604 14.6347L80.53 17.8949Z" fill="#FFE591"/>
<path d="M78.9906 17.8137C80.5497 17.8137 81.8137 16.5498 81.8137 14.9906C81.8137 13.4314 80.5497 12.1675 78.9906 12.1675C77.4314 12.1675 76.1674 13.4314 76.1674 14.9906C76.1674 16.5498 77.4314 17.8137 78.9906 17.8137Z" fill="#FFD500"/>
<g style="mix-blend-mode:multiply">
<path fill-rule="evenodd" clip-rule="evenodd" d="M78.2759 17.7225C78.5042 17.782 78.7437 17.8137 78.9907 17.8137C80.5498 17.8137 81.8138 16.5498 81.8138 14.9906C81.8138 13.4314 80.5498 12.1675 78.9907 12.1675C78.8284 12.1675 78.6694 12.1812 78.5146 12.2074C79.7277 12.5239 80.623 13.6271 80.623 14.9393C80.623 16.3362 79.6084 17.4962 78.2759 17.7225Z" fill="#FED402" fill-opacity="0.5"/>
</g>
<path d="M48.4643 53.7857C48.4643 66.1805 37.9475 76.3214 24.8571 76.3214C11.7668 76.3214 1.25 66.1805 1.25 53.7857C1.25 41.3909 11.7668 31.25 24.8571 31.25C37.9475 31.25 48.4643 41.3909 48.4643 53.7857Z" stroke="#323232" stroke-width="2.5"/>
<path d="M114.75 53.7857C114.75 66.1805 104.233 76.3214 91.1428 76.3214C78.0525 76.3214 67.5357 66.1805 67.5357 53.7857C67.5357 41.3909 78.0525 31.25 91.1428 31.25C104.233 31.25 114.75 41.3909 114.75 53.7857Z" stroke="#323232" stroke-width="2.5"/>
<path d="M48.6095 52.0382C55.6834 50.8335 59.8348 50.8552 67.3905 52.0382V56.4285C60.1753 55.3306 56.0612 55.3151 48.6095 56.4285V52.0382Z" fill="#242424"/>
</svg>
