<svg width="128" height="134" viewBox="0 0 128 134" fill="none" xmlns="http://www.w3.org/2000/svg">
<path d="M62.3465 3.80282C62.975 2.35738 65.025 2.35737 65.6535 3.80282L67.0131 6.92973C67.5851 8.24523 69.3897 8.39841 70.1752 7.19814L72.0389 4.35053C72.9019 3.03185 74.9223 3.37711 75.2985 4.90756L76.1143 8.22704C76.4566 9.61969 78.209 10.0747 79.1856 9.02456L81.5007 6.53506C82.5736 5.38136 84.5061 6.06186 84.6194 7.63326L84.8659 11.0523C84.969 12.482 86.6184 13.2256 87.758 12.3561L90.4604 10.2941C91.7123 9.33892 93.5012 10.3349 93.3487 11.9022L93.0158 15.3237C92.877 16.7494 94.376 17.7597 95.6455 17.0963L98.6607 15.5204C100.055 14.7914 101.649 16.074 101.235 17.5924L100.329 20.9174C99.953 22.2983 101.258 23.5461 102.621 23.1079L105.865 22.0643C107.363 21.5828 108.715 23.1149 108.052 24.5409L106.597 27.6719C105.994 28.9687 107.068 30.4177 108.484 30.2173L111.867 29.7385C113.423 29.5182 114.496 31.2556 113.603 32.5486L111.638 35.3924C110.826 36.5682 111.639 38.1766 113.067 38.2195L116.492 38.3224C118.062 38.3695 118.825 40.2622 117.726 41.3853L115.309 43.8568C114.311 44.8779 114.839 46.5996 116.239 46.8843L119.606 47.569C121.144 47.882 121.575 49.8757 120.304 50.7964L117.506 52.8218C116.349 53.6591 116.578 55.4447 117.909 55.9626L121.119 57.212C122.582 57.7814 122.669 59.8189 121.259 60.5107L118.164 62.0304C116.882 62.6596 116.806 64.458 118.029 65.1939L120.987 66.973C122.332 67.7822 122.072 69.805 120.566 70.2479L117.266 71.2182C115.896 71.621 115.515 73.3809 116.597 74.3135L119.214 76.5704C120.403 77.596 119.804 79.5462 118.244 79.7269L114.836 80.1218C113.417 80.2862 112.744 81.9573 113.653 83.0597L115.852 85.7273C116.851 86.9397 115.929 88.7613 114.361 88.6745L110.945 88.4854C109.518 88.4064 108.57 89.9406 109.281 91.1814L110.997 94.1799C111.778 95.5444 110.56 97.185 109.028 96.8329L105.703 96.0686C104.309 95.7481 103.114 97.1014 103.606 98.4451L104.791 101.685C105.331 103.163 103.852 104.575 102.401 103.968L99.2605 102.653C97.9396 102.1 96.5324 103.233 96.7909 104.642L97.4122 108.027C97.6964 109.576 95.9989 110.719 94.6708 109.874L91.8021 108.048C90.5932 107.279 89.0133 108.159 89.0312 109.592L89.0742 113.025C89.0939 114.6 87.2264 115.441 86.0598 114.383L83.5423 112.099C82.4804 111.135 80.7733 111.737 80.5499 113.153L80.0165 116.534C79.7709 118.091 77.7873 118.606 76.8158 117.365L74.7191 114.687C73.8349 113.558 72.0499 113.863 71.5911 115.222L70.4993 118.457C69.9952 119.95 67.9526 120.123 67.2042 118.736L65.5868 115.738C64.9056 114.476 63.0944 114.476 62.4132 115.738L60.7958 118.736C60.0474 120.123 58.0048 119.95 57.5007 118.457L56.4088 115.222C55.9501 113.863 54.1651 113.558 53.2809 114.687L51.1842 117.365C50.2127 118.606 48.2291 118.091 47.9835 116.534L47.4501 113.153C47.2267 111.737 45.5196 111.135 44.4577 112.099L41.9402 114.383C40.7736 115.441 38.9061 114.6 38.9258 113.025L38.9688 109.592C38.9867 108.159 37.4068 107.279 36.1979 108.048L33.3292 109.874C32.0011 110.719 30.3036 109.576 30.5878 108.027L31.2091 104.642C31.4676 103.233 30.0604 102.1 28.7395 102.653L25.5988 103.968C24.1476 104.575 22.6689 103.163 23.2093 101.685L24.3942 98.4451C24.8856 97.1014 23.6913 95.7481 22.297 96.0686L18.9718 96.8329C17.4396 97.185 16.222 95.5444 17.0031 94.1799L18.7195 91.1814C19.4297 89.9406 18.4824 88.4064 17.055 88.4854L13.6394 88.6745C12.0706 88.7613 11.149 86.9397 12.1484 85.7273L14.3475 83.0597C15.2562 81.9573 14.5829 80.2862 13.1637 80.1218L9.75587 79.7269C8.19584 79.5462 7.59659 77.596 8.78594 76.5704L11.4032 74.3135C12.4847 73.3809 12.1044 71.621 10.7343 71.2182L7.43384 70.2479C5.92757 69.805 5.66766 67.7822 7.01307 66.973L9.97081 65.1939C11.1943 64.458 11.1177 62.6596 9.83606 62.0304L6.74066 60.5107C5.3314 59.8189 5.41825 57.7814 6.88127 57.212L10.0912 55.9626C11.4218 55.4447 11.6511 53.6591 10.4944 52.8218L7.69648 50.7964C6.42456 49.8757 6.85567 47.882 8.39437 47.569L11.761 46.8843C13.1606 46.5996 13.6893 44.8779 12.6906 43.8568L10.2735 41.3853C9.17524 40.2622 9.93835 38.3695 11.5084 38.3224L14.9326 38.2195C16.3611 38.1766 17.1743 36.5682 16.3619 35.3924L14.397 32.5486C13.5037 31.2556 14.577 29.5182 16.1332 29.7385L19.5156 30.2173C20.9317 30.4177 22.0063 28.9687 21.4033 27.6719L19.9476 24.5409C19.2845 23.1149 20.6375 21.5828 22.1346 22.0643L25.379 23.1079C26.7415 23.5461 28.047 22.2983 27.6706 20.9174L26.7646 17.5924C26.3508 16.074 27.9446 14.7914 29.3393 15.5204L32.3545 17.0963C33.624 17.7597 35.123 16.7494 34.9842 15.3237L34.6513 11.9022C34.4988 10.3349 36.2877 9.33891 37.5396 10.2941L40.242 12.3561C41.3816 13.2256 43.031 12.482 43.1341 11.0523L43.3806 7.63326C43.4939 6.06186 45.4264 5.38136 46.4993 6.53506L48.8144 9.02457C49.791 10.0747 51.5434 9.61969 51.8857 8.22704L52.7015 4.90756C53.0777 3.37711 55.0981 3.03185 55.9611 4.35053L57.8248 7.19814C58.6103 8.39842 60.4149 8.24523 60.9869 6.92973L62.3465 3.80282Z" fill="#3B2514"/>
<path d="M62.3344 12.1302C62.9495 10.647 65.0504 10.647 65.6655 12.1302L66.3458 13.771C66.9074 15.1253 68.7646 15.2788 69.5409 14.035L70.4514 12.5762C71.3006 11.2156 73.3704 11.5579 73.7364 13.1194L74.1606 14.9291C74.4943 16.3528 76.2948 16.808 77.265 15.714L78.3897 14.4459C79.4504 13.2498 81.4277 13.9236 81.5374 15.5186L81.6717 17.4718C81.7715 18.9233 83.4608 19.6649 84.5969 18.756L85.928 17.691C87.17 16.6973 88.9967 17.6817 88.8497 19.2655L88.6591 21.3188C88.5256 22.7575 90.0539 23.7609 91.321 23.0665L92.8532 22.2268C94.2393 21.4672 95.8624 22.7317 95.4648 24.2615L94.9218 26.3511C94.5613 27.7382 95.885 28.9711 97.243 28.5131L98.9654 27.9322C100.453 27.4306 101.826 28.9368 101.19 30.3715L100.283 32.4167C99.707 33.7159 100.79 35.1397 102.196 34.9311L104.084 34.6509C105.625 34.422 106.712 36.125 105.854 37.4264L104.595 39.3365C103.82 40.514 104.635 42.0863 106.044 42.1307L108.052 42.194C109.601 42.2427 110.371 44.0929 109.314 45.2259L107.743 46.9108C106.787 47.9357 107.314 49.6116 108.685 49.9039L110.748 50.3438C112.257 50.6656 112.691 52.6106 111.462 53.5434L109.642 54.9249C108.53 55.7691 108.758 57.5028 110.051 58.0304L112.085 58.8606C113.511 59.4425 113.598 61.4283 112.229 62.133L110.243 63.1552C109.003 63.7939 108.926 65.539 110.107 66.2834L112.021 67.4906C113.324 68.3125 113.062 70.2847 111.59 70.7386L109.53 71.3736C108.194 71.7855 107.815 73.4961 108.852 74.434L110.557 75.9757C111.704 77.0124 111.1 78.9166 109.566 79.103L107.521 79.3514C106.125 79.521 105.452 81.1508 106.321 82.2557L107.742 84.0639C108.702 85.2853 107.771 87.0683 106.22 86.9782L104.265 86.8648C102.852 86.7827 101.9 88.2863 102.578 89.5287L103.664 91.5179C104.414 92.8906 103.18 94.5011 101.659 94.1347L99.8499 93.6986C98.4626 93.3642 97.255 94.6977 97.725 96.0452L98.4499 98.1236C98.9686 99.6108 97.465 101.001 96.0228 100.368L94.3934 99.6532C93.0756 99.0748 91.6446 100.197 91.8927 101.615L92.2569 103.696C92.5303 105.258 90.7992 106.387 89.4801 105.506L88.0476 104.55C86.8413 103.746 85.2267 104.622 85.244 106.072L85.268 108.082C85.287 109.677 83.378 110.509 82.2224 109.41L80.9939 108.241C79.9368 107.235 78.1853 107.836 77.9682 109.279L77.6845 111.165C77.4462 112.749 75.4151 113.259 74.4568 111.975L73.4379 110.611C72.5616 109.437 70.7257 109.743 70.2769 111.137L69.7208 112.864C69.2289 114.392 67.1357 114.564 66.4012 113.137L65.6032 111.586C64.9321 110.282 63.0678 110.282 62.3967 111.586L61.5987 113.137C60.8642 114.564 58.771 114.392 58.2791 112.864L57.723 111.137C57.2742 109.743 55.4383 109.437 54.562 110.611L53.5431 111.975C52.5848 113.259 50.5537 112.749 50.3154 111.165L50.0317 109.279C49.8146 107.836 48.0631 107.235 47.006 108.241L45.7775 109.41C44.6219 110.509 42.7129 109.677 42.7319 108.082L42.7559 106.072C42.7732 104.622 41.1586 103.746 39.9523 104.55L38.5198 105.506C37.2007 106.386 35.4696 105.258 35.743 103.696L36.1072 101.615C36.3553 100.197 34.9243 99.0748 33.6065 99.6532L31.9771 100.368C30.5349 101.001 29.0313 99.6108 29.55 98.1236L30.2749 96.0452C30.7449 94.6977 29.5373 93.3643 28.15 93.6986L26.3407 94.1347C24.8203 94.5011 23.5863 92.8906 24.3356 91.5179L25.4216 89.5287C26.0997 88.2863 25.1475 86.7827 23.7345 86.8648L21.7796 86.9782C20.2286 87.0683 19.2975 85.2853 20.2577 84.0639L21.6793 82.2557C22.5479 81.1507 21.8744 79.521 20.4793 79.3514L18.4343 79.103C16.9 78.9166 16.2961 77.0124 17.4426 75.9757L19.1477 74.434C20.185 73.4961 19.806 71.7855 18.4696 71.3736L16.41 70.7386C14.9376 70.2847 14.6761 68.3125 15.9793 67.4906L17.8933 66.2834C19.0735 65.539 18.9973 63.7939 17.7567 63.1552L15.7711 62.133C14.402 61.4283 14.4894 59.4425 15.915 58.8606L17.9492 58.0304C19.242 57.5028 19.4702 55.7691 18.358 54.9249L16.538 53.5434C15.3091 52.6106 15.7432 50.6656 17.252 50.3438L19.3147 49.9039C20.6854 49.6116 21.2131 47.9357 20.2572 46.9108L18.6858 45.2259C17.629 44.0929 18.399 42.2427 19.9476 42.194L21.9557 42.1307C23.3651 42.0863 24.1804 40.514 23.4045 39.3365L22.1459 37.4264C21.2884 36.125 22.3745 34.422 23.9162 34.6509L25.8039 34.9311C27.2096 35.1397 28.2929 33.7159 27.7169 32.4167L26.81 30.3715C26.1738 28.9368 27.5473 27.4306 29.0345 27.9322L30.7568 28.5131C32.1149 28.9711 33.4386 27.7382 33.0781 26.3511L32.5351 24.2615C32.1376 22.7317 33.7607 21.4672 35.1467 22.2268L36.6789 23.0665C37.946 23.7609 39.4743 22.7575 39.3408 21.3188L39.1502 19.2655C39.0032 17.6817 40.8299 16.6973 42.0719 17.691L43.403 18.756C44.5391 19.6649 46.2284 18.9233 46.3282 17.4718L46.4625 15.5186C46.5722 13.9236 48.5495 13.2498 49.6102 14.4459L50.7349 15.714C51.7051 16.808 53.5056 16.3528 53.8393 14.9291L54.2635 13.1194C54.6295 11.5579 56.6993 11.2156 57.5485 12.5762L58.459 14.035C59.2353 15.2788 61.0925 15.1253 61.6541 13.771L62.3344 12.1302Z" fill="#61432F"/>
<circle cx="36.6106" cy="39.8233" r="8.82334" fill="#FFE6BB"/>
<circle cx="36.1581" cy="39.8128" r="6.10847" fill="#ECC79F"/>
<circle cx="89.4616" cy="39.8233" r="8.82334" fill="#FFE6BB"/>
<circle cx="89.0092" cy="39.8128" r="6.10847" fill="#ECC79F"/>
<path d="M26.3534 60.2051C31.4758 45.24 45.5837 35.0706 61.4011 35.0706H66.2541C82.2433 35.0706 96.4296 45.3258 101.443 60.5086L101.604 60.9957C103.95 68.1009 105.489 75.4477 106.191 82.8973C108.234 104.572 91.185 123.304 69.4142 123.304H57.725C36.3567 123.304 19.5673 105.014 21.3916 83.724C22.0767 75.7296 23.755 67.7964 26.3534 60.2051Z" fill="#FFE6BB"/>
<circle cx="40.5106" cy="88.7447" r="4.89362" fill="#FFCEB9"/>
<circle cx="87.4894" cy="88.7447" r="4.89362" fill="#FFCEB9"/>
<path d="M77.7021 71.4346C77.7021 67.4814 71.86 64.2766 63.4674 64.2766C55.0747 64.2766 50.2979 67.4814 50.2979 71.4346C50.2979 75.3879 55.0747 83.8511 63.4674 83.8511C71.86 83.8511 77.7021 75.3879 77.7021 71.4346Z" fill="#ECC79F"/>
<rect x="62.9409" y="72.4327" width="1.60441" height="6.41763" rx="0.802204" fill="#3A211F"/>
<ellipse cx="64.0105" cy="71.0957" rx="4.81322" ry="2.94141" fill="#3A211F"/>
<circle cx="61.069" cy="70.0262" r="0.802204" fill="white"/>
<path d="M58.1277 76.4438C60.8017 78.8505 66.7439 78.8505 69.418 76.4438" stroke="#3A211F" stroke-width="1.76467" stroke-linecap="round"/>
<circle cx="45.8936" cy="62.4156" r="4.40426" fill="#3A211F"/>
<circle cx="47.1131" cy="61.4652" r="1.46809" fill="white"/>
<circle cx="4.40426" cy="4.40426" r="4.40426" transform="matrix(-1 0 0 1 85.7924 58.0114)" fill="#3A211F"/>
<circle cx="1.46809" cy="1.46809" r="1.46809" transform="matrix(-1 0 0 1 84.5452 59.9971)" fill="white"/>
<path d="M46.543 70.6872C40.8241 70.185 37.58 70.0574 31.7021 70.2087" stroke="#ECC79F" stroke-width="1.46809" stroke-linecap="round" stroke-linejoin="round"/>
<path d="M45.073 79.4505C40.1341 80.2977 37.4303 80.9224 32.7694 82.4046" stroke="#ECC79F" stroke-width="1.46809" stroke-linecap="round" stroke-linejoin="round"/>
<path d="M44.6879 75.2334C39.5246 75.0263 37.0035 75.3475 31.8474 75.7879" stroke="#ECC79F" stroke-width="1.46809" stroke-linecap="round" stroke-linejoin="round"/>
<path d="M80.7983 70.6872C86.5172 70.185 89.7613 70.0574 95.6392 70.2087" stroke="#ECC79F" stroke-width="1.46809" stroke-linecap="round" stroke-linejoin="round"/>
<path d="M82.2683 79.4505C87.2072 80.2977 89.911 80.9224 94.5719 82.4046" stroke="#ECC79F" stroke-width="1.46809" stroke-linecap="round" stroke-linejoin="round"/>
<path d="M81.6748 75.2334C86.838 75.0263 89.3591 75.3475 94.5152 75.7879" stroke="#ECC79F" stroke-width="1.46809" stroke-linecap="round" stroke-linejoin="round"/>
<path d="M10.7365 100.451C24.2025 115.631 32.9515 119.381 54.2972 125.061" stroke="#412E1A" stroke-width="1.84133" stroke-linecap="round"/>
<path d="M5.07624 98.3364C5.6527 99.0905 6.40052 99.737 7.20125 100.283C9.65332 101.957 12.4437 99.6389 11.3292 96.8875C10.9776 96.0195 10.5345 95.1726 9.97697 94.4433C9.45273 93.7575 8.80163 93.1421 8.10612 92.5997C5.7269 90.7443 2.72671 92.8981 3.73205 95.7429C4.06225 96.6772 4.49888 97.5812 5.07624 98.3364Z" fill="#412E1A"/>
<path d="M15.3674 103.099C15.356 103.79 15.4546 104.501 15.6078 105.179C15.9862 106.852 18.0073 106.885 18.4404 105.225C18.6157 104.553 18.7376 103.845 18.7489 103.154C18.7603 102.464 18.6617 101.752 18.5085 101.075C18.1302 99.4016 16.109 99.3684 15.6759 101.028C15.5006 101.7 15.3787 102.408 15.3674 103.099Z" fill="#412E1A"/>
<path d="M13.1555 108.738C13.8462 108.735 14.5559 108.622 15.2298 108.455C16.8948 108.042 16.8864 106.02 15.2179 105.622C14.5427 105.46 13.8321 105.353 13.1414 105.356C12.4507 105.359 11.741 105.472 11.0671 105.639C9.40211 106.052 9.41054 108.073 11.079 108.472C11.7542 108.633 12.4648 108.741 13.1555 108.738Z" fill="#412E1A"/>
<path d="M22.2354 108.973C22.224 109.663 22.3226 110.375 22.4758 111.052C22.8541 112.726 24.8753 112.759 25.3084 111.099C25.4837 110.427 25.6056 109.719 25.6169 109.028C25.6283 108.338 25.5297 107.626 25.3765 106.949C24.9982 105.275 22.977 105.242 22.5439 106.902C22.3686 107.574 22.2467 108.282 22.2354 108.973Z" fill="#412E1A"/>
<path d="M20.9566 115.467C21.6264 115.298 22.288 115.018 22.902 114.693C24.419 113.893 23.9248 111.932 22.2095 111.946C21.5152 111.952 20.7997 112.019 20.1299 112.188C19.4602 112.356 18.7985 112.637 18.1846 112.961C16.6676 113.762 17.1617 115.722 18.8771 115.708C19.5713 115.702 20.2869 115.636 20.9566 115.467Z" fill="#412E1A"/>
<path d="M29.9176 114.351C29.9539 115.041 30.1013 115.744 30.3007 116.409C30.7935 118.052 32.8122 117.946 33.1298 116.26C33.2584 115.578 33.3312 114.863 33.2949 114.173C33.2586 113.483 33.1112 112.78 32.9117 112.115C32.4189 110.472 30.4003 110.578 30.0827 112.264C29.9541 112.946 29.8813 113.661 29.9176 114.351Z" fill="#412E1A"/>
<path d="M29.2113 120.236C29.8499 119.973 30.4644 119.6 31.0254 119.191C32.4116 118.18 31.6411 116.312 29.9456 116.572C29.2593 116.677 28.5608 116.846 27.9222 117.109C27.2836 117.372 26.6691 117.745 26.1081 118.154C24.7219 119.164 25.4924 121.033 27.1879 120.773C27.8742 120.668 28.5728 120.499 29.2113 120.236Z" fill="#412E1A"/>
<path d="M38.3992 117.786C38.4933 118.471 38.6993 119.159 38.954 119.805C39.5831 121.401 41.5856 121.125 41.7605 119.419C41.8313 118.728 41.8438 118.01 41.7497 117.325C41.6556 116.641 41.4495 115.953 41.1949 115.307C40.5658 113.711 38.5632 113.986 38.3883 115.693C38.3176 116.383 38.3051 117.102 38.3992 117.786Z" fill="#412E1A"/>
<path d="M38.5637 124.551C39.1666 124.214 39.7327 123.771 40.2415 123.299C41.4986 122.132 40.5125 120.367 38.8596 120.826C38.1906 121.012 37.5169 121.262 36.9139 121.599C36.311 121.936 35.7449 122.378 35.2361 122.851C33.979 124.018 34.9651 125.783 36.618 125.324C37.287 125.138 37.9607 124.888 38.5637 124.551Z" fill="#412E1A"/>
<path d="M116.341 99.9866C102.875 115.166 94.1265 118.916 72.7808 124.596" stroke="#412E1A" stroke-width="1.84133" stroke-linecap="round"/>
<path d="M122.002 97.8717C121.425 98.6258 120.677 99.2723 119.877 99.8187C117.425 101.492 114.634 99.1741 115.749 96.4228C116.1 95.5548 116.543 94.7079 117.101 93.9786C117.625 93.2928 118.276 92.6774 118.972 92.135C121.351 90.2796 124.351 92.4334 123.346 95.2781C123.016 96.2125 122.579 97.1165 122.002 97.8717Z" fill="#412E1A"/>
<path d="M111.711 102.634C111.722 103.325 111.623 104.037 111.47 104.714C111.092 106.387 109.071 106.42 108.638 104.76C108.462 104.089 108.34 103.38 108.329 102.69C108.318 101.999 108.416 101.287 108.569 100.61C108.948 98.9369 110.969 98.9037 111.402 100.564C111.577 101.235 111.699 101.944 111.711 102.634Z" fill="#412E1A"/>
<path d="M113.922 108.273C113.232 108.27 112.522 108.157 111.848 107.99C110.183 107.577 110.192 105.556 111.86 105.157C112.535 104.995 113.246 104.888 113.937 104.891C114.627 104.894 115.337 105.007 116.011 105.174C117.676 105.587 117.667 107.608 115.999 108.007C115.324 108.169 114.613 108.276 113.922 108.273Z" fill="#412E1A"/>
<path d="M104.843 108.508C104.854 109.199 104.755 109.91 104.602 110.588C104.224 112.261 102.203 112.294 101.77 110.634C101.594 109.962 101.472 109.254 101.461 108.563C101.45 107.873 101.548 107.161 101.701 106.484C102.08 104.811 104.101 104.777 104.534 106.437C104.709 107.109 104.831 107.817 104.843 108.508Z" fill="#412E1A"/>
<path d="M106.121 115.002C105.452 114.833 104.79 114.553 104.176 114.229C102.659 113.428 103.153 111.468 104.868 111.482C105.563 111.487 106.278 111.554 106.948 111.723C107.618 111.892 108.279 112.172 108.893 112.496C110.41 113.297 109.916 115.257 108.201 115.243C107.507 115.238 106.791 115.171 106.121 115.002Z" fill="#412E1A"/>
<path d="M97.1604 113.886C97.1241 114.576 96.9767 115.279 96.7772 115.944C96.2844 117.587 94.2658 117.481 93.9481 115.795C93.8196 115.113 93.7467 114.398 93.783 113.708C93.8193 113.019 93.9668 112.315 94.1662 111.65C94.659 110.007 96.6776 110.113 96.9953 111.799C97.1238 112.481 97.1967 113.196 97.1604 113.886Z" fill="#412E1A"/>
<path d="M97.8666 119.771C97.2281 119.508 96.6136 119.135 96.0525 118.726C94.6663 117.716 95.4368 115.847 97.1324 116.107C97.8186 116.212 98.5172 116.381 99.1557 116.644C99.7943 116.908 100.409 117.28 100.97 117.689C102.356 118.7 101.586 120.569 99.89 120.308C99.2037 120.203 98.5052 120.034 97.8666 119.771Z" fill="#412E1A"/>
<path d="M88.6787 117.322C88.5846 118.006 88.3786 118.694 88.124 119.34C87.4949 120.936 85.4923 120.661 85.3174 118.954C85.2466 118.263 85.2342 117.545 85.3283 116.861C85.4224 116.176 85.6284 115.488 85.883 114.842C86.5122 113.246 88.5147 113.522 88.6896 115.228C88.7604 115.919 88.7729 116.637 88.6787 117.322Z" fill="#412E1A"/>
<path d="M88.5143 124.086C87.9113 123.749 87.3452 123.307 86.8364 122.834C85.5794 121.667 86.5654 119.902 88.2183 120.361C88.8873 120.547 89.561 120.797 90.164 121.134C90.767 121.471 91.3331 121.914 91.8419 122.386C93.0989 123.553 92.1129 125.318 90.4599 124.859C89.7909 124.673 89.1172 124.423 88.5143 124.086Z" fill="#412E1A"/>
<path d="M71.0669 113.32C71.0841 113.138 71.0929 112.954 71.0929 112.768C71.0929 109.582 68.528 107 65.364 107C62.2 107 59.6351 109.582 59.6351 112.768C59.6351 113.077 59.6593 113.38 59.7058 113.676C57.7972 112.522 55.3266 112.501 53.4107 113.82C50.8189 115.605 50.2237 119.167 52.0813 121.777C53.0716 123.168 54.5591 124.007 56.1248 124.217C55.9658 124.392 55.8156 124.578 55.6753 124.775C53.8178 127.384 54.413 130.946 57.0047 132.731C59.5965 134.516 63.2034 133.848 65.061 131.239C65.1612 131.098 65.2543 130.954 65.3404 130.808C65.4264 130.954 65.5195 131.098 65.6198 131.239C67.4774 133.848 71.0843 134.516 73.6761 132.731C76.2678 130.946 76.863 127.384 75.0054 124.775C74.8405 124.543 74.6617 124.327 74.4711 124.126C75.8462 123.817 77.1228 123.016 78.005 121.777C79.8626 119.167 79.2674 115.605 76.6756 113.82C74.9824 112.654 72.8559 112.535 71.0669 113.32Z" fill="#FFCE05"/>
<circle cx="65.6877" cy="120.99" r="4.32162" transform="rotate(24.6549 65.6877 120.99)" fill="white" fill-opacity="0.6"/>
<path d="M51.9603 35.137C51.9688 35.0468 51.9732 34.9553 51.9732 34.8628C51.9732 33.2817 50.7001 32 49.1296 32C47.5592 32 46.2861 33.2817 46.2861 34.8628C46.2861 35.0163 46.2981 35.167 46.3212 35.3139C45.3738 34.7407 44.1475 34.7303 43.1965 35.3852C41.9101 36.2712 41.6147 38.0393 42.5367 39.3345C43.0282 40.0249 43.7666 40.4416 44.5437 40.5459C44.4648 40.6325 44.3902 40.7248 44.3206 40.8226C43.3986 42.1178 43.694 43.8859 44.9805 44.7719C46.2669 45.6579 48.0572 45.3262 48.9792 44.031C49.029 43.9611 49.0752 43.8898 49.1179 43.8174C49.1606 43.8898 49.2068 43.9611 49.2566 44.031C50.1786 45.3262 51.9689 45.6579 53.2554 44.7719C54.5418 43.8859 54.8372 42.1178 53.9152 40.8226C53.8333 40.7076 53.7446 40.6002 53.65 40.5006C54.3325 40.3473 54.9662 39.9495 55.404 39.3345C56.326 38.0393 56.0306 36.2712 54.7442 35.3852C53.9037 34.8064 52.8482 34.7473 51.9603 35.137Z" fill="white"/>
<circle cx="49.2903" cy="38.9439" r="2.14505" transform="rotate(24.6549 49.2903 38.9439)" fill="#FFE36B"/>
<path d="M67.0026 32.137C67.0112 32.0468 67.0156 31.9553 67.0156 31.8628C67.0156 30.2817 65.7371 29 64.1599 29C62.5828 29 61.3043 30.2817 61.3043 31.8628C61.3043 32.0163 61.3164 32.167 61.3396 32.3139C60.3882 31.7407 59.1566 31.7303 58.2016 32.3852C56.9097 33.2712 56.6131 35.0393 57.539 36.3345C58.0326 37.0249 58.7741 37.4416 59.5546 37.5459C59.4753 37.6325 59.4004 37.7248 59.3305 37.8226C58.4046 39.1178 58.7012 40.8859 59.9931 41.7719C61.285 42.6579 63.083 42.3262 64.0089 41.031C64.0589 40.9611 64.1053 40.8898 64.1482 40.8174C64.1911 40.8898 64.2375 40.9611 64.2874 41.031C65.2134 42.3262 67.0113 42.6579 68.3032 41.7719C69.5951 40.8859 69.8918 39.1178 68.9658 37.8226C68.8836 37.7076 68.7945 37.6002 68.6995 37.5006C69.3849 37.3473 70.0213 36.9495 70.461 36.3345C71.3869 35.0393 71.0903 33.2712 69.7984 32.3852C68.9544 31.8064 67.8944 31.7473 67.0026 32.137Z" fill="#FFCE05"/>
<ellipse cx="2.15259" cy="2.14664" rx="2.15259" ry="2.14664" transform="matrix(0.909505 0.415692 -0.418615 0.908164 63.2621 33.0996)" fill="white" fill-opacity="0.6"/>
<path d="M80.9603 35.137C80.9688 35.0468 80.9732 34.9553 80.9732 34.8628C80.9732 33.2817 79.7001 32 78.1296 32C76.5592 32 75.2861 33.2817 75.2861 34.8628C75.2861 35.0163 75.2981 35.167 75.3212 35.3139C74.3738 34.7407 73.1475 34.7303 72.1965 35.3852C70.9101 36.2712 70.6147 38.0393 71.5367 39.3345C72.0282 40.0249 72.7666 40.4416 73.5437 40.5459C73.4648 40.6325 73.3902 40.7248 73.3206 40.8226C72.3986 42.1178 72.694 43.8859 73.9805 44.7719C75.2669 45.6579 77.0572 45.3262 77.9792 44.031C78.029 43.9611 78.0752 43.8898 78.1179 43.8174C78.1606 43.8898 78.2068 43.9611 78.2566 44.031C79.1786 45.3262 80.9689 45.6579 82.2554 44.7719C83.5418 43.8859 83.8372 42.1178 82.9152 40.8226C82.8333 40.7076 82.7446 40.6002 82.65 40.5006C83.3325 40.3473 83.9662 39.9495 84.404 39.3345C85.326 38.0393 85.0306 36.2712 83.7442 35.3852C82.9037 34.8064 81.8482 34.7473 80.9603 35.137Z" fill="white"/>
<circle cx="78.2903" cy="38.9439" r="2.14505" transform="rotate(24.6549 78.2903 38.9439)" fill="#FFE36B"/>
</svg>
