<svg width="126" height="113" viewBox="0 0 126 113" fill="none" xmlns="http://www.w3.org/2000/svg">
<path d="M44.7171 9.05835C43.7251 14.1537 54.3416 20.9475 54.3416 20.9475L84.3475 20.4019C84.3475 20.4019 73.2418 0 67.5803 0C63.8536 0 65.0332 4.42458 66.2746 7.44869C66.4329 7.83421 65.7362 8.32417 65.4347 8.03646C62.4916 5.22786 57.1224 0.741006 53.2093 1.1323C49.388 1.51441 53.6615 6.54867 56.8432 9.78084C57.1428 10.0852 56.6295 10.7804 56.2499 10.5846C52.0538 8.42026 45.3916 5.59403 44.7171 9.05835Z" fill="#C79D72"/>
<path d="M8.33438 58.2301C9.902 34.4746 29.6276 16.0078 53.4347 16.0078H77.7823C101.693 16.0078 121.468 34.6311 122.9 58.4992L123.193 63.3924C124.763 89.5529 105.438 112.629 79.2319 112.904C69.9746 113.001 60.9496 112.828 51.9694 112.438C25.6826 111.297 6.37023 87.9946 8.10276 61.74L8.33438 58.2301Z" fill="#C79D72"/>
<path d="M18.0178 61.6677C19.3619 41.2765 36.2936 25.4241 56.7291 25.4241H73.4266C94.257 25.4241 111.483 41.6487 112.729 62.4418C114.095 85.2279 97.2597 105.342 74.4329 105.458C68.0849 105.49 61.8603 105.37 55.6691 105.122C33.106 104.22 16.5325 84.2 18.0178 61.6677Z" fill="#EDD49B"/>
<path d="M85.3152 86.912C85.3152 96.6423 76.8086 101.939 66.3152 101.939C55.8218 101.939 47.3152 96.6423 47.3152 86.912C47.3152 77.1818 55.8218 67.7393 66.3152 67.7393C76.8086 67.7393 85.3152 77.1818 85.3152 86.912Z" fill="#B19574"/>
<rect x="65.1558" y="78.4004" width="2.67357" height="11.5855" rx="1.33678" fill="#09060D"/>
<path d="M58 86C62.0263 90 70.9737 90 75 86" stroke="#09060D" stroke-width="2.5" stroke-linecap="round"/>
<path d="M74.3549 77.0296C74.3549 79.9272 70.8314 82.2763 66.4849 82.2763C62.1383 82.2763 58.6148 79.9272 58.6148 77.0296C58.6148 74.1319 62.1383 70.5058 66.4849 70.5058C70.8314 70.5058 74.3549 74.1319 74.3549 77.0296Z" fill="#09060D"/>
<circle cx="70.1576" cy="74.9309" r="1.04934" fill="white"/>
<path fill-rule="evenodd" clip-rule="evenodd" d="M19.4962 53.349C18.7149 56.0072 18.2115 58.7887 18.0205 61.6614C17.369 71.4545 20.1621 80.7679 25.3894 88.2166C32.378 82.4737 40.3617 78.0454 47.5628 74.2744C55.8595 69.9298 59.3689 59.0046 55.3994 50.6548C52.9389 45.4791 48.0986 42.4162 42.6803 43.2772C31.7085 45.0205 25.1742 48.4062 19.4962 53.349Z" fill="#AA6C56"/>
<path fill-rule="evenodd" clip-rule="evenodd" d="M110.067 50.424C111.549 54.1687 112.471 58.2039 112.727 62.43C113.271 71.4338 110.947 80.0163 106.52 87.0916C99.8793 81.8895 92.4732 77.7954 85.7495 74.2744C77.4528 69.9297 73.9434 59.0046 77.9129 50.6547C80.3733 45.479 85.2137 42.4162 90.632 43.2771C99.2846 44.6519 105.177 47.0482 110.067 50.424Z" fill="#AA6C56"/>
<path d="M12.5068 19.8939C17.641 20.7914 22.5038 26.5734 22.5038 26.5734C22.5038 26.5734 15.9678 30.3627 10.8336 29.4651C5.69939 28.5676 0.836592 22.7856 0.836592 22.7856C0.836592 22.7856 7.37262 18.9963 12.5068 19.8939Z" fill="#34876F"/>
<path d="M28.324 13.7918C27.1127 18.8612 21.384 23.4411 21.384 23.4411C21.384 23.4411 18.3446 16.7661 19.5559 11.6968C20.7671 6.62743 26.4958 2.04752 26.4958 2.04752C26.4958 2.04752 29.5352 8.72248 28.324 13.7918Z" fill="#34876F"/>
<circle cx="38.8091" cy="66.856" r="8.47471" fill="#09060D"/>
<circle cx="41.6339" cy="64.9727" r="1.88327" fill="white"/>
<circle cx="8.47471" cy="8.47471" r="8.47471" transform="matrix(-1 0 0 1 102.078 58.3812)" fill="#09060D"/>
<circle cx="1.88327" cy="1.88327" r="1.88327" transform="matrix(-1 0 0 1 92.6614 63.0894)" fill="white"/>
<circle cx="38.8988" cy="86.6303" r="5.64981" fill="#FFBAA0"/>
<circle cx="94.4552" cy="86.6303" r="5.64981" fill="#FFBAA0"/>
<path d="M44.7853 17.3746C44.9159 17.2644 45.0426 17.147 45.1647 17.0225C47.2524 14.8942 47.2311 11.4878 45.1171 9.41417C43.0031 7.3405 39.597 7.38479 37.5093 9.51308C37.3066 9.7197 37.1238 9.93836 36.9609 10.1667C36.4425 8.1442 34.8056 6.51085 32.6607 6.13678C29.7591 5.63074 27.0267 7.62077 26.5577 10.5816C26.3077 12.1601 26.7514 13.6958 27.6598 14.8624C27.4391 14.8749 27.2169 14.9007 26.994 14.9404C24.0428 15.4663 22.1057 18.2365 22.6675 21.1278C23.2294 24.019 26.0773 25.9365 29.0285 25.4106C29.1878 25.3822 29.3442 25.3473 29.4973 25.3061C29.4591 25.46 29.4272 25.617 29.4019 25.7768C28.9329 28.7377 30.9049 31.5481 33.8064 32.0542C36.7079 32.5602 39.4403 30.5702 39.9093 27.6093C39.951 27.3464 39.9734 27.0846 39.9776 26.8256C41.0987 27.5205 42.477 27.8218 43.8785 27.572C46.8298 27.0461 48.7668 24.2759 48.205 21.3846C47.838 19.4957 46.4952 18.0225 44.7853 17.3746Z" fill="#FFA787"/>
<g style="mix-blend-mode:multiply">
<circle cx="36.1646" cy="18.9735" r="4.04474" transform="rotate(69.1033 36.1646 18.9735)" fill="#FEB1AA" fill-opacity="0.5"/>
</g>
<path d="M29.4435 29.5043C29.5676 29.3995 29.6879 29.288 29.8039 29.1698C31.7871 27.1481 31.7668 23.9124 29.7587 21.9426C27.7506 19.9728 24.5151 20.0149 22.532 22.0365C22.3395 22.2328 22.1658 22.4405 22.0111 22.6574C21.5186 20.7362 19.9637 19.1847 17.9263 18.8294C15.1701 18.3487 12.5746 20.239 12.1291 23.0515C11.8915 24.5509 12.313 26.0097 13.176 27.1179C12.9663 27.1298 12.7552 27.1543 12.5435 27.192C9.74008 27.6916 7.90007 30.323 8.43374 33.0694C8.96741 35.8158 11.6727 37.6373 14.4761 37.1377C14.6274 37.1107 14.7759 37.0775 14.9214 37.0385C14.8851 37.1847 14.8548 37.3338 14.8308 37.4856C14.3852 40.2981 16.2584 42.9678 19.0146 43.4485C21.7708 43.9291 24.3663 42.0388 24.8118 39.2263C24.8514 38.9765 24.8727 38.7279 24.8767 38.4818C25.9416 39.1419 27.2508 39.4281 28.5821 39.1908C31.3856 38.6912 33.2256 36.0598 32.6919 33.3134C32.3433 31.5191 31.0677 30.1196 29.4435 29.5043Z" fill="#FFCE05"/>
<g style="mix-blend-mode:multiply">
<circle cx="21.2546" cy="31.023" r="3.84212" transform="rotate(69.1033 21.2546 31.023)" fill="#FED402"/>
</g>
</svg>
