<svg width="102" height="146" viewBox="0 0 102 146" fill="none" xmlns="http://www.w3.org/2000/svg">
<ellipse cx="14.4403" cy="10.329" rx="14.4403" ry="10.329" transform="matrix(0.54801 0.836472 -0.831491 0.555539 17.1769 18.3054)" fill="#B1C1C9"/>
<ellipse cx="7.63481" cy="5.60285" rx="7.63481" ry="5.60285" transform="matrix(0.54801 0.836472 -0.831491 0.555539 15.3174 25.3054)" fill="#FFDED0"/>
<ellipse cx="14.4403" cy="10.329" rx="14.4403" ry="10.329" transform="matrix(-0.54801 0.836472 0.831491 0.555539 83.9682 18.3054)" fill="#B1C1C9"/>
<ellipse cx="7.63481" cy="5.60285" rx="7.63481" ry="5.60285" transform="matrix(-0.54801 0.836472 0.831491 0.555539 85.3679 25.3054)" fill="#FFDED0"/>
<path d="M54.4989 17.5595C55.7768 12.829 61.7317 8.83576 61.7317 8.83576C61.7317 8.83576 64.3796 14.927 63.1018 19.6575C61.8239 24.3879 56.3389 28.7991 56.3389 28.7991C56.3389 28.7991 53.2211 22.2899 54.4989 17.5595Z" fill="#ACCC5F"/>
<path d="M43.7782 19.578C40.6771 16.5623 33.9629 16.5993 33.9629 16.5993C33.9629 16.5993 34.3492 22.7566 37.4504 25.7723C40.5515 28.788 47.0501 29.3261 47.0501 29.3261C47.0501 29.3261 46.8794 22.5937 43.7782 19.578Z" fill="#ACCC5F"/>
<path d="M54.1987 16.122C51.6361 10.1961 42.8439 6.14831 42.8439 6.14831C42.8439 6.14831 40.2093 14.6576 42.7719 20.5835C45.3345 26.5094 53.6585 31.1567 53.6585 31.1567C53.6585 31.1567 56.7613 22.0479 54.1987 16.122Z" fill="#BBD468"/>
<path d="M54.4989 17.5595C55.7768 12.829 61.7317 8.83576 61.7317 8.83576C61.7317 8.83576 64.3796 14.927 63.1018 19.6575C61.8239 24.3879 56.3389 28.7991 56.3389 28.7991C56.3389 28.7991 53.2211 22.2899 54.4989 17.5595Z" fill="#ACCC5F"/>
<path d="M43.7782 19.578C40.6771 16.5623 33.9629 16.5993 33.9629 16.5993C33.9629 16.5993 34.3492 22.7566 37.4504 25.7723C40.5515 28.788 47.0501 29.3261 47.0501 29.3261C47.0501 29.3261 46.8794 22.5937 43.7782 19.578Z" fill="#ACCC5F"/>
<path d="M54.1987 16.122C51.6361 10.1961 42.8439 6.14831 42.8439 6.14831C42.8439 6.14831 40.2093 14.6576 42.7719 20.5835C45.3345 26.5094 53.6585 31.1567 53.6585 31.1567C53.6585 31.1567 56.7613 22.0479 54.1987 16.122Z" fill="#BBD468"/>
<path d="M8.07361 62.7595C9.15203 40.1127 27.8274 22.3054 50.5 22.3054C73.1726 22.3054 91.848 40.1126 92.9264 62.7595L93.8358 81.8568C95.014 106.6 75.271 127.305 50.5 127.305C25.729 127.305 5.98598 106.6 7.16421 81.8569L8.07361 62.7595Z" fill="#B1C1C9"/>
<circle cx="32" cy="62.3053" r="9" fill="white"/>
<circle cx="33.9" cy="61.4053" r="7.2" fill="#525151"/>
<circle cx="2.25" cy="2.25" r="2.25" transform="matrix(-1 0 0 1 39.3 55.9053)" fill="white"/>
<circle cx="1.35" cy="1.35" r="1.35" transform="matrix(-1 0 0 1 34.8 60.4053)" fill="white"/>
<circle cx="70" cy="62.3053" r="9" fill="white"/>
<circle cx="71.9" cy="61.4053" r="7.2" fill="#525151"/>
<circle cx="2.25" cy="2.25" r="2.25" transform="matrix(-1 0 0 1 77.3 55.9053)" fill="white"/>
<circle cx="1.35" cy="1.35" r="1.35" transform="matrix(-1 0 0 1 72.8 60.4053)" fill="white"/>
<ellipse cx="21" cy="73.7053" rx="4" ry="2.4" fill="#FFDED0"/>
<ellipse cx="80" cy="73.7053" rx="4" ry="2.4" fill="#FFDED0"/>
<path d="M87.9443 124.68C84.8481 122.455 79.387 122.915 77.725 123.118C77.4511 123.151 77.2689 123.405 77.3245 123.675C77.6616 125.315 78.9658 130.638 82.062 132.864C85.1582 135.089 90.6193 134.629 92.2812 134.426C92.5552 134.393 92.7373 134.139 92.6818 133.869C92.3447 132.229 91.0404 126.906 87.9443 124.68Z" fill="#BBD468"/>
<path d="M80.356 134.227C80.2248 130.975 77.0882 127.547 76.0163 126.467C75.8219 126.271 75.5128 126.283 75.3348 126.494C74.3534 127.657 71.5032 131.327 71.6344 134.579C71.7656 137.831 74.9022 141.259 75.9741 142.34C76.1685 142.535 76.4775 142.523 76.6556 142.312C77.6369 141.149 80.4872 137.48 80.356 134.227Z" fill="#BBD468"/>
<rect x="25" y="126.305" width="8" height="8" rx="2" fill="#FBFBFB"/>
<rect x="69" y="126.305" width="8" height="8" rx="2" fill="#FBFBFB"/>
<path d="M0 104.167C0 88.2017 14.0636 76.0924 29.9852 77.2782C44.0738 78.3275 56.7644 78.3828 70.9019 77.3626C86.8507 76.2118 101 88.3004 101 104.291C101 117.812 90.7481 129.228 77.2549 130.098C58.4304 131.311 42.6815 131.294 23.8708 130.085C10.3141 129.214 0 117.752 0 104.167Z" fill="#D9E7EE"/>
<circle cx="26.5" cy="86.8054" r="3.5" fill="#525151"/>
<circle cx="76.5" cy="86.8054" r="3.5" fill="#525151"/>
<path d="M29 106.305C37 119.639 65.4444 119.639 73 106.305" stroke="#525151" stroke-width="2.5" stroke-linecap="round" stroke-linejoin="round"/>
<circle cx="17.25" cy="97.5554" r="1.25" fill="#525151"/>
<circle cx="21.25" cy="98.5554" r="1.25" fill="#525151"/>
<circle cx="18.25" cy="101.555" r="1.25" fill="#525151"/>
<circle cx="1.25" cy="1.25" r="1.25" transform="matrix(-1 0 0 1 87 96.3054)" fill="#525151"/>
<circle cx="1.25" cy="1.25" r="1.25" transform="matrix(-1 0 0 1 83 97.3054)" fill="#525151"/>
<circle cx="1.25" cy="1.25" r="1.25" transform="matrix(-1 0 0 1 86 100.305)" fill="#525151"/>
</svg>
