<svg width="120" height="132" viewBox="0 0 120 132" fill="none" xmlns="http://www.w3.org/2000/svg">
<path d="M55.4289 9.28376C56.0482 5.57123 59.241 2.99701 62.5601 3.53409C65.8792 4.07116 68.0678 7.51615 67.4485 11.2287L66.5696 16.4972L69.0713 11.9054C70.8506 8.63945 74.6192 7.48764 77.4887 9.33279C80.3582 11.178 81.242 15.3214 79.4627 18.5874L70.8713 34.357C69.092 37.6229 65.3234 38.7748 62.4539 36.9296C61.5352 36.3388 60.82 35.5125 60.3306 34.5548C59.3918 34.9355 58.3657 35.0721 57.3271 34.904C56.4761 34.7663 55.6994 34.4374 55.0253 33.9619C54.1212 35.7485 52.5294 37.1039 50.5949 37.5009C47.253 38.1868 44.1535 35.7531 43.6721 32.0652L41.3475 14.2582C40.866 10.5703 43.1849 7.02462 46.5268 6.33875C49.8687 5.65289 52.9681 8.08655 53.4495 11.7745L54.1361 17.0338L55.4289 9.28376Z" fill="#FFF161"/>
<path d="M117 81.8346C117 112.139 90.3757 131.272 60 131.272C29.6243 131.272 3 112.139 3 81.8346C3 51.5306 29.6243 18.2721 60 18.2721C90.3757 18.2721 117 51.5306 117 81.8346Z" fill="#FFF161"/>
<path d="M72.0638 101.03C75.174 102.864 80.6126 101.51 80.6126 101.51C80.6126 101.51 79.0845 96.5916 75.9743 94.7574C72.864 92.9232 67.4868 93.7688 67.4868 93.7688C67.4868 93.7688 68.9535 99.1957 72.0638 101.03Z" fill="#A0BE56"/>
<path d="M62.6639 103.384C64.803 108.331 72.1422 111.71 72.1422 111.71C72.1422 111.71 74.3414 104.607 72.2023 99.6603C70.0632 94.7137 63.1148 90.8344 63.1148 90.8344C63.1148 90.8344 60.5248 98.4379 62.6639 103.384Z" fill="#BBD468"/>
<path d="M42.9329 90.2318C40.5427 88.7977 40.3154 85.4197 42.4921 83.6784L52.3597 75.7843C56.8307 72.2075 63.206 72.2877 67.5857 75.9758L76.8177 83.7502C78.8879 85.4935 78.6654 88.7466 76.3771 90.1918L66.2979 96.5576C62.4674 98.9769 57.6009 99.0326 53.716 96.7017L42.9329 90.2318Z" fill="#FFA046"/>
<ellipse cx="52.9137" cy="86.1695" rx="1.68288" ry="2.20513" fill="#CF7520"/>
<ellipse cx="66.0864" cy="86.1695" rx="1.68288" ry="2.20513" fill="#CF7520"/>
<circle cx="9" cy="9" r="9" transform="matrix(-1 0 0 1 43 64.2721)" fill="#3A3A3A"/>
<ellipse cx="2.7" cy="3.15" rx="2.7" ry="3.15" transform="matrix(-1 0 0 1 40.3 66.972)" fill="white"/>
<circle cx="1.35" cy="1.35" r="1.35" transform="matrix(-1 0 0 1 34.9 73.2721)" fill="white"/>
<path d="M27.9559 59.6845C32.7786 57.2103 35.3961 57.4612 39.9395 60.3125" stroke="#3A3A3A" stroke-width="2.5" stroke-linecap="round"/>
<circle cx="9" cy="9" r="9" transform="matrix(-1 0 0 1 95 64.2721)" fill="#3A3A3A"/>
<ellipse cx="2.7" cy="3.15" rx="2.7" ry="3.15" transform="matrix(-1 0 0 1 92.3 66.972)" fill="white"/>
<circle cx="1.35" cy="1.35" r="1.35" transform="matrix(-1 0 0 1 86.9 73.2721)" fill="white"/>
<path d="M93.0882 59.6845C88.2655 57.2103 85.648 57.4612 81.1047 60.3125" stroke="#3A3A3A" stroke-width="2.5" stroke-linecap="round"/>
<circle cx="23" cy="92.2721" r="12" fill="#FFAA97"/>
<circle cx="98" cy="92.2721" r="12" fill="#FFAA97"/>
<path d="M50.1355 71.878C50.1355 84.7002 39.256 95.1908 25.7143 95.1908C12.1726 95.1908 1.2931 84.7002 1.2931 71.878C1.2931 59.0558 12.1726 48.5652 25.7143 48.5652C39.256 48.5652 50.1355 59.0558 50.1355 71.878Z" stroke="#525252" stroke-width="2.58621"/>
<path d="M118.707 71.878C118.707 84.7002 107.827 95.1908 94.2857 95.1908C80.744 95.1908 69.8645 84.7002 69.8645 71.878C69.8645 59.0558 80.744 48.5652 94.2857 48.5652C107.827 48.5652 118.707 59.0558 118.707 71.878Z" stroke="#525252" stroke-width="2.58621"/>
<path d="M50.2857 70.0702C57.6035 68.824 61.8981 68.8464 69.7143 70.0702V74.6119C62.2503 73.4761 57.9944 73.4601 50.2857 74.6119V70.0702Z" fill="#525252"/>
</svg>
