<svg width="131" height="178" viewBox="0 0 131 178" fill="none" xmlns="http://www.w3.org/2000/svg">
<circle cx="17" cy="86" r="14" fill="#9B7963"/>
<circle cx="17" cy="86" r="10" fill="#3B2F1E"/>
<circle cx="117" cy="86" r="14" fill="#9B7963"/>
<circle cx="117" cy="86" r="10" fill="#3B2F1E"/>
<path d="M65.1607 50.0612C65.1218 47.866 66.5574 46.0482 68.3674 46.0009C70.1773 45.9537 71.6761 47.6949 71.7151 49.8901L71.7704 53.0053L72.6409 50.1045C73.2601 48.0412 75.1411 46.9774 76.8423 47.7284C78.5435 48.4793 79.4206 50.7607 78.8014 52.824L75.8118 62.7862C75.1926 64.8495 73.3116 65.9133 71.6104 65.1623C71.0657 64.9219 70.6056 64.5246 70.2519 64.0278C69.7926 64.3466 69.2629 64.5347 68.6966 64.5495C68.2325 64.5616 67.7889 64.4561 67.3851 64.2556C67.083 65.3769 66.3744 66.3244 65.3896 66.7592C63.6884 67.5101 61.8074 66.4463 61.1882 64.383L58.1986 54.4208C57.5794 52.3575 58.4565 50.0761 60.1577 49.3252C61.8589 48.5742 63.7399 49.638 64.3591 51.7013L65.2421 54.6437L65.1607 50.0612Z" fill="#9B7963"/>
<ellipse cx="67" cy="108" rx="55" ry="51" fill="#9B7963"/>
<path fill-rule="evenodd" clip-rule="evenodd" d="M14.9126 124.419C20.2238 115.222 30.4044 109 42.0909 109C48.6589 109 54.7512 110.965 59.7708 114.319C64.43 117.433 71.57 117.433 76.2293 114.319C81.2489 110.965 87.3412 109 93.9092 109C104.704 109 114.213 114.308 119.788 122.367C113.097 143.538 91.9958 159 67 159C42.8194 159 22.2833 144.53 14.9126 124.419Z" fill="#F5E8CF"/>
<path d="M60 126.5L63.5 127.5L68.5 125L73 127.5L77 126.5L76.6497 130.528C76.2821 134.756 72.7433 138 68.5 138C64.2567 138 60.7179 134.756 60.3503 130.528L60 126.5Z" fill="#FEB1AA"/>
<path d="M68.5 113.437V122.315C68.5 125.215 70.8505 127.565 73.75 127.565H74.4834C76.9779 127.565 79 125.543 79 123.049V123.049" stroke="#3B2F1E" stroke-width="2.5" stroke-linecap="round" stroke-linejoin="round"/>
<path d="M68.5 113.437V122.315C68.5 125.215 66.1495 127.565 63.25 127.565H62.5166C60.0221 127.565 58 125.543 58 123.049V123.049" stroke="#3B2F1E" stroke-width="2.5" stroke-linecap="round" stroke-linejoin="round"/>
<path d="M78.7781 114.231C78.7781 117.539 74.1268 120.22 68.3891 120.22C62.6513 120.22 58 117.539 58 114.231C58 110.924 62.6513 106 68.3891 106C74.1268 106 78.7781 110.924 78.7781 114.231Z" fill="#3B2F1E"/>
<ellipse cx="63" cy="111.5" rx="2" ry="1.5" transform="rotate(-25.5447 63 111.5)" fill="white"/>
<ellipse cx="36.5" cy="115" rx="5.5" ry="3" fill="#FFCEB9"/>
<ellipse cx="98.5" cy="115" rx="5.5" ry="3" fill="#FFCEB9"/>
<circle cx="37.5" cy="105.5" r="7.5" fill="#3B2F1E"/>
<circle cx="34.5" cy="103.5" r="2.5" fill="white"/>
<circle cx="37.5" cy="107.5" r="1.5" fill="white"/>
<circle cx="96.5" cy="105.5" r="7.5" fill="#3B2F1E"/>
<circle cx="93.5" cy="103.5" r="2.5" fill="white"/>
<circle cx="96.5" cy="107.5" r="1.5" fill="white"/>
<path d="M32.735 120.947L10.735 118.947M33.4981 125.42L10.735 126.947M34.5421 129.706L11.735 134.947" stroke="#3B2F1E" stroke-width="2" stroke-linecap="round"/>
<path d="M102.265 120.947L124.265 118.947M101.502 125.42L124.265 126.947M100.458 129.706L123.265 134.947" stroke="#3B2F1E" stroke-width="2" stroke-linecap="round"/>
<circle cx="90.5" cy="78.5" r="3.75" stroke="white" stroke-width="1.5"/>
<circle cx="100" cy="64" r="5" stroke="white" stroke-width="2"/>
<circle cx="109.5" cy="46.5" r="6.25" stroke="white" stroke-width="2.5"/>
<path d="M7.85753 2.83479C8.94203 2.19677 9.95596 1.49068 10.8927 0.728813C13.5992 1.9658 16.7286 2.66875 19.9996 2.66875C22.6791 2.66875 25.2534 2.21797 27.5831 1.38134C21.3252 9.96146 9.9623 30.3558 22.9179 52.3909C37.1904 76.6665 25.7108 98.1339 19.6525 106.749C19.3003 107.249 18.316 106.935 18.5257 106.389C21.7023 98.1127 22.2208 78.6908 7.85751 55.7288C-5.06261 35.0739 1.16674 15.4954 4.11175 4.66494C5.4143 4.14363 6.66732 3.53462 7.85753 2.83479Z" fill="#017B4E"/>
<path d="M27.2458 4.00004C27.9661 11.2342 29.9471 19.6888 34.3692 28.54C45.2319 50.282 30.1915 78.7797 26.099 85.8187C25.872 86.2094 25.2544 86.0306 25.2874 85.5837C25.7632 79.1007 26.533 56.7171 16.9663 35.2337C12.7634 25.7949 13.5471 15.6972 16.103 6.84216C20.0603 6.66757 23.8431 5.68425 27.2458 4.00004Z" fill="#09A76D"/>
<path d="M107.577 176.538C107.004 176.81 106.469 177.112 105.974 177.438C104.545 176.909 102.892 176.608 101.164 176.608C99.7489 176.608 98.3893 176.801 97.1588 177.159C100.464 173.49 106.466 164.77 99.6228 155.349C92.0845 144.97 98.1477 135.791 101.347 132.107C101.533 131.893 102.053 132.028 101.943 132.261C100.265 135.8 99.991 144.104 107.577 153.922C114.401 162.753 111.111 171.124 109.556 175.755C108.868 175.978 108.206 176.238 107.577 176.538Z" fill="#017B4E"/>
<path d="M98.2502 176.029C97.5946 176.323 96.9817 176.649 96.4154 177C94.7793 176.43 92.8877 176.106 90.9103 176.106C89.2906 176.106 87.7345 176.313 86.3261 176.699C90.109 172.743 96.9778 163.339 89.1462 153.179C80.5186 141.986 87.4579 132.088 91.1201 128.116C91.3331 127.885 91.9281 128.03 91.8013 128.282C89.8811 132.098 89.5676 141.053 98.2502 151.64C106.06 161.164 102.295 170.191 100.514 175.185C99.7271 175.425 98.9696 175.706 98.2502 176.029Z" fill="#02905D"/>
<path d="M112.996 177.075C113.376 173.982 114.423 170.367 116.758 166.582C122.496 157.286 114.552 145.102 112.39 142.092C112.27 141.925 111.944 142.001 111.962 142.193C112.213 144.964 112.62 154.535 107.567 163.72C105.347 167.756 105.761 172.074 107.111 175.86C109.201 175.934 111.199 176.355 112.996 177.075Z" fill="#09A76D"/>
</svg>
