<svg width="142" height="170" viewBox="0 0 142 170" fill="none" xmlns="http://www.w3.org/2000/svg">
<path d="M34.3721 50.9804C29.63 45.8237 24.8892 41.413 23.2575 35.5963C19.3072 21.5153 26.6835 6.41288 26.9447 5.83045L27.9089 3.6624C28.191 3.02821 28.9768 2.8049 29.5502 3.19596L31.4859 4.51598C32.3284 5.09049 59.2095 19.2458 49.3788 40.3922L34.3721 50.9804Z" fill="#B9997B"/>
<path d="M36.6658 48.5615C33.1753 44.7658 29.6857 41.5192 28.4847 37.2377C25.5769 26.873 31.0064 15.7565 31.1987 15.3278L31.7656 14.0531C32.0477 13.4189 32.8335 13.1956 33.4069 13.5866L34.5413 14.3602C35.1615 14.7831 54.948 25.2025 47.7119 40.7678L36.6658 48.5615Z" fill="#FDF5CF"/>
<path d="M105.628 50.9804C110.37 45.8237 115.111 41.413 116.742 35.5963C120.693 21.5153 113.317 6.41288 113.055 5.83045L112.091 3.6624C111.809 3.02821 111.023 2.8049 110.45 3.19596L108.514 4.51598C107.672 5.09049 80.7905 19.2458 90.6212 40.3922L105.628 50.9804Z" fill="#B9997B"/>
<path d="M103.334 48.5615C106.825 44.7658 110.314 41.5192 111.515 37.2377C114.423 26.873 108.993 15.7565 108.801 15.3278L108.234 14.0531C107.952 13.4189 107.166 13.1956 106.593 13.5866L105.459 14.3602C104.838 14.7831 85.0519 25.2025 92.288 40.7678L103.334 48.5615Z" fill="#FDF5CF"/>
<path fill-rule="evenodd" clip-rule="evenodd" d="M76.129 9.20016C78.5769 10.0911 79.839 12.7977 78.9481 15.2456L75.399 24.9964C74.6357 27.0936 72.5397 28.3204 70.4155 28.0686C70.067 28.322 69.6776 28.5315 69.2525 28.6862C66.8047 29.5772 64.0981 28.315 63.2071 25.8672L59.6581 16.1164C58.7672 13.6685 60.0293 10.9619 62.4771 10.071C64.925 9.18003 67.6316 10.4421 68.5225 12.89L69.1446 14.5992L70.0837 12.0192C70.9746 9.57134 73.6812 8.30922 76.129 9.20016Z" fill="#B9997B"/>
<path fill-rule="evenodd" clip-rule="evenodd" d="M107.185 47.9755C107.231 48.3347 107.443 48.6536 107.757 48.8339C118.006 54.7176 124.909 65.7705 124.909 78.4358C124.909 97.2737 109.637 112.545 90.7995 112.545H51.1378C32.2999 112.545 17.0287 97.2737 17.0287 78.4358C17.0287 65.7706 23.9317 54.7176 34.1805 48.8339C34.4945 48.6536 34.7066 48.3347 34.7527 47.9755C36.8548 31.5989 50.8473 18.9432 67.7958 18.9432H74.1416C91.09 18.9432 105.083 31.5989 107.185 47.9755Z" fill="#B9997B"/>
<path fill-rule="evenodd" clip-rule="evenodd" d="M122.804 90.2587C117.996 103.269 105.481 112.545 90.7996 112.545H51.1378C36.4565 112.545 23.9415 103.269 19.1335 90.2587C23.9415 77.2481 36.4565 67.9726 51.1378 67.9726H90.7996C105.481 67.9726 117.996 77.2481 122.804 90.2587Z" fill="#FDF5CF"/>
<ellipse cx="46.0007" cy="56.2725" rx="6.68583" ry="8.35729" fill="#433D3C"/>
<ellipse cx="44.3292" cy="53.3474" rx="2.50719" ry="2.92505" fill="white"/>
<circle cx="48.09" cy="57.526" r="1.25359" fill="white"/>
<ellipse cx="6.68583" cy="8.35729" rx="6.68583" ry="8.35729" transform="matrix(-1 0 0 1 102.83 47.9152)" fill="#433D3C"/>
<ellipse cx="2.50719" cy="2.92505" rx="2.50719" ry="2.92505" transform="matrix(-1 0 0 1 100.323 50.4223)" fill="white"/>
<circle cx="1.25359" cy="1.25359" r="1.25359" transform="matrix(-1 0 0 1 95.3087 56.2724)" fill="white"/>
<path d="M80.7245 68.4025C80.7245 65.5697 76.6709 63.7422 71.6707 63.7422C66.6704 63.7422 62.6169 65.5697 62.6169 68.4025C62.6169 71.2354 66.6704 74.6922 71.6707 74.6922C76.6709 74.6922 80.7245 71.2354 80.7245 68.4025Z" fill="#433D3C"/>
<circle cx="75.8247" cy="68.3012" r="1.27818" fill="white"/>
<path d="M71.6297 67.3672V76.7896C71.6297 79.8667 74.1242 82.3612 77.2013 82.3612H77.9797C80.6269 82.3612 82.7728 80.2152 82.7728 77.568V77.568" stroke="#433D3C" stroke-width="2.34332" stroke-linecap="round" stroke-linejoin="round"/>
<path d="M71.6297 67.3672V76.7896C71.6297 79.8667 69.1353 82.3612 66.0582 82.3612H65.2798C62.6326 82.3612 60.4866 80.2152 60.4866 77.568V77.568" stroke="#433D3C" stroke-width="2.34332" stroke-linecap="round" stroke-linejoin="round"/>
<ellipse cx="38.2006" cy="80.6757" rx="6.68583" ry="4.90294" fill="#FFCEB9"/>
<ellipse cx="103.945" cy="80.6757" rx="6.68583" ry="4.90294" fill="#FFCEB9"/>
<path d="M50.6901 23.1027L51.8715 17.9808C52.2234 16.4558 51.065 15 49.5 15C47.9349 15 46.7767 16.4558 47.1285 17.9808L48.3099 23.1027L48.8867 25.719L50.2946 25.6275L50.6901 23.1027Z" fill="#FFE591"/>
<path d="M51.8973 26.6901L57.0192 27.8715C58.5442 28.2233 60 27.065 60 25.4999C60 23.9348 58.5442 22.7766 57.0192 23.1283L51.8973 24.3097L49.4022 24.8223V26.001L51.8973 26.6901Z" fill="#FFE591"/>
<path d="M47.1027 26.6901L41.9808 27.8715C40.4558 28.2234 39 27.065 39 25.5C39 23.9349 40.4558 22.7766 41.9808 23.1284L47.1027 24.3098L48.7804 24.7151L49.1004 26.2331L47.1027 26.6901Z" fill="#FFE591"/>
<path d="M48.0621 22.0287L45.8601 18.5061C45.0305 17.179 43.182 16.9686 42.0754 18.0753C40.9687 19.1819 41.1791 21.0304 42.5062 21.86L46.0288 24.0621L48.5207 25.719L49.5 24.6963L48.0621 22.0287Z" fill="#FFE591"/>
<path d="M52.9712 24.0621L56.4938 21.8601C57.8209 21.0305 58.0313 19.182 56.9246 18.0754C55.818 16.9687 53.9696 17.1791 53.14 18.5062L50.9379 22.0288L49.1005 24.9787L50.0297 26.2758L52.9712 24.0621Z" fill="#FFE591"/>
<path d="M52.9712 26.9378L56.4938 29.1399C57.8209 29.9695 58.0313 31.8179 56.9246 32.9246C55.818 34.0312 53.9696 33.8208 53.14 32.4937L50.9379 28.9712L49.2088 26.629L50.6166 25.3304L52.9712 26.9378Z" fill="#FFE591"/>
<path d="M48.0621 28.9712L45.8601 32.4938C45.0305 33.8209 43.182 34.0313 42.0754 32.9246C40.9687 31.818 41.1791 29.9696 42.5062 29.14L46.0288 26.9379L49.1004 25.0619L49.8883 25.723L48.0621 28.9712Z" fill="#FFE591"/>
<path d="M50.8484 28.0436L52.011 33.0838C52.3572 34.5845 51.2174 36.0171 49.6773 36.0171C48.1372 36.0171 46.9974 34.5845 47.3435 33.0838L48.5061 28.0436L48.9532 25.3125L50.0869 25.1886L50.8484 28.0436Z" fill="#FFE591"/>
<path d="M49.5003 27.9726C50.8657 27.9726 51.9726 26.8658 51.9726 25.5004C51.9726 24.135 50.8657 23.0281 49.5003 23.0281C48.1349 23.0281 47.0281 24.135 47.0281 25.5004C47.0281 26.8658 48.1349 27.9726 49.5003 27.9726Z" fill="#FFD500"/>
<g style="mix-blend-mode:multiply">
<path fill-rule="evenodd" clip-rule="evenodd" d="M48.8745 27.8927C49.0743 27.9449 49.2841 27.9726 49.5003 27.9726C50.8657 27.9726 51.9725 26.8658 51.9725 25.5004C51.9725 24.135 50.8657 23.0281 49.5003 23.0281C49.3582 23.0281 49.2189 23.0401 49.0834 23.0631C50.1457 23.3403 50.9298 24.3063 50.9298 25.4555C50.9298 26.6788 50.0413 27.6945 48.8745 27.8927Z" fill="#FED402" fill-opacity="0.5"/>
</g>
<path d="M22.1669 84.1684C21.7016 83.3379 20.6966 82.9864 19.8007 83.3084L17.9512 83.973C16.6884 84.4268 16.2369 85.9634 16.9305 87.1121C18.015 88.9082 18.6015 90.5293 18.9091 92.6042C19.1061 93.9337 20.434 94.8352 21.6989 94.3806L23.5528 93.7144C24.4436 93.3943 24.9953 92.4916 24.8292 91.5597C24.3178 88.6888 23.5904 86.7091 22.1669 84.1684Z" fill="#3F2B1F"/>
<path d="M41.9926 100.051C37.9168 93.1734 29.3924 90.9603 21.8684 93.6755C14.22 96.4357 9.01811 103.78 10.4296 111.791C11.9573 120.463 15.2305 130.588 22.239 133.281C32.3933 137.182 41.6059 133.801 46.965 124.301C50.7074 117.668 46.5157 107.685 41.9926 100.051Z" fill="#9F784E"/>
<g style="mix-blend-mode:multiply">
<path fill-rule="evenodd" clip-rule="evenodd" d="M48.4103 118.412C48.3935 120.54 47.9593 122.539 46.965 124.301C41.606 133.801 32.3934 137.182 22.239 133.281C15.2305 130.588 11.9574 120.463 10.4296 111.791C9.92672 108.937 10.2634 106.167 11.2511 103.659C11.2461 104.462 11.3054 105.278 11.4335 106.102C12.794 114.851 15.8935 125.139 22.9489 127.85C33.1032 131.751 42.8834 128.221 48.2425 118.722C48.3003 118.619 48.3563 118.516 48.4103 118.412Z" fill="#9F784E" fill-opacity="0.6"/>
</g>
<path d="M6.89868 107.556C6.4439 102.206 11.9181 96.4628 21.5898 92.9872C28.9312 90.3491 35.0501 89.7326 39.2181 91.8456C41.3753 92.7212 43.2994 94.7335 44.2718 97.4395C45.8716 101.891 44.2894 106.535 40.7379 107.811C39.2171 108.358 37.5819 108.198 36.0834 107.488C35.38 108.989 34.2204 110.153 32.6996 110.7C31.4472 111.15 30.1172 111.121 28.8499 110.7C28.2265 112.64 26.9247 114.175 25.107 114.828C23.4408 115.427 21.6372 115.178 20.0265 114.286C19.3124 115.593 18.2284 116.6 16.8459 117.097C13.2944 118.373 9.11842 115.799 7.51863 111.347C7.06012 110.071 6.86298 108.779 6.89868 107.556Z" fill="#322318"/>
<path d="M6.12958 105.415C5.6748 100.066 11.1489 94.3224 20.8207 90.8469C28.1621 88.2088 34.281 87.5923 38.449 89.7052C40.6062 90.5808 42.5303 92.5932 43.5027 95.2991C45.1025 99.751 43.5203 104.395 39.9688 105.671C38.448 106.217 36.8128 106.058 35.3143 105.347C34.6109 106.849 33.4513 108.013 31.9305 108.559C30.6781 109.009 29.3481 108.981 28.0808 108.56C27.4574 110.5 26.1556 112.035 24.3379 112.688C22.6717 113.287 20.868 113.038 19.2574 112.145C18.5433 113.453 17.4593 114.46 16.0768 114.957C12.5253 116.233 8.34931 113.658 6.74952 109.206C6.29101 107.931 6.09387 106.639 6.12958 105.415Z" fill="#5E4030"/>
<path d="M52.5464 100.615C52.241 100.07 51.5815 99.8389 50.9936 100.05L49.78 100.486C48.9513 100.784 48.655 101.792 49.1101 102.546C49.8218 103.725 50.2067 104.789 50.4085 106.15C50.5378 107.023 51.4092 107.614 52.2392 107.316L53.4558 106.879C54.0404 106.669 54.4024 106.076 54.2934 105.465C53.9578 103.581 53.4805 102.282 52.5464 100.615Z" fill="#3F2B1F"/>
<path d="M65.5563 111.037C62.8817 106.524 57.2879 105.071 52.3505 106.853C47.3314 108.664 43.9179 113.484 44.8441 118.741C45.8466 124.431 47.9945 131.076 52.5936 132.843C59.2571 135.403 65.3026 133.184 68.8193 126.95C71.2751 122.597 68.5245 116.046 65.5563 111.037Z" fill="#9F784E"/>
<g style="mix-blend-mode:multiply">
<path fill-rule="evenodd" clip-rule="evenodd" d="M69.7678 123.086C69.7567 124.482 69.4717 125.794 68.8193 126.95C65.3026 133.184 59.2571 135.403 52.5936 132.843C47.9946 131.076 45.8467 124.431 44.8441 118.741C44.5141 116.868 44.735 115.05 45.3832 113.405C45.3799 113.932 45.4188 114.467 45.5029 115.007C46.3957 120.749 48.4296 127.5 53.0595 129.279C59.723 131.839 66.1409 129.523 69.6576 123.289C69.6956 123.222 69.7323 123.154 69.7678 123.086Z" fill="#9F784E" fill-opacity="0.6"/>
</g>
<path d="M42.5271 115.962C42.2286 112.451 45.8209 108.682 52.1677 106.402C56.9852 104.67 61.0005 104.266 63.7357 105.652C65.1512 106.227 66.4139 107.548 67.052 109.323C68.1018 112.245 67.0635 115.292 64.7329 116.129C63.735 116.488 62.6619 116.383 61.6786 115.917C61.217 116.902 60.456 117.666 59.4581 118.025C58.6363 118.32 57.7635 118.301 56.9318 118.025C56.5227 119.298 55.6685 120.306 54.4757 120.734C53.3823 121.127 52.1987 120.964 51.1418 120.378C50.6732 121.236 49.9618 121.897 49.0546 122.223C46.724 123.06 43.9837 121.371 42.9339 118.449C42.633 117.612 42.5036 116.765 42.5271 115.962Z" fill="#322318"/>
<path d="M42.0224 114.557C41.7239 111.047 45.3162 107.278 51.663 104.997C56.4805 103.266 60.4958 102.861 63.231 104.248C64.6465 104.822 65.9092 106.143 66.5473 107.919C67.5971 110.84 66.5588 113.887 64.2282 114.725C63.2303 115.083 62.1572 114.979 61.1739 114.512C60.7123 115.498 59.9513 116.262 58.9534 116.62C58.1316 116.916 57.2588 116.897 56.4271 116.62C56.018 117.894 55.1638 118.901 53.971 119.33C52.8776 119.723 51.694 119.559 50.6371 118.974C50.1685 119.831 49.4571 120.492 48.5499 120.818C46.2193 121.656 43.479 119.966 42.4292 117.045C42.1283 116.208 41.9989 115.36 42.0224 114.557Z" fill="#5E4030"/>
<path d="M103.502 99.5515C120.304 118.982 123.551 130.587 127.119 158.321" stroke="#BBD468" stroke-width="1.84133" stroke-linecap="round"/>
<path d="M101.792 92.0957C103.014 93.3159 103.897 94.943 104.53 96.5398C105.623 99.2998 103.033 101.687 100.345 100.429C98.8298 99.7209 97.2835 98.7894 96.089 97.5962C94.9342 96.4427 94.0236 94.9602 93.3225 93.495C92.0202 90.7734 94.4776 88.1623 97.2727 89.2984C98.9078 89.963 100.567 90.8723 101.792 92.0957Z" fill="#BBD468"/>
<path d="M106.052 105.804C107.269 105.946 108.502 106.365 109.584 106.845C111.152 107.541 110.92 109.537 109.234 109.854C108.071 110.074 106.774 110.199 105.557 110.057C104.34 109.916 103.107 109.496 102.025 109.016C100.457 108.32 100.689 106.325 102.375 106.007C103.538 105.788 104.835 105.663 106.052 105.804Z" fill="#BBD468"/>
<path d="M113.497 103.969C113.33 105.183 112.886 106.408 112.383 107.48C111.655 109.033 109.665 108.76 109.382 107.068C109.187 105.9 109.089 104.601 109.255 103.387C109.422 102.174 109.866 100.949 110.369 99.8772C111.097 98.3239 113.087 98.5969 113.37 100.289C113.565 101.457 113.663 102.755 113.497 103.969Z" fill="#BBD468"/>
<path d="M112.277 115.403C113.494 115.544 114.728 115.964 115.81 116.444C117.378 117.14 117.146 119.135 115.46 119.453C114.297 119.672 113 119.797 111.783 119.656C110.566 119.514 109.333 119.095 108.25 118.615C106.682 117.919 106.914 115.923 108.6 115.606C109.764 115.387 111.06 115.261 112.277 115.403Z" fill="#BBD468"/>
<path d="M120.64 114.882C120.187 116.02 119.461 117.101 118.716 118.021C117.636 119.354 115.769 118.611 115.902 116.9C115.993 115.72 116.21 114.435 116.663 113.297C117.116 112.159 117.842 111.077 118.588 110.157C119.668 108.825 121.534 109.568 121.402 111.278C121.311 112.459 121.094 113.743 120.64 114.882Z" fill="#BBD468"/>
<path d="M117.745 125.941C118.949 126.166 120.151 126.669 121.197 127.223C122.714 128.025 122.345 130 120.641 130.2C119.465 130.339 118.163 130.374 116.959 130.149C115.754 129.924 114.553 129.421 113.506 128.867C111.99 128.065 112.359 126.09 114.063 125.889C115.238 125.751 116.541 125.715 117.745 125.941Z" fill="#BBD468"/>
<path d="M125.248 126.036C124.636 127.097 123.762 128.063 122.892 128.867C121.632 130.03 119.892 129.027 120.268 127.353C120.528 126.198 120.927 124.958 121.539 123.897C122.151 122.835 123.025 121.869 123.895 121.066C125.155 119.902 126.895 120.906 126.519 122.579C126.259 123.735 125.86 124.975 125.248 126.036Z" fill="#BBD468"/>
<path d="M120.641 137.157C121.823 137.483 122.977 138.085 123.974 138.725C125.417 139.652 124.884 141.588 123.169 141.645C121.986 141.684 120.685 141.61 119.504 141.285C118.323 140.96 117.168 140.357 116.172 139.717C114.728 138.791 115.262 136.854 116.976 136.797C118.16 136.758 119.46 136.832 120.641 137.157Z" fill="#BBD468"/>
<path d="M129.103 138.492C128.37 139.474 127.388 140.33 126.429 141.024C125.04 142.031 123.431 140.829 124.003 139.211C124.397 138.095 124.94 136.911 125.673 135.929C126.407 134.948 127.388 134.092 128.347 133.397C129.736 132.39 131.345 133.593 130.774 135.21C130.379 136.326 129.836 137.511 129.103 138.492Z" fill="#BBD468"/>
<path d="M88.5018 109.552C105.304 128.982 108.551 140.587 112.118 168.321" stroke="#BBD468" stroke-width="1.84133" stroke-linecap="round"/>
<path d="M86.7919 102.096C88.0135 103.316 88.8973 104.943 89.5298 106.54C90.623 109.3 88.0333 111.687 85.3444 110.429C83.8297 109.721 82.2834 108.789 81.0889 107.596C79.9341 106.443 79.0235 104.96 78.3224 103.495C77.0201 100.773 79.4775 98.1623 82.2726 99.2984C83.9078 99.963 85.5672 100.872 86.7919 102.096Z" fill="#BBD468"/>
<path d="M91.0517 115.804C92.2687 115.946 93.502 116.365 94.5842 116.845C96.1521 117.541 95.9202 119.537 94.2344 119.854C93.071 120.074 91.7743 120.199 90.5573 120.057C89.3403 119.916 88.107 119.496 87.0248 119.016C85.4569 118.32 85.6889 116.325 87.3746 116.007C88.538 115.788 89.8347 115.663 91.0517 115.804Z" fill="#BBD468"/>
<path d="M98.4968 113.969C98.3303 115.183 97.8857 116.408 97.3833 117.48C96.6553 119.033 94.665 118.76 94.3822 117.068C94.1871 115.9 94.0886 114.601 94.2551 113.387C94.4216 112.174 94.8662 110.949 95.3686 109.877C96.0965 108.324 98.0868 108.597 98.3696 110.289C98.5648 111.457 98.6633 112.755 98.4968 113.969Z" fill="#BBD468"/>
<path d="M97.2772 125.403C98.4943 125.544 99.7276 125.964 100.81 126.444C102.378 127.14 102.146 129.135 100.46 129.453C99.2965 129.672 97.9999 129.797 96.7828 129.656C95.5658 129.514 94.3325 129.095 93.2504 128.615C91.6824 127.919 91.9144 125.923 93.6002 125.606C94.7636 125.387 96.0602 125.261 97.2772 125.403Z" fill="#BBD468"/>
<path d="M105.64 124.882C105.187 126.02 104.461 127.101 103.716 128.021C102.636 129.354 100.769 128.611 100.902 126.9C100.993 125.72 101.209 124.435 101.663 123.297C102.116 122.159 102.842 121.077 103.588 120.157C104.668 118.825 106.534 119.568 106.402 121.278C106.31 122.459 106.094 123.743 105.64 124.882Z" fill="#BBD468"/>
<path d="M102.745 135.941C103.949 136.166 105.151 136.669 106.197 137.223C107.714 138.025 107.345 140 105.641 140.2C104.465 140.339 103.163 140.374 101.959 140.149C100.754 139.924 99.5527 139.421 98.5063 138.867C96.99 138.065 97.359 136.09 99.0626 135.889C100.238 135.751 101.541 135.715 102.745 135.941Z" fill="#BBD468"/>
<path d="M110.248 136.036C109.636 137.097 108.762 138.063 107.892 138.867C106.632 140.03 104.892 139.027 105.268 137.353C105.528 136.198 105.927 134.958 106.539 133.897C107.151 132.835 108.025 131.869 108.895 131.066C110.155 129.902 111.895 130.906 111.519 132.579C111.259 133.735 110.86 134.975 110.248 136.036Z" fill="#BBD468"/>
<path d="M105.641 147.157C106.822 147.483 107.977 148.085 108.974 148.725C110.417 149.652 109.884 151.588 108.169 151.645C106.986 151.684 105.685 151.61 104.504 151.285C103.323 150.96 102.168 150.357 101.172 149.717C99.7282 148.791 100.262 146.854 101.976 146.797C103.159 146.758 104.46 146.832 105.641 147.157Z" fill="#BBD468"/>
<path d="M114.103 148.492C113.37 149.474 112.388 150.33 111.429 151.024C110.04 152.031 108.431 150.829 109.003 149.211C109.397 148.095 109.94 146.911 110.673 145.929C111.407 144.948 112.388 144.092 113.347 143.397C114.736 142.39 116.345 143.593 115.774 145.21C115.379 146.326 114.836 147.511 114.103 148.492Z" fill="#BBD468"/>
</svg>
