<svg width="110" height="136" viewBox="0 0 110 136" fill="none" xmlns="http://www.w3.org/2000/svg">
<path d="M109 80C109 107.614 84.8234 130 55 130C25.1766 130 1 107.614 1 80C1 52.3858 28.7431 30 55 30C81.2569 30 109 52.3858 109 80Z" fill="#F0F0F0"/>
<path d="M55 18C24.6243 18 0 42.0665 0 71.7541V94.0404C0 100.093 5.02049 105 11.2136 105C17.4067 105 22.4272 100.093 22.4272 94.0404V84.9822L22.4272 94.5623C22.4272 100.327 27.2086 105 33.1068 105C39.005 105 43.7864 100.327 43.7864 94.5623L43.7864 84.9822V94.0404C43.7864 100.093 48.8069 105 55 105C61.1832 105 66.1976 100.109 66.2136 94.0695V94.5623C66.2136 100.327 70.995 105 76.8932 105C82.7914 105 87.5728 100.327 87.5728 94.5623L87.5728 94.0404C87.5728 100.093 92.5933 105 98.7864 105C104.98 105 110 100.093 110 94.0404V76.143C110 76.1386 110 76.1343 110 76.13V71.7541C110 42.0665 85.3757 18 55 18Z" fill="#FCFCFC"/>
<circle cx="21" cy="65.8862" r="8" fill="#FFCEB9"/>
<circle cx="89" cy="65.8862" r="8" fill="#FFCEB9"/>
<circle cx="30.5" cy="56.5" r="7.5" fill="#525151"/>
<circle cx="2.34375" cy="2.34375" r="2.34375" transform="matrix(-1 0 0 1 36.125 50.7708)" fill="white"/>
<circle cx="1.40625" cy="1.40625" r="1.40625" transform="matrix(-1 0 0 1 31.4375 55.4583)" fill="white"/>
<circle cx="80.5" cy="56.5" r="7.5" fill="#525151"/>
<circle cx="2.34375" cy="2.34375" r="2.34375" transform="matrix(-1 0 0 1 86.125 50.7708)" fill="white"/>
<circle cx="1.40625" cy="1.40625" r="1.40625" transform="matrix(-1 0 0 1 81.4375 55.4583)" fill="white"/>
<path fill-rule="evenodd" clip-rule="evenodd" d="M55.746 78.5494C54.0991 82.0354 51.1096 84.3015 48.3138 83.8878C44.874 83.3788 43.03 79.0062 44.195 74.1212C45.36 69.2363 49.0929 65.6889 52.5327 66.1979C53.8954 66.3995 55.0077 67.2076 55.7816 68.4136C56.5536 67.2428 57.6506 66.4595 58.9892 66.2615C62.4289 65.7525 66.1619 69.2999 67.3269 74.1848C68.4919 79.0698 66.6478 83.4424 63.2081 83.9514C60.3953 84.3676 57.3864 82.0714 55.746 78.5494Z" fill="#ED653B"/>
<path d="M44.7559 66.4498C42.8082 64.8604 42.7922 61.8897 44.7225 60.2793L53.2965 53.1266C54.7746 51.8935 56.9213 51.8881 58.4056 53.1136L67.0685 60.2662C69.0198 61.8772 69.0037 64.8725 67.0352 66.4625L58.372 73.4595C56.8999 74.6486 54.7958 74.6432 53.3297 73.4467L44.7559 66.4498Z" fill="#FFD500"/>
<g style="mix-blend-mode:multiply">
<path fill-rule="evenodd" clip-rule="evenodd" d="M68.4553 64.0802C65.3116 65.8887 61.0449 67 56.3457 67C51.155 67 46.4921 65.6441 43.2873 63.4904C43.3255 64.5931 43.8156 65.6825 44.7559 66.4498L53.3297 73.4467C54.7958 74.6432 56.8999 74.6486 58.3721 73.4595L67.0352 66.4625C67.8163 65.8315 68.29 64.9793 68.4553 64.0802Z" fill="#FFD500" fill-opacity="0.5"/>
</g>
<path d="M58.0823 120.075C57.5369 120.307 56.9182 120.429 56.2884 120.429H54.6532C54.0234 120.429 53.4047 120.307 52.8593 120.075L39.4542 114.381C36.9422 113.314 33.8326 114.77 34.016 116.899C34.5164 122.709 34.5064 127.29 34.0077 133.1C33.8251 135.227 36.9313 136.679 39.4406 135.613L53.3831 129.691C53.9285 129.459 54.5472 129.337 55.177 129.337H55.7646C56.3944 129.337 57.0131 129.459 57.5585 129.691L71.5691 135.642C74.065 136.702 77.1576 135.271 76.9938 133.154C76.5409 127.303 76.5199 122.705 76.9765 116.857C77.1422 114.735 74.0425 113.296 71.5411 114.358L58.0823 120.075Z" fill="#ED653B"/>
<g style="mix-blend-mode:multiply">
<path fill-rule="evenodd" clip-rule="evenodd" d="M34.3865 125C34.3842 127.597 34.257 130.195 34.0077 133.1C33.8251 135.227 36.9313 136.679 39.4406 135.613L53.3831 129.691C53.9285 129.459 54.5472 129.337 55.177 129.337H55.7646C56.3944 129.337 57.0131 129.459 57.5585 129.691L71.5691 135.642C74.065 136.702 77.1576 135.271 76.9938 133.154C76.7672 130.227 76.6487 127.614 76.6441 125H34.3865Z" fill="#ED653B" fill-opacity="0.45"/>
</g>
<path fill-rule="evenodd" clip-rule="evenodd" d="M55.3033 33.4853C51.5776 35.8728 46.5666 35.4378 43.3093 32.1805L34.4307 23.3019C30.6714 19.5425 30.6714 13.4475 34.4307 9.68811C37.6227 6.49612 42.4986 6.01439 46.1989 8.2429C47.0232 3.76364 50.9483 0.369995 55.666 0.369995C60.2568 0.369995 64.097 3.58361 65.0599 7.884C68.6654 6.07905 73.1682 6.68042 76.1759 9.68811C79.9352 13.4475 79.9352 19.5425 76.1759 23.3019L67.2973 32.1805C64.04 35.4378 59.029 35.8728 55.3033 33.4853Z" fill="#ED653B"/>
<g style="mix-blend-mode:multiply">
<path fill-rule="evenodd" clip-rule="evenodd" d="M78.5408 19.4248C78.0891 18.0067 77.3008 16.6726 76.1759 15.5477C73.1682 12.54 68.6654 11.9386 65.0599 13.7436C64.097 9.44319 60.2568 6.22958 55.666 6.22958C50.9483 6.22958 47.0232 9.62323 46.1989 14.1025C42.4986 11.874 37.6227 12.3557 34.4307 15.5477C33.3058 16.6726 32.5175 18.0067 32.0658 19.4248C31.008 16.1039 31.7963 12.3225 34.4307 9.68811C37.6227 6.49612 42.4986 6.01439 46.1989 8.2429C47.0232 3.76365 50.9483 0.369995 55.666 0.369995C60.2568 0.369995 64.097 3.58361 65.0599 7.884C68.6654 6.07905 73.1682 6.68042 76.1759 9.68811C78.8103 12.3225 79.5986 16.1039 78.5408 19.4248Z" fill="#ED653B" fill-opacity="0.5"/>
</g>
</svg>
