<svg width="130" height="136" viewBox="0 0 130 136" fill="none" xmlns="http://www.w3.org/2000/svg">
<circle cx="16" cy="65" r="16" fill="#C4C4C4"/>
<g style="mix-blend-mode:multiply">
<circle cx="16" cy="65" r="12" fill="#C4C4C4"/>
</g>
<circle cx="114" cy="65" r="16" fill="#C4C4C4"/>
<g style="mix-blend-mode:multiply">
<circle cx="114" cy="65" r="12" fill="#C4C4C4"/>
</g>
<path d="M62.8427 4.06119C62.8001 1.86603 64.3724 0.048192 66.3548 0.000939431C68.3371 -0.0463132 69.9786 1.69491 70.0213 3.89007L70.0819 7.00529L71.0353 4.10448C71.7134 2.04122 73.7736 0.977399 75.6368 1.72836C77.5 2.47933 78.4607 4.7607 77.7825 6.82395L74.5081 16.7862C73.83 18.8495 71.7698 19.9133 69.9066 19.1623C69.3101 18.9219 68.8061 18.5246 68.4187 18.0278C67.9157 18.3466 67.3356 18.5347 66.7153 18.5495C66.2071 18.5616 65.7212 18.4561 65.2789 18.2556C64.9481 19.3769 64.172 20.3244 63.0934 20.7592C61.2302 21.5101 59.17 20.4463 58.4919 18.383L55.2175 8.42077C54.5393 6.35752 55.5 4.07615 57.3632 3.32518C59.2264 2.57422 61.2866 3.63804 61.9647 5.7013L62.9318 8.64367L62.8427 4.06119Z" fill="#393939"/>
<path d="M18.3099 57.1972C17.0533 32.0652 37.0915 11 62.255 11H69.2809C94.6177 11 114.719 32.3439 113.202 57.6353L113 61L113.909 81.0021C115.048 106.061 95.0393 127 69.9546 127H61.6982C36.7445 127 16.7852 106.27 17.7298 81.3345L18.5 61L18.3099 57.1972Z" fill="#393939"/>
<path fill-rule="evenodd" clip-rule="evenodd" d="M37.0941 68.5821C37.6282 68.1146 37.6379 67.2742 37.1238 66.7847C33.3513 63.1923 31 58.1207 31 52.5C31 41.6078 39.83 32.7778 50.7222 32.7778C56.6409 32.7778 61.9506 35.385 65.5656 39.5134C66.0544 40.0717 66.9456 40.0717 67.4345 39.5134C71.0495 35.385 76.3592 32.7778 82.2778 32.7778C93.1701 32.7778 102 41.6078 102 52.5C102 58.1279 99.6428 63.2052 95.8618 66.7984C95.3469 67.2877 95.3561 68.1288 95.8904 68.5966C101.474 73.4851 105 80.6658 105 88.67C105 101.347 96.1023 112.557 83.5072 114C71.7215 115.35 61.3314 115.326 49.5503 113.971C36.9386 112.519 28 101.314 28 88.6188C28 80.629 31.5202 73.4613 37.0941 68.5821Z" fill="#B5B5B5"/>
<path fill-rule="evenodd" clip-rule="evenodd" d="M104.81 85.4716C104.936 86.5202 105 87.5876 105 88.67C105 101.348 96.1023 112.557 83.5072 114C71.7215 115.35 61.3314 115.326 49.5503 113.971C36.9386 112.519 28 101.314 28 88.6188C28 88.0608 28.0172 87.5069 28.051 86.9575C35.8393 76.2205 50.3656 69 67 69C82.8549 69 96.7947 75.5596 104.81 85.4716Z" fill="#DEDDDD"/>
<circle cx="48" cy="49" r="11" fill="white"/>
<circle cx="48" cy="49" r="7.33333" fill="#393939"/>
<circle cx="50.75" cy="46.8612" r="2.75" fill="white"/>
<circle cx="84" cy="49" r="11" fill="white"/>
<circle cx="84" cy="49" r="7.33333" fill="#393939"/>
<circle cx="86.75" cy="46.8612" r="2.75" fill="white"/>
<ellipse cx="52" cy="83" rx="3" ry="4" fill="#393939"/>
<ellipse cx="81" cy="83" rx="3" ry="4" fill="#393939"/>
<circle cx="38.5" cy="93.5" r="5.5" fill="#FFCEB9"/>
<circle cx="93.5" cy="93.5" r="5.5" fill="#FFCEB9"/>
<circle cx="38.5" cy="93.5" r="5.5" fill="#FFCEB9"/>
<circle cx="93.5" cy="93.5" r="5.5" fill="#FFCEB9"/>
<path d="M89.3366 111.026C75.0694 102.694 67.3492 102.011 49.3927 103.026" stroke="#5EA985" stroke-width="2" stroke-linecap="round"/>
<path d="M77.7302 108.206C77.0791 106.102 75.041 104.174 75.041 104.174C75.041 104.174 74.4485 106.916 75.0996 109.02C75.7508 111.124 77.7889 113.052 77.7889 113.052C77.7889 113.052 78.3814 110.31 77.7302 108.206Z" fill="#5EA985"/>
<path d="M78.2197 100.77C76.358 101.946 75.0268 104.416 75.0268 104.416C75.0268 104.416 77.829 104.274 79.6907 103.098C81.5524 101.922 82.8836 99.4518 82.8836 99.4518C82.8836 99.4518 80.0814 99.5937 78.2197 100.77Z" fill="#5EA985"/>
<path d="M70.4274 106.723C69.6328 104.67 67.4666 102.886 67.4666 102.886C67.4666 102.886 67.0646 105.663 67.8592 107.717C68.6538 109.771 70.82 111.554 70.82 111.554C70.82 111.554 71.222 108.777 70.4274 106.723Z" fill="#5EA985"/>
<path d="M63.3715 105.967C62.2208 104.089 59.7695 102.724 59.7695 102.724C59.7695 102.724 59.8729 105.528 61.0236 107.406C62.1743 109.283 64.6256 110.648 64.6256 110.648C64.6256 110.648 64.5222 107.845 63.3715 105.967Z" fill="#5EA985"/>
<path fill-rule="evenodd" clip-rule="evenodd" d="M83.9514 108.374C84.2964 108.398 84.6319 108.434 84.9541 108.48C84.7235 108.251 84.4931 108.004 84.2664 107.743C82.5591 105.776 81.7065 103.72 82.3621 103.151C83.0177 102.582 84.9333 103.715 86.6406 105.682C86.8673 105.943 87.0789 106.206 87.2739 106.467C87.2733 106.141 87.2847 105.804 87.3091 105.459C87.4926 102.861 88.3434 100.805 89.2094 100.866C90.0755 100.927 90.6287 103.083 90.4452 105.681C90.4208 106.026 90.3847 106.361 90.3383 106.683C90.568 106.453 90.8145 106.222 91.0757 105.996C93.0426 104.288 95.0984 103.436 95.6675 104.091C96.2366 104.747 95.1035 106.662 93.1366 108.37C92.8754 108.596 92.6127 108.808 92.352 109.003C92.6776 109.003 93.0148 109.014 93.3598 109.038C95.9578 109.222 98.0143 110.073 97.9532 110.939C97.892 111.805 95.7363 112.358 93.1382 112.174C92.7933 112.15 92.4579 112.114 92.1358 112.068C92.3663 112.297 92.5966 112.544 92.8233 112.805C94.5306 114.772 95.3832 116.827 94.7275 117.397C94.0719 117.966 92.1564 116.833 90.4491 114.866C90.2224 114.604 90.0107 114.342 89.8157 114.081C89.8163 114.407 89.8049 114.744 89.7805 115.089C89.597 117.687 88.7462 119.744 87.8802 119.682C87.0142 119.621 86.4609 117.465 86.6444 114.867C86.6688 114.522 86.7049 114.187 86.7513 113.865C86.5216 114.095 86.2751 114.326 86.0139 114.552C84.047 116.26 81.9912 117.112 81.4221 116.457C80.853 115.801 81.9861 113.886 83.953 112.178C84.2142 111.952 84.4769 111.74 84.7375 111.545C84.412 111.545 84.0748 111.534 83.7298 111.51C81.1318 111.326 79.0753 110.475 79.1364 109.609C79.1976 108.743 81.3533 108.19 83.9514 108.374Z" fill="#ED653B"/>
<circle cx="88.5448" cy="110.274" r="2.16145" transform="rotate(-85.9591 88.5448 110.274)" fill="white" fill-opacity="0.5"/>
<path d="M53 96C57.7273 104 74.5354 104 79 96" stroke="#393939" stroke-width="2" stroke-linecap="round" stroke-linejoin="round"/>
</svg>
