<svg width="134" height="141" viewBox="0 0 134 141" fill="none" xmlns="http://www.w3.org/2000/svg">
<path fill-rule="evenodd" clip-rule="evenodd" d="M55.7254 76.1934C62.6416 70.3052 67 61.7124 67 52.1429C67 34.3908 52.0015 20 33.5 20C14.9985 20 0 34.3908 0 52.1429C0 56.7729 1.0203 61.1744 2.85694 65.1514C1.65783 67.6114 1 70.2867 1 73.0844C1 85.1881 13.3122 95 28.5 95C42.3635 95 53.8309 86.8246 55.7254 76.1934Z" fill="#D9DEE5"/>
<path d="M58.7351 74.701C65.0319 69.5978 69 62.1507 69 53.8571C69 38.4721 55.3447 26 38.5 26C21.6553 26 8 38.4721 8 53.8571C8 57.8699 8.92893 61.6845 10.6011 65.1313C9.50937 67.2632 8.91045 69.5818 8.91045 72.0065C8.91045 82.4963 20.12 91 33.9478 91C46.5697 91 57.0102 83.9147 58.7351 74.701Z" fill="#FFDED0"/>
<path fill-rule="evenodd" clip-rule="evenodd" d="M78.2746 76.1934C71.3584 70.3052 67 61.7124 67 52.1429C67 34.3908 81.9985 20 100.5 20C119.002 20 134 34.3908 134 52.1429C134 56.7729 132.98 61.1744 131.143 65.1514C132.342 67.6114 133 70.2867 133 73.0844C133 85.1881 120.688 95 105.5 95C91.6365 95 80.1691 86.8246 78.2746 76.1934Z" fill="#D9DEE5"/>
<path d="M76.2649 74.701C69.9681 69.5978 66 62.1507 66 53.8571C66 38.4721 79.6553 26 96.5 26C113.345 26 127 38.4721 127 53.8571C127 57.8699 126.071 61.6845 124.399 65.1313C125.491 67.2632 126.09 69.5818 126.09 72.0065C126.09 82.4963 114.88 91 101.052 91C88.4303 91 77.9898 83.9147 76.2649 74.701Z" fill="#FFDED0"/>
<path d="M107.488 101.883C82.543 103.32 74.2227 105.068 49.7713 114.53" stroke="#56392B" stroke-width="3.94968" stroke-linecap="round"/>
<path d="M42.943 109.029C47.8925 110.523 51.2614 112.962 50.4971 114.7C49.7328 116.437 44.989 116.931 40.0395 115.437C35.09 113.944 30.7736 109.964 30.8966 109.685C31.0196 109.405 37.9935 107.535 42.943 109.029Z" fill="#34876F"/>
<g style="mix-blend-mode:multiply">
<path fill-rule="evenodd" clip-rule="evenodd" d="M50.6052 114.186C43.8953 112.164 38.3206 111 31.5244 109.812C38.1152 111.205 43.3581 112.868 49.9126 114.946C50.0309 114.983 50.1495 115.021 50.2687 115.059C50.3649 114.946 50.4415 114.826 50.4971 114.7C50.5699 114.534 50.6052 114.362 50.6052 114.186Z" fill="#34876F" fill-opacity="0.5"/>
</g>
<path d="M47.6128 123.574C50.9581 119.735 52.4463 115.923 50.8384 114.856C49.2305 113.789 44.9561 115.844 41.6108 119.683C38.2655 123.522 36.8321 129.126 37.0909 129.298C37.3497 129.47 44.2675 127.413 47.6128 123.574Z" fill="#34876F"/>
<g style="mix-blend-mode:multiply">
<path fill-rule="evenodd" clip-rule="evenodd" d="M51.2147 115.233C46.6775 120.434 42.6222 124.321 37.5503 128.864C42.3352 124.255 45.8345 120.121 50.2093 114.953C50.2882 114.86 50.3674 114.766 50.4469 114.673C50.5906 114.718 50.7216 114.779 50.8385 114.856C50.9916 114.958 51.1167 115.084 51.2147 115.233Z" fill="#34876F" fill-opacity="0.5"/>
</g>
<path d="M58.0358 103.942C62.4719 105.662 65.3828 108.143 64.5475 109.689C63.7122 111.236 59.3133 111.361 54.8771 109.641C50.4409 107.921 46.7766 103.957 46.911 103.708C47.0454 103.459 53.5996 102.222 58.0358 103.942Z" fill="#34876F"/>
<g style="mix-blend-mode:multiply">
<path fill-rule="evenodd" clip-rule="evenodd" d="M64.6862 109.223C58.6718 106.895 53.6358 105.435 47.4785 103.868C53.4312 105.61 58.1243 107.505 63.9914 109.875C64.0973 109.918 64.2035 109.961 64.3102 110.004C64.4072 109.906 64.4868 109.802 64.5475 109.689C64.6271 109.542 64.6726 109.386 64.6862 109.223Z" fill="#34876F" fill-opacity="0.5"/>
</g>
<path d="M62.5434 117.743C65.41 114.036 66.5661 110.448 65.0234 109.549C63.4808 108.65 59.6568 110.763 56.7902 114.47C53.9236 118.177 52.9195 123.412 53.1678 123.557C53.4161 123.702 59.6768 121.451 62.5434 117.743Z" fill="#34876F"/>
<g style="mix-blend-mode:multiply">
<path fill-rule="evenodd" clip-rule="evenodd" d="M65.3917 109.877C61.5034 114.9 57.985 118.688 53.5666 123.134C57.7166 118.642 60.7085 114.655 64.4489 109.671C64.5164 109.581 64.5841 109.491 64.6521 109.4C64.7871 109.434 64.9114 109.484 65.0235 109.549C65.1704 109.635 65.2929 109.745 65.3917 109.877Z" fill="#34876F" fill-opacity="0.5"/>
</g>
<path d="M73.5113 98.3889C77.8379 100.915 80.4348 103.99 79.2852 105.475C78.1357 106.959 73.5177 106.372 69.1912 103.845C64.8646 101.319 61.7461 96.5662 61.9312 96.3273C62.1162 96.0884 69.1847 95.8623 73.5113 98.3889Z" fill="#34876F"/>
<g style="mix-blend-mode:multiply">
<path fill-rule="evenodd" clip-rule="evenodd" d="M79.5134 105.009C73.6471 101.587 68.6473 99.2353 62.4953 96.5879C68.4023 99.385 72.9658 102.138 78.671 105.579C78.7739 105.641 78.8772 105.703 78.9809 105.765C79.0997 105.679 79.2016 105.582 79.2852 105.474C79.3947 105.333 79.4702 105.177 79.5134 105.009Z" fill="#34876F" fill-opacity="0.5"/>
</g>
<path d="M89.7998 95.8029C94.1263 98.3295 96.7233 101.404 95.5737 102.889C94.4241 104.373 89.8062 103.786 85.4796 101.259C81.1531 98.7329 78.0346 93.9803 78.2196 93.7413C78.4046 93.5024 85.4732 93.2763 89.7998 95.8029Z" fill="#34876F"/>
<g style="mix-blend-mode:multiply">
<path fill-rule="evenodd" clip-rule="evenodd" d="M95.8019 102.423C89.9356 99.0013 84.9357 96.6494 78.7838 94.0019C84.6907 96.7991 89.2543 99.5516 94.9594 102.993C95.0624 103.055 95.1657 103.117 95.2694 103.18C95.3882 103.093 95.4901 102.996 95.5736 102.889C95.6831 102.747 95.7586 102.591 95.8019 102.423Z" fill="#34876F" fill-opacity="0.5"/>
</g>
<path d="M76.1389 113.658C79.1781 109.727 80.4039 105.924 78.7683 104.97C77.1327 104.017 73.0784 106.257 70.0391 110.188C66.9999 114.118 65.9353 119.668 66.1986 119.822C66.4618 119.975 73.0996 117.589 76.1389 113.658Z" fill="#34876F"/>
<g style="mix-blend-mode:multiply">
<path fill-rule="evenodd" clip-rule="evenodd" d="M79.1585 105.318C75.0361 110.644 71.3058 114.66 66.6213 119.373C71.0212 114.611 74.1934 110.384 78.159 105.099C78.2305 105.004 78.3023 104.909 78.3744 104.813C78.5176 104.849 78.6493 104.901 78.7683 104.97C78.924 105.061 79.0538 105.178 79.1585 105.318Z" fill="#34876F" fill-opacity="0.5"/>
</g>
<path d="M92.4273 111.072C95.4666 107.141 96.6923 103.338 95.0567 102.384C93.4211 101.431 89.3668 103.671 86.3276 107.602C83.2883 111.532 82.2237 117.082 82.487 117.236C82.7502 117.389 89.388 115.002 92.4273 111.072Z" fill="#34876F"/>
<g style="mix-blend-mode:multiply">
<path fill-rule="evenodd" clip-rule="evenodd" d="M95.447 102.732C91.3246 108.058 87.5942 112.074 82.9097 116.787C87.3097 112.025 90.4818 107.798 94.4475 102.513C94.519 102.418 94.5907 102.322 94.6628 102.226C94.806 102.263 94.9378 102.315 95.0567 102.384C95.2124 102.475 95.3422 102.592 95.447 102.732Z" fill="#34876F" fill-opacity="0.5"/>
</g>
<path fill-rule="evenodd" clip-rule="evenodd" d="M86.7156 102.682C84.7452 101.643 85.5719 99.1271 87.7033 98.4792C106.85 92.6589 108 77.4034 108 59.5C108 36.5802 89.6437 18 67 18C44.3563 18 26 36.5802 26 59.5C26 79.6611 27.4586 96.4644 54.4326 100.217C55.6821 100.391 56.7184 101.299 57.084 102.506C62.9393 121.839 80.299 121.349 98.4519 120.837C99.0332 120.821 99.6154 120.804 100.198 120.788C101.135 120.763 101.833 119.892 101.56 118.995C101.283 118.082 101.013 117.496 100.779 116.989C100.344 116.045 100.036 115.376 100.042 113.379C100.048 111.464 100.35 110.813 100.772 109.905C100.861 109.714 100.955 109.512 101.052 109.285C101.755 107.645 100.445 105.95 98.6735 105.733C93.2836 105.073 89.4468 104.123 86.7156 102.682Z" fill="#D9DEE5"/>
<path fill-rule="evenodd" clip-rule="evenodd" d="M95.1204 105.344C96.0772 105.508 97.0944 105.657 98.1758 105.795C95.1746 108.962 93.1195 111.704 92.0466 115.188C91.8422 115.851 91.1576 116.189 90.5176 115.941C89.8775 115.693 89.5244 114.954 89.7288 114.291C90.7893 110.848 92.6696 108.102 95.1204 105.344ZM86.8446 102.9C87.6051 103.288 88.4496 103.64 89.3874 103.959C86.5882 106.631 85.4656 108.851 84.0813 112.315C83.8236 112.959 83.1138 113.24 82.4958 112.941C81.8778 112.643 81.5857 111.878 81.8434 111.233C83.1713 107.911 84.3477 105.518 86.8446 102.9ZM81.5013 97.1863C81.8363 98.0235 82.2443 98.7875 82.7411 99.4853C79.2345 102.567 77.7985 104.42 76.3316 108.09C76.0739 108.735 75.364 109.016 74.746 108.717C74.1281 108.418 73.836 107.654 74.0937 107.009C75.7785 102.793 77.5228 100.642 81.3785 97.2799C81.418 97.2455 81.459 97.2143 81.5013 97.1863Z" fill="#B7BFCD"/>
<path d="M55.0343 81C52.6782 123.816 76.0941 121.47 100.195 120.791C101.133 120.765 101.835 119.889 101.545 118.996C100.756 116.563 100.032 116.952 100.041 113.928C100.05 110.903 100.813 110.696 101.611 107.839C101.851 106.978 101.213 106.136 100.324 106.044C79.9651 103.937 80.023 99.0207 80.5 81" stroke="#B4BCCB" stroke-width="1.5" stroke-linecap="round"/>
<path d="M80.0248 123.389C82.0384 121.204 81.9085 116.63 81.9085 116.63C81.9085 116.63 77.3078 116.905 75.2941 119.09C73.2804 121.274 73.4104 125.849 73.4104 125.849C73.4104 125.849 78.0111 125.574 80.0248 123.389Z" fill="#34876F"/>
<path d="M92.3424 125.327C90.4654 122.705 85.4855 121.833 85.4855 121.833C85.4855 121.833 84.6731 126.784 86.5502 129.406C88.4272 132.029 93.4071 132.9 93.4071 132.9C93.4071 132.9 94.2195 127.949 92.3424 125.327Z" fill="#34876F"/>
<ellipse cx="46.5528" cy="72.2341" rx="4.55279" ry="5.23413" fill="#323232"/>
<ellipse cx="47.9148" cy="70.3162" rx="1.20503" ry="1.06567" fill="white"/>
<ellipse cx="4.55279" cy="5.23413" rx="4.55279" ry="5.23413" transform="matrix(-1 0 0 1 94.2112 67)" fill="#323232"/>
<ellipse cx="1.20503" cy="1.06567" rx="1.20503" ry="1.06567" transform="matrix(-1 0 0 1 92.7976 69.2505)" fill="white"/>
<ellipse cx="42.0975" cy="81.2887" rx="4.09751" ry="2.64342" fill="#FFC4AA"/>
<ellipse cx="93.1364" cy="81.2887" rx="4.09751" ry="2.64342" fill="#FFC4AA"/>
<ellipse cx="1.93269" cy="1.78352" rx="1.93269" ry="1.78352" transform="matrix(-0.993902 0.110268 0.117654 0.993055 81.9725 7.01434)" fill="#FFC547"/>
<ellipse cx="1.93269" cy="1.78352" rx="1.93269" ry="1.78352" transform="matrix(-0.993902 0.110268 0.117654 0.993055 70.4482 1.18634)" fill="#FFC547"/>
<ellipse cx="1.93269" cy="1.78352" rx="1.93269" ry="1.78352" transform="matrix(-0.993902 0.110268 0.117654 0.993055 57.6934 4.07751)" fill="#FFC547"/>
<path d="M80.1174 13.4586L77.8098 25.1651C77.7123 25.66 77.1958 25.9493 76.717 25.7826C69.4874 23.2662 64.1903 22.4345 56.3882 23.3663C55.8786 23.4272 55.4258 23.0226 55.4397 22.5101L55.7834 9.81999C55.8031 9.09262 56.6856 8.74862 57.2004 9.26764L61.8852 13.9906C62.2709 14.3795 62.9186 14.2993 63.1915 13.829L67.3696 6.62781C67.7295 6.0075 68.659 6.11353 68.8787 6.79996L71.607 15.3245C71.7654 15.8193 72.334 16.0523 72.7911 15.8096L78.9094 12.561C79.5266 12.2333 80.2526 12.7728 80.1174 13.4586Z" fill="#FFC547"/>
</svg>
