<svg width="128" height="136" viewBox="0 0 128 136" fill="none" xmlns="http://www.w3.org/2000/svg">
<circle cx="21.2474" cy="26.5232" r="19.5" fill="#FFE36B"/>
<g style="mix-blend-mode:multiply">
<circle cx="20.2474" cy="26.5" r="13.5" fill="#FFE36B"/>
</g>
<circle cx="107.247" cy="26.5232" r="19.5" fill="#FFE36B"/>
<g style="mix-blend-mode:multiply">
<circle cx="107.247" cy="26.5" r="13.5" fill="#FFE36B"/>
</g>
<path d="M59.5778 4.59687C59.5243 2.11216 61.4952 0.0545486 63.9799 0.00106334C66.4646 -0.052422 68.5222 1.91847 68.5757 4.40318L68.6516 7.9293L69.8467 4.64586C70.6967 2.31046 73.279 1.10632 75.6144 1.95634C77.9498 2.80635 79.1539 5.38864 78.3039 7.72404L74.1997 19.0004C73.3497 21.3358 70.7674 22.5399 68.432 21.6899C67.6842 21.4177 67.0525 20.968 66.567 20.4057C65.9364 20.7665 65.2093 20.9795 64.4318 20.9962C63.7948 21.0099 63.1858 20.8905 62.6314 20.6636C62.2167 21.9327 61.2439 23.0053 59.892 23.4973C57.5566 24.3473 54.9743 23.1432 54.1243 20.8078L50.02 9.53149C49.17 7.19609 50.3741 4.6138 52.7095 3.76378C55.0449 2.91377 57.6272 4.11791 58.4772 6.45331L59.6894 9.78379L59.5778 4.59687Z" fill="#FFE36B"/>
<path d="M121.747 65.177C121.747 90.8702 95.7799 115 63.7474 115C31.7149 115 5.7474 90.8702 5.7474 65.177C5.7474 39.4839 31.7149 11 63.7474 11C95.7799 11 121.747 39.4839 121.747 65.177Z" fill="#FFE36B"/>
<path fill-rule="evenodd" clip-rule="evenodd" d="M65.121 11.0175C73.4355 11.2289 81.3174 13.3504 88.4128 16.8258C87.1422 22.0896 82.4015 26 76.7474 26C70.12 26 64.7474 20.6274 64.7474 14C64.7474 12.9704 64.8771 11.9711 65.121 11.0175Z" fill="#343434"/>
<path fill-rule="evenodd" clip-rule="evenodd" d="M43.7474 21C47.0611 21 49.7474 18.3137 49.7474 15C49.7474 14.2731 49.6181 13.5764 49.3814 12.9316C45.4783 13.9928 41.7334 15.463 38.192 17.2709C39.0873 19.4587 41.2373 21 43.7474 21Z" fill="#343434"/>
<circle cx="35.7474" cy="32" r="5" fill="#343434"/>
<circle cx="58.7474" cy="33" r="4" fill="#343434"/>
<circle cx="79.7474" cy="38" r="3" fill="#343434"/>
<circle cx="55.2474" cy="47.5" r="2.5" fill="#343434"/>
<circle cx="73.2474" cy="53.5" r="2.5" fill="#343434"/>
<circle cx="63.5" cy="108.5" r="2.5" fill="#343434"/>
<circle cx="102.747" cy="39" r="3" fill="#343434"/>
<path fill-rule="evenodd" clip-rule="evenodd" d="M23.8275 100.662C19.4037 96.9555 15.6415 92.6908 12.7132 88.0633C14.2724 86.1914 16.6208 85 19.2474 85C23.9418 85 27.7474 88.8056 27.7474 93.5C27.7474 96.5079 26.185 99.1509 23.8275 100.662Z" fill="#343434"/>
<path fill-rule="evenodd" clip-rule="evenodd" d="M6.63792 56.7608C7.37006 53.2433 8.54032 49.7368 10.099 46.3195C12.2256 47.0796 13.7474 49.1121 13.7474 51.5C13.7474 54.5376 11.285 57 8.2474 57C7.68742 57 7.14698 56.9163 6.63792 56.7608Z" fill="#343434"/>
<path fill-rule="evenodd" clip-rule="evenodd" d="M117.308 46.129C119.615 51.1356 121.089 56.3369 121.573 61.4868C120.694 61.8185 119.742 62 118.747 62C114.329 62 110.747 58.4183 110.747 54C110.747 50.0729 113.577 46.8068 117.308 46.129Z" fill="#343434"/>
<path fill-rule="evenodd" clip-rule="evenodd" d="M114.673 88.2339C112.797 91.1726 110.584 93.9633 108.079 96.5559C106.119 95.7143 104.747 93.7674 104.747 91.5C104.747 88.4624 107.21 86 110.247 86C112.062 86 113.671 86.8788 114.673 88.2339Z" fill="#343434"/>
<path fill-rule="evenodd" clip-rule="evenodd" d="M46.5745 112.625C42.9871 111.61 39.5486 110.293 36.2963 108.714C37.0377 106.553 39.0874 105 41.5 105C44.5376 105 47 107.462 47 110.5C47 111.253 46.8486 111.971 46.5745 112.625Z" fill="#343434"/>
<path fill-rule="evenodd" clip-rule="evenodd" d="M94.8301 106.801C90.0845 109.507 84.8705 111.642 79.3217 113.054C78.4848 111.738 78 110.175 78 108.5C78 103.806 81.8056 100 86.5 100C90.6124 100 94.0427 102.92 94.8301 106.801Z" fill="#343434"/>
<circle cx="33.7474" cy="55" r="8" fill="#343434"/>
<circle cx="36.4481" cy="53.4658" r="2.76923" transform="rotate(-150 36.4481 53.4658)" fill="white"/>
<circle cx="32.8524" cy="58.8312" r="1.5" transform="rotate(-150 32.8524 58.8312)" fill="white"/>
<circle cx="93.7474" cy="55" r="8" fill="#343434"/>
<circle cx="96.4481" cy="53.4658" r="2.76923" transform="rotate(-150 96.4481 53.4658)" fill="white"/>
<circle cx="92.8523" cy="58.8312" r="1.5" transform="rotate(-150 92.8523 58.8312)" fill="white"/>
<ellipse cx="19.7474" cy="74.4" rx="6" ry="4.4" fill="#FFA787"/>
<ellipse cx="108.747" cy="74.4" rx="6" ry="4.4" fill="#FFA787"/>
<ellipse cx="63.7108" cy="78.5" rx="29.9634" ry="19.5" fill="#FAFAFA"/>
<path d="M63.7474 71V78.5C63.7474 80.9853 65.7621 83 68.2474 83H68.9114C71.03 83 72.7474 81.2825 72.7474 79.1639V79.1639" stroke="#343434" stroke-width="2" stroke-linecap="round" stroke-linejoin="round"/>
<path d="M63.7474 71V78.5C63.7474 80.9853 61.7327 83 59.2474 83H58.5835C56.4649 83 54.7474 81.2825 54.7474 79.1639V79.1639" stroke="#343434" stroke-width="2" stroke-linecap="round" stroke-linejoin="round"/>
<ellipse cx="63.7474" cy="69.6118" rx="8" ry="4.61181" fill="#343434"/>
<ellipse cx="59.4448" cy="67.5996" rx="1.15989" ry="1.11412" fill="white"/>
<path d="M44.9109 70.55C39.0678 70.0369 35.7531 69.9065 29.7474 70.0611" stroke="#343434" stroke-width="1.5" stroke-linecap="round" stroke-linejoin="round"/>
<path d="M43.409 79.5038C38.3627 80.3695 35.6001 81.0077 30.8379 82.5222" stroke="#343434" stroke-width="1.5" stroke-linecap="round" stroke-linejoin="round"/>
<path d="M43.0155 75.1951C37.74 74.9834 35.164 75.3115 29.8959 75.7616" stroke="#343434" stroke-width="1.5" stroke-linecap="round" stroke-linejoin="round"/>
<path d="M82.9109 70.55C88.7541 70.0369 92.0688 69.9065 98.0745 70.0611" stroke="#343434" stroke-width="1.5" stroke-linecap="round" stroke-linejoin="round"/>
<path d="M84.4129 79.5038C89.4591 80.3695 92.2217 81.0077 96.9839 82.5222" stroke="#343434" stroke-width="1.5" stroke-linecap="round" stroke-linejoin="round"/>
<path d="M84.8064 75.1951C90.0819 74.9834 92.6578 75.3115 97.926 75.7616" stroke="#343434" stroke-width="1.5" stroke-linecap="round" stroke-linejoin="round"/>
<path d="M49.6778 18.0032C49.7726 17.9487 49.8658 17.8892 49.957 17.8247C51.5151 16.722 51.8903 14.5735 50.795 13.0259C49.6998 11.4783 47.5488 11.1176 45.9908 12.2203C45.8395 12.3273 45.6994 12.4442 45.5707 12.5695C45.4748 11.2362 44.6299 10.0204 43.3213 9.54C41.551 8.89016 39.6026 9.83216 38.9693 11.644C38.6317 12.6099 38.736 13.6281 39.1752 14.4667C39.0348 14.4494 38.8918 14.4402 38.7469 14.4398C36.8276 14.4345 35.2912 15.9587 35.3152 17.8443C35.3393 19.7299 36.9148 21.2629 38.8341 21.2682C38.9377 21.2685 39.0402 21.2644 39.1413 21.2559C39.0997 21.3485 39.0617 21.4438 39.0275 21.5416C38.3943 23.3534 39.316 25.349 41.0862 25.9989C42.8565 26.6487 44.8049 25.7067 45.4382 23.8949C45.4944 23.734 45.5384 23.5716 45.5706 23.4089C46.1977 23.9746 47.0316 24.3216 47.9431 24.3242C49.8624 24.3295 51.3988 22.8053 51.3747 20.9197C51.359 19.6878 50.6811 18.6064 49.6778 18.0032Z" fill="white"/>
<g style="mix-blend-mode:multiply">
<circle cx="44.0641" cy="18.027" r="2.58966" transform="rotate(79.3678 44.0641 18.027)" fill="#FED402"/>
</g>
<path d="M10.7365 102.451C24.2025 117.631 32.9515 121.381 54.2972 127.061" stroke="#BBD468" stroke-width="1.84133" stroke-linecap="round"/>
<path d="M5.07625 100.336C5.6527 101.091 6.40052 101.737 7.20125 102.283C9.65332 103.957 12.4437 101.639 11.3292 98.8875C10.9776 98.0195 10.5345 97.1726 9.97697 96.4433C9.45274 95.7575 8.80163 95.1421 8.10612 94.5997C5.72691 92.7443 2.72671 94.8981 3.73205 97.7429C4.06226 98.6772 4.49889 99.5812 5.07625 100.336Z" fill="#BBD468"/>
<path d="M15.3674 105.099C15.356 105.79 15.4546 106.501 15.6078 107.179C15.9862 108.852 18.0073 108.885 18.4404 107.225C18.6157 106.553 18.7376 105.845 18.7489 105.154C18.7603 104.464 18.6617 103.752 18.5085 103.075C18.1302 101.402 16.109 101.368 15.6759 103.028C15.5006 103.7 15.3787 104.408 15.3674 105.099Z" fill="#BBD468"/>
<path d="M13.1555 110.738C13.8462 110.735 14.5559 110.622 15.2297 110.455C16.8948 110.042 16.8863 108.02 15.2179 107.622C14.5427 107.46 13.8321 107.353 13.1414 107.356C12.4507 107.359 11.741 107.472 11.0671 107.639C9.4021 108.052 9.41053 110.073 11.0789 110.472C11.7542 110.633 12.4648 110.741 13.1555 110.738Z" fill="#BBD468"/>
<path d="M22.2354 110.973C22.224 111.663 22.3226 112.375 22.4758 113.052C22.8542 114.726 24.8753 114.759 25.3084 113.099C25.4837 112.427 25.6056 111.719 25.6169 111.028C25.6283 110.338 25.5297 109.626 25.3765 108.949C24.9982 107.275 22.977 107.242 22.5439 108.902C22.3686 109.574 22.2467 110.282 22.2354 110.973Z" fill="#BBD468"/>
<path d="M20.9566 117.467C21.6264 117.298 22.288 117.018 22.902 116.693C24.419 115.893 23.9248 113.932 22.2095 113.946C21.5152 113.952 20.7997 114.019 20.1299 114.188C19.4601 114.356 18.7985 114.637 18.1846 114.961C16.6676 115.762 17.1617 117.722 18.8771 117.708C19.5713 117.702 20.2869 117.636 20.9566 117.467Z" fill="#BBD468"/>
<path d="M29.9175 116.351C29.9538 117.041 30.1013 117.744 30.3007 118.409C30.7935 120.052 32.8121 119.946 33.1298 118.26C33.2584 117.578 33.3312 116.863 33.2949 116.173C33.2586 115.483 33.1112 114.78 32.9117 114.115C32.4189 112.472 30.4003 112.578 30.0826 114.264C29.9541 114.946 29.8813 115.661 29.9175 116.351Z" fill="#BBD468"/>
<path d="M29.2113 122.236C29.8499 121.973 30.4644 121.6 31.0254 121.191C32.4116 120.18 31.6412 118.312 29.9456 118.572C29.2593 118.677 28.5608 118.846 27.9222 119.109C27.2836 119.372 26.6692 119.745 26.1081 120.154C24.7219 121.164 25.4924 123.033 27.1879 122.773C27.8742 122.668 28.5728 122.499 29.2113 122.236Z" fill="#BBD468"/>
<path d="M38.3992 119.786C38.4933 120.471 38.6993 121.159 38.954 121.805C39.5831 123.401 41.5856 123.125 41.7605 121.419C41.8313 120.728 41.8438 120.01 41.7497 119.325C41.6556 118.641 41.4495 117.953 41.1949 117.307C40.5658 115.711 38.5632 115.986 38.3883 117.693C38.3176 118.383 38.3051 119.102 38.3992 119.786Z" fill="#BBD468"/>
<path d="M38.5637 126.551C39.1666 126.214 39.7327 125.771 40.2415 125.299C41.4986 124.132 40.5125 122.367 38.8596 122.826C38.1906 123.012 37.5169 123.262 36.9139 123.599C36.311 123.936 35.7449 124.378 35.2361 124.851C33.979 126.018 34.9651 127.783 36.618 127.324C37.287 127.138 37.9607 126.888 38.5637 126.551Z" fill="#BBD468"/>
<path d="M116.341 101.987C102.876 117.166 94.1265 120.916 72.7808 126.596" stroke="#BBD468" stroke-width="1.84133" stroke-linecap="round"/>
<path d="M122.002 99.8717C121.425 100.626 120.677 101.272 119.877 101.819C117.425 103.492 114.634 101.174 115.749 98.4228C116.1 97.5548 116.543 96.7079 117.101 95.9786C117.625 95.2928 118.276 94.6774 118.972 94.135C121.351 92.2796 124.351 94.4334 123.346 97.2781C123.016 98.2125 122.579 99.1165 122.002 99.8717Z" fill="#BBD468"/>
<path d="M111.711 104.634C111.722 105.325 111.623 106.037 111.47 106.714C111.092 108.387 109.071 108.42 108.638 106.76C108.462 106.089 108.34 105.38 108.329 104.69C108.318 103.999 108.416 103.287 108.569 102.61C108.948 100.937 110.969 100.904 111.402 102.564C111.577 103.235 111.699 103.944 111.711 104.634Z" fill="#BBD468"/>
<path d="M113.922 110.273C113.232 110.27 112.522 110.157 111.848 109.99C110.183 109.577 110.192 107.556 111.86 107.157C112.535 106.995 113.246 106.888 113.937 106.891C114.627 106.894 115.337 107.007 116.011 107.174C117.676 107.587 117.667 109.608 115.999 110.007C115.324 110.169 114.613 110.276 113.922 110.273Z" fill="#BBD468"/>
<path d="M104.843 110.508C104.854 111.199 104.755 111.91 104.602 112.588C104.224 114.261 102.203 114.294 101.77 112.634C101.594 111.962 101.472 111.254 101.461 110.563C101.45 109.873 101.548 109.161 101.701 108.484C102.08 106.811 104.101 106.777 104.534 108.437C104.709 109.109 104.831 109.817 104.843 110.508Z" fill="#BBD468"/>
<path d="M106.121 117.002C105.452 116.833 104.79 116.553 104.176 116.229C102.659 115.428 103.153 113.468 104.869 113.482C105.563 113.487 106.278 113.554 106.948 113.723C107.618 113.892 108.279 114.172 108.893 114.496C110.41 115.297 109.916 117.257 108.201 117.243C107.507 117.238 106.791 117.171 106.121 117.002Z" fill="#BBD468"/>
<path d="M97.1604 115.886C97.1241 116.576 96.9767 117.279 96.7772 117.944C96.2844 119.587 94.2658 119.481 93.9482 117.795C93.8196 117.113 93.7468 116.398 93.7831 115.708C93.8194 115.019 93.9668 114.315 94.1662 113.65C94.659 112.007 96.6777 112.113 96.9953 113.799C97.1239 114.481 97.1967 115.196 97.1604 115.886Z" fill="#BBD468"/>
<path d="M97.8667 121.771C97.2281 121.508 96.6136 121.135 96.0526 120.726C94.6663 119.716 95.4368 117.847 97.1324 118.107C97.8187 118.212 98.5172 118.381 99.1558 118.644C99.7943 118.908 100.409 119.28 100.97 119.689C102.356 120.7 101.586 122.569 99.89 122.308C99.2038 122.203 98.5052 122.034 97.8667 121.771Z" fill="#BBD468"/>
<path d="M88.6788 119.322C88.5846 120.006 88.3786 120.694 88.124 121.34C87.4949 122.936 85.4923 122.661 85.3174 120.954C85.2467 120.263 85.2342 119.545 85.3283 118.861C85.4224 118.176 85.6284 117.488 85.8831 116.842C86.5122 115.246 88.5147 115.522 88.6896 117.228C88.7604 117.919 88.7729 118.637 88.6788 119.322Z" fill="#BBD468"/>
<path d="M88.5143 126.086C87.9113 125.749 87.3452 125.307 86.8365 124.834C85.5794 123.667 86.5654 121.902 88.2184 122.361C88.8874 122.547 89.5611 122.797 90.164 123.134C90.767 123.471 91.3331 123.914 91.8419 124.386C93.0989 125.553 92.1129 127.318 90.46 126.859C89.791 126.673 89.1173 126.423 88.5143 126.086Z" fill="#BBD468"/>
<path d="M10.7365 102.451C24.2025 117.631 32.9515 121.381 54.2972 127.061" stroke="#BBD468" stroke-width="1.84133" stroke-linecap="round"/>
<path d="M5.07625 100.336C5.6527 101.091 6.40052 101.737 7.20125 102.283C9.65332 103.957 12.4437 101.639 11.3292 98.8875C10.9776 98.0195 10.5345 97.1726 9.97697 96.4433C9.45274 95.7575 8.80163 95.1421 8.10612 94.5997C5.72691 92.7443 2.72671 94.8981 3.73205 97.7429C4.06226 98.6772 4.49889 99.5812 5.07625 100.336Z" fill="#BBD468"/>
<path d="M15.3674 105.099C15.356 105.79 15.4546 106.501 15.6078 107.179C15.9862 108.852 18.0073 108.885 18.4404 107.225C18.6157 106.553 18.7376 105.845 18.7489 105.154C18.7603 104.464 18.6617 103.752 18.5085 103.075C18.1302 101.402 16.109 101.368 15.6759 103.028C15.5006 103.7 15.3787 104.408 15.3674 105.099Z" fill="#BBD468"/>
<path d="M13.1555 110.738C13.8462 110.735 14.5559 110.622 15.2297 110.455C16.8948 110.042 16.8863 108.02 15.2179 107.622C14.5427 107.46 13.8321 107.353 13.1414 107.356C12.4507 107.359 11.741 107.472 11.0671 107.639C9.4021 108.052 9.41053 110.073 11.0789 110.472C11.7542 110.633 12.4648 110.741 13.1555 110.738Z" fill="#BBD468"/>
<path d="M22.2354 110.973C22.224 111.663 22.3226 112.375 22.4758 113.052C22.8542 114.726 24.8753 114.759 25.3084 113.099C25.4837 112.427 25.6056 111.719 25.6169 111.028C25.6283 110.338 25.5297 109.626 25.3765 108.949C24.9982 107.275 22.977 107.242 22.5439 108.902C22.3686 109.574 22.2467 110.282 22.2354 110.973Z" fill="#BBD468"/>
<path d="M20.9566 117.467C21.6264 117.298 22.288 117.018 22.902 116.693C24.419 115.893 23.9248 113.932 22.2095 113.946C21.5152 113.952 20.7997 114.019 20.1299 114.188C19.4601 114.356 18.7985 114.637 18.1846 114.961C16.6676 115.762 17.1617 117.722 18.8771 117.708C19.5713 117.702 20.2869 117.636 20.9566 117.467Z" fill="#BBD468"/>
<path d="M29.9175 116.351C29.9538 117.041 30.1013 117.744 30.3007 118.409C30.7935 120.052 32.8121 119.946 33.1298 118.26C33.2584 117.578 33.3312 116.863 33.2949 116.173C33.2586 115.483 33.1112 114.78 32.9117 114.115C32.4189 112.472 30.4003 112.578 30.0826 114.264C29.9541 114.946 29.8813 115.661 29.9175 116.351Z" fill="#BBD468"/>
<path d="M29.2113 122.236C29.8499 121.973 30.4644 121.6 31.0254 121.191C32.4116 120.18 31.6412 118.312 29.9456 118.572C29.2593 118.677 28.5608 118.846 27.9222 119.109C27.2836 119.372 26.6692 119.745 26.1081 120.154C24.7219 121.164 25.4924 123.033 27.1879 122.773C27.8742 122.668 28.5728 122.499 29.2113 122.236Z" fill="#BBD468"/>
<path d="M38.3992 119.786C38.4933 120.471 38.6993 121.159 38.954 121.805C39.5831 123.401 41.5856 123.125 41.7605 121.419C41.8313 120.728 41.8438 120.01 41.7497 119.325C41.6556 118.641 41.4495 117.953 41.1949 117.307C40.5658 115.711 38.5632 115.986 38.3883 117.693C38.3176 118.383 38.3051 119.102 38.3992 119.786Z" fill="#BBD468"/>
<path d="M38.5637 126.551C39.1666 126.214 39.7327 125.771 40.2415 125.299C41.4986 124.132 40.5125 122.367 38.8596 122.826C38.1906 123.012 37.5169 123.262 36.9139 123.599C36.311 123.936 35.7449 124.378 35.2361 124.851C33.979 126.018 34.9651 127.783 36.618 127.324C37.287 127.138 37.9607 126.888 38.5637 126.551Z" fill="#BBD468"/>
<path d="M116.341 101.987C102.876 117.166 94.1265 120.916 72.7808 126.596" stroke="#BBD468" stroke-width="1.84133" stroke-linecap="round"/>
<path d="M122.002 99.8717C121.425 100.626 120.677 101.272 119.877 101.819C117.425 103.492 114.634 101.174 115.749 98.4228C116.1 97.5548 116.543 96.7079 117.101 95.9786C117.625 95.2928 118.276 94.6774 118.972 94.135C121.351 92.2796 124.351 94.4334 123.346 97.2781C123.016 98.2125 122.579 99.1165 122.002 99.8717Z" fill="#BBD468"/>
<path d="M111.711 104.634C111.722 105.325 111.623 106.037 111.47 106.714C111.092 108.387 109.071 108.42 108.638 106.76C108.462 106.089 108.34 105.38 108.329 104.69C108.318 103.999 108.416 103.287 108.569 102.61C108.948 100.937 110.969 100.904 111.402 102.564C111.577 103.235 111.699 103.944 111.711 104.634Z" fill="#BBD468"/>
<path d="M113.922 110.273C113.232 110.27 112.522 110.157 111.848 109.99C110.183 109.577 110.192 107.556 111.86 107.157C112.535 106.995 113.246 106.888 113.937 106.891C114.627 106.894 115.337 107.007 116.011 107.174C117.676 107.587 117.667 109.608 115.999 110.007C115.324 110.169 114.613 110.276 113.922 110.273Z" fill="#BBD468"/>
<path d="M104.843 110.508C104.854 111.199 104.755 111.91 104.602 112.588C104.224 114.261 102.203 114.294 101.77 112.634C101.594 111.962 101.472 111.254 101.461 110.563C101.45 109.873 101.548 109.161 101.701 108.484C102.08 106.811 104.101 106.777 104.534 108.437C104.709 109.109 104.831 109.817 104.843 110.508Z" fill="#BBD468"/>
<path d="M106.121 117.002C105.452 116.833 104.79 116.553 104.176 116.229C102.659 115.428 103.153 113.468 104.869 113.482C105.563 113.487 106.278 113.554 106.948 113.723C107.618 113.892 108.279 114.172 108.893 114.496C110.41 115.297 109.916 117.257 108.201 117.243C107.507 117.238 106.791 117.171 106.121 117.002Z" fill="#BBD468"/>
<path d="M97.1604 115.886C97.1241 116.576 96.9767 117.279 96.7772 117.944C96.2844 119.587 94.2658 119.481 93.9482 117.795C93.8196 117.113 93.7468 116.398 93.7831 115.708C93.8194 115.019 93.9668 114.315 94.1662 113.65C94.659 112.007 96.6777 112.113 96.9953 113.799C97.1239 114.481 97.1967 115.196 97.1604 115.886Z" fill="#BBD468"/>
<path d="M97.8667 121.771C97.2281 121.508 96.6136 121.135 96.0526 120.726C94.6663 119.716 95.4368 117.847 97.1324 118.107C97.8187 118.212 98.5172 118.381 99.1558 118.644C99.7943 118.908 100.409 119.28 100.97 119.689C102.356 120.7 101.586 122.569 99.89 122.308C99.2038 122.203 98.5052 122.034 97.8667 121.771Z" fill="#BBD468"/>
<path d="M88.6788 119.322C88.5846 120.006 88.3786 120.694 88.124 121.34C87.4949 122.936 85.4923 122.661 85.3174 120.954C85.2467 120.263 85.2342 119.545 85.3283 118.861C85.4224 118.176 85.6284 117.488 85.8831 116.842C86.5122 115.246 88.5147 115.522 88.6896 117.228C88.7604 117.919 88.7729 118.637 88.6788 119.322Z" fill="#BBD468"/>
<path d="M88.5143 126.086C87.9113 125.749 87.3452 125.307 86.8365 124.834C85.5794 123.667 86.5654 121.902 88.2184 122.361C88.8874 122.547 89.5611 122.797 90.164 123.134C90.767 123.471 91.3331 123.914 91.8419 124.386C93.0989 125.553 92.1129 127.318 90.46 126.859C89.791 126.673 89.1173 126.423 88.5143 126.086Z" fill="#BBD468"/>
<path d="M71.0669 115.32C71.0841 115.138 71.0929 114.954 71.0929 114.768C71.0929 111.582 68.528 109 65.364 109C62.2 109 59.6351 111.582 59.6351 114.768C59.6351 115.077 59.6593 115.38 59.7058 115.676C57.7972 114.522 55.3266 114.501 53.4107 115.82C50.8189 117.605 50.2237 121.167 52.0813 123.777C53.0716 125.168 54.5591 126.007 56.1248 126.217C55.9658 126.392 55.8156 126.578 55.6753 126.775C53.8178 129.384 54.413 132.946 57.0047 134.731C59.5965 136.516 63.2034 135.848 65.061 133.239C65.1612 133.098 65.2543 132.954 65.3404 132.808C65.4264 132.954 65.5195 133.098 65.6198 133.239C67.4774 135.848 71.0843 136.516 73.6761 134.731C76.2678 132.946 76.863 129.384 75.0054 126.775C74.8405 126.543 74.6617 126.327 74.4711 126.126C75.8462 125.817 77.1228 125.016 78.005 123.777C79.8626 121.167 79.2674 117.605 76.6756 115.82C74.9824 114.654 72.8559 114.535 71.0669 115.32Z" fill="white"/>
<g style="mix-blend-mode:multiply">
<circle cx="65.6877" cy="122.99" r="4.32162" transform="rotate(24.6549 65.6877 122.99)" fill="#FED402"/>
</g>
<path d="M71.0669 115.32C71.0841 115.138 71.0929 114.954 71.0929 114.768C71.0929 111.582 68.528 109 65.364 109C62.2 109 59.6351 111.582 59.6351 114.768C59.6351 115.077 59.6593 115.38 59.7058 115.676C57.7972 114.522 55.3266 114.501 53.4107 115.82C50.8189 117.605 50.2237 121.167 52.0813 123.777C53.0716 125.168 54.5591 126.007 56.1248 126.217C55.9658 126.392 55.8156 126.578 55.6753 126.775C53.8178 129.384 54.413 132.946 57.0047 134.731C59.5965 136.516 63.2034 135.848 65.061 133.239C65.1612 133.098 65.2543 132.954 65.3404 132.808C65.4264 132.954 65.5195 133.098 65.6198 133.239C67.4774 135.848 71.0843 136.516 73.6761 134.731C76.2678 132.946 76.863 129.384 75.0054 126.775C74.8405 126.543 74.6617 126.327 74.4711 126.126C75.8462 125.817 77.1228 125.016 78.005 123.777C79.8626 121.167 79.2674 117.605 76.6756 115.82C74.9824 114.654 72.8559 114.535 71.0669 115.32Z" fill="white"/>
<g style="mix-blend-mode:multiply">
<circle cx="65.6877" cy="122.99" r="4.32162" transform="rotate(24.6549 65.6877 122.99)" fill="#FED402"/>
</g>
</svg>
