<svg width="134" height="131" viewBox="0 0 134 131" fill="none" xmlns="http://www.w3.org/2000/svg">
<path d="M33.9263 21.6358C26.3573 23.4144 23.1038 60.1679 23.1038 60.1679L57.6579 52.6708C57.6579 52.6708 41.0747 19.9561 33.9263 21.6358Z" fill="#C4C4C4"/>
<g style="mix-blend-mode:multiply">
<path d="M35.5092 27.9955C29.8744 29.3195 27.4523 56.6812 27.4523 56.6812L53.1765 51.0999C53.1765 51.0999 40.8309 26.745 35.5092 27.9955Z" fill="#C4C4C4"/>
</g>
<path d="M96.3151 21.6358C103.884 23.4144 107.137 60.1679 107.137 60.1679L72.5834 52.6708C72.5834 52.6708 89.1667 19.9561 96.3151 21.6358Z" fill="#C4C4C4"/>
<g style="mix-blend-mode:multiply">
<path d="M94.7322 27.9955C100.367 29.3195 102.789 56.6812 102.789 56.6812L77.0648 51.0999C77.0648 51.0999 89.4104 26.745 94.7322 27.9955Z" fill="#C4C4C4"/>
</g>
<path d="M69.2589 12.9221C59.5887 24.9887 57.897 32.0426 56.3751 48.8065" stroke="#5EA985" stroke-width="1.10842" stroke-linecap="round"/>
<path d="M65.0564 23.281C63.0194 23.5954 60.9547 25.218 60.9547 25.218C60.9547 25.218 63.4125 26.1425 65.4495 25.8282C67.4866 25.5138 69.5513 23.8912 69.5513 23.8912C69.5513 23.8912 67.0935 22.9666 65.0564 23.281Z" fill="#5EA985"/>
<path d="M58.2391 21.8082C59.0729 23.6932 61.1771 25.2643 61.1771 25.2643C61.1771 25.2643 61.4299 22.6505 60.5961 20.7655C59.7622 18.8806 57.6581 17.3095 57.6581 17.3095C57.6581 17.3095 57.4052 19.9233 58.2391 21.8082Z" fill="#5EA985"/>
<path d="M62.6824 29.8389C60.6719 30.2929 58.7239 32.054 58.7239 32.054C58.7239 32.054 61.2397 32.8069 63.2502 32.3529C65.2607 31.8988 67.2087 30.1378 67.2087 30.1378C67.2087 30.1378 64.6929 29.3849 62.6824 29.8389Z" fill="#5EA985"/>
<path d="M61.0146 36.2678C59.1183 37.0757 57.5185 39.158 57.5185 39.158C57.5185 39.158 60.1285 39.4467 62.0248 38.6389C63.921 37.831 65.5209 35.7486 65.5209 35.7486C65.5209 35.7486 62.9108 35.4599 61.0146 36.2678Z" fill="#5EA985"/>
<path d="M55.5092 28.6005C56.3973 30.4605 58.546 31.97 58.546 31.97C58.546 31.97 58.723 29.35 57.8349 27.49C56.9468 25.63 54.7981 24.1204 54.7981 24.1204C54.7981 24.1204 54.6211 26.7405 55.5092 28.6005Z" fill="#5EA985"/>
<path d="M53.9155 36.4534C55.01 38.2 57.3169 39.4546 57.3169 39.4546C57.3169 39.4546 57.194 36.8314 56.0995 35.0849C55.005 33.3383 52.6981 32.0838 52.6981 32.0838C52.6981 32.0838 52.8211 34.7069 53.9155 36.4534Z" fill="#5EA985"/>
<path fill-rule="evenodd" clip-rule="evenodd" d="M66.0496 17.6571C66.1097 17.3856 66.1779 17.123 66.2528 16.8721C66.0429 17.0285 65.8196 17.1828 65.5852 17.3323C63.8194 18.4588 62.0836 18.8948 61.7081 18.3062C61.3326 17.7176 62.4597 16.3273 64.2255 15.2009C64.4599 15.0513 64.6939 14.9139 64.9242 14.7895C64.6652 14.7516 64.3983 14.7028 64.1267 14.6428C62.0816 14.1907 60.5459 13.2716 60.6966 12.5899C60.8473 11.9082 62.6273 11.7221 64.6724 12.1742C64.944 12.2342 65.2066 12.3025 65.4574 12.3773C65.301 12.1674 65.1468 11.9442 64.9972 11.7097C63.8708 9.94396 63.4348 8.20814 64.0234 7.83267C64.612 7.4572 66.0023 8.58425 67.1287 10.35C67.2783 10.5845 67.4157 10.8184 67.5401 11.0487C67.578 10.7897 67.6267 10.5228 67.6868 10.2512C68.1388 8.20616 69.0579 6.67045 69.7396 6.82115C70.4213 6.97184 70.6075 8.75187 70.1554 10.7969C70.0954 11.0685 70.0271 11.3311 69.9522 11.582C70.1622 11.4256 70.3854 11.2714 70.6198 11.1218C72.3856 9.99536 74.1214 9.55936 74.4969 10.1479C74.8724 10.7365 73.7453 12.1268 71.9795 13.2532C71.7451 13.4028 71.5112 13.5402 71.2809 13.6646C71.5399 13.7025 71.8068 13.7513 72.0783 13.8113C74.1234 14.2634 75.6591 15.1825 75.5084 15.8642C75.3577 16.5459 73.5777 16.732 71.5326 16.2799C71.261 16.2199 70.9984 16.1516 70.7476 16.0768C70.904 16.2867 71.0582 16.5099 71.2078 16.7444C72.3342 18.5102 72.7702 20.246 72.1816 20.6214C71.593 20.9969 70.2028 19.8699 69.0763 18.1041C68.9268 17.8696 68.7894 17.6357 68.6649 17.4054C68.6271 17.6644 68.5783 17.9313 68.5183 18.2029C68.0662 20.2479 67.1471 21.7836 66.4654 21.6329C65.7837 21.4823 65.5976 19.7022 66.0496 17.6571Z" fill="white"/>
<circle cx="68.1026" cy="14.227" r="1.73816" transform="rotate(-167.535 68.1026 14.227)" fill="#FFCE05"/>
<path d="M79.8186 20.756C71.3386 33.6868 70.3249 40.8694 70.4026 57.7021" stroke="#5EA985" stroke-width="1.10842" stroke-linecap="round"/>
<path d="M76.6193 31.4673C74.6214 31.9738 72.7202 33.7852 72.7202 33.7852C72.7202 33.7852 75.2548 34.4721 77.2527 33.9656C79.2506 33.4591 81.1519 31.6476 81.1519 31.6476C81.1519 31.6476 78.6173 30.9608 76.6193 31.4673Z" fill="#5EA985"/>
<path d="M69.6929 30.6489C70.7021 32.4461 72.946 33.8102 72.946 33.8102C72.946 33.8102 72.9494 31.1842 71.9402 29.387C70.931 27.5898 68.6871 26.2257 68.6871 26.2257C68.6871 26.2257 68.6838 28.8517 69.6929 30.6489Z" fill="#5EA985"/>
<path d="M74.8792 38.2211C72.9209 38.8641 71.1491 40.8022 71.1491 40.8022C71.1491 40.8022 73.725 41.3128 75.6833 40.6697C77.6415 40.0267 79.4134 38.0886 79.4134 38.0886C79.4134 38.0886 76.8375 37.578 74.8792 38.2211Z" fill="#5EA985"/>
<path d="M67.6207 37.6698C68.6815 39.437 70.964 40.7355 70.964 40.7355C70.964 40.7355 70.8913 38.1105 69.8305 36.3433C68.7697 34.5761 66.4872 33.2776 66.4872 33.2776C66.4872 33.2776 66.5599 35.9026 67.6207 37.6698Z" fill="#5EA985"/>
<path fill-rule="evenodd" clip-rule="evenodd" d="M77.0737 25.7745C77.1077 25.4984 77.1507 25.2305 77.2014 24.9737C77.0073 25.1493 76.7997 25.3241 76.5805 25.4953C74.9298 26.7844 73.2432 27.3833 72.8135 26.8331C72.3838 26.2828 73.3737 24.7917 75.0244 23.5026C75.2436 23.3315 75.4635 23.1725 75.6809 23.0267C75.4195 23.0136 75.1491 22.9904 74.8731 22.9565C72.7943 22.7007 71.1782 21.9317 71.2635 21.2388C71.3487 20.5458 73.103 20.1914 75.1818 20.4471C75.4578 20.4811 75.7257 20.5241 75.9825 20.5748C75.8069 20.3807 75.6322 20.1731 75.461 19.9539C74.1719 18.3032 73.5729 16.6167 74.1232 16.187C74.6734 15.7573 76.1645 16.7471 77.4536 18.3979C77.6248 18.6171 77.7838 18.8369 77.9296 19.0543C77.9426 18.7929 77.9658 18.5225 77.9998 18.2465C78.2555 16.1677 79.0245 14.5516 79.7175 14.6369C80.4104 14.7221 80.7648 16.4764 80.5091 18.5552C80.4751 18.8312 80.4321 19.0991 80.3814 19.356C80.5756 19.1803 80.7831 19.0056 81.0023 18.8344C82.6531 17.5453 84.3396 16.9464 84.7693 17.4966C85.199 18.0469 84.2091 19.538 82.5584 20.8271C82.3392 20.9982 82.1194 21.1572 81.902 21.303C82.1634 21.316 82.4337 21.3392 82.7097 21.3732C84.7885 21.6289 86.4046 22.398 86.3194 23.0909C86.2341 23.7838 84.4798 24.1382 82.4011 23.8825C82.125 23.8486 81.8571 23.8055 81.6003 23.7549C81.7759 23.949 81.9507 24.1565 82.1218 24.3758C83.4109 26.0265 84.0099 27.713 83.4596 28.1427C82.9094 28.5724 81.4183 27.5826 80.1292 25.9318C79.958 25.7126 79.799 25.4928 79.6533 25.2754C79.6402 25.5368 79.617 25.8071 79.5831 26.0832C79.3273 28.1619 78.5583 29.778 77.8654 29.6928C77.1724 29.6075 76.818 27.8532 77.0737 25.7745Z" fill="white"/>
<circle cx="78.7915" cy="22.1648" r="1.73816" transform="rotate(-172.987 78.7915 22.1648)" fill="#FFCE05"/>
<path d="M17.0195 67.7455C16.9703 67.8693 16.8757 67.9688 16.7559 68.0226C8.27843 71.8352 1.25253 79.9448 0.0248777 83.4776C-0.0783341 83.7747 0.153592 84.0569 0.462448 84.057C5.61537 84.0595 6.85029 84.1288 10.9427 86.0518C11.262 86.2018 11.3296 86.6359 11.0711 86.879L7.08503 90.6276C6.74093 90.9512 6.9895 91.5785 7.45634 91.6117C9.33681 91.7456 11.6617 92.3205 14.187 93.1668C14.3588 93.2244 14.4855 93.3747 14.5189 93.556C18.4489 114.873 36.791 131 58.8249 131H71.7062C93.2648 131 111.289 115.561 115.738 94.928C115.773 94.763 115.887 94.6254 116.041 94.5636C119.989 92.9785 123.754 91.8102 126.543 91.6117C127.01 91.5784 127.258 90.9512 126.914 90.6276L122.928 86.879C122.669 86.6359 122.737 86.2018 123.056 86.0518C127.149 84.1288 128.384 84.0595 133.537 84.057C133.845 84.0569 134.078 83.7777 133.975 83.4806C132.563 79.4075 123.43 69.2383 113.252 66.6027C113.102 66.5639 112.978 66.4574 112.915 66.3132C105.895 50.2202 90.0847 39 71.7062 39H58.8249C39.9059 39 23.7087 50.8899 17.0195 67.7455Z" fill="#CFCFCE"/>
<path fill-rule="evenodd" clip-rule="evenodd" d="M113.535 66.678C110.42 66.0049 107.264 65.8237 104.155 66.176C86.71 66.176 72.1453 82.8856 66.5795 105.833C60.3758 82.8029 43.8055 67.0245 26.1548 67.0245C22.7307 67.0245 19.4175 67.4229 16.2687 68.2472C8.0105 72.1453 1.22894 80.0127 0.0248777 83.4776C-0.0783341 83.7747 0.153592 84.0569 0.462448 84.057C5.61537 84.0595 6.85029 84.1288 10.9427 86.0517C11.262 86.2018 11.3296 86.6359 11.0711 86.879L7.08503 90.6276C6.74093 90.9512 6.9895 91.5785 7.45634 91.6117C9.33681 91.7456 11.6617 92.3205 14.187 93.1668C14.3588 93.2244 14.4855 93.3747 14.5189 93.556C17.2073 108.138 26.6397 120.292 39.3846 126.516C39.4486 126.547 39.5127 126.578 39.5769 126.609C45.4142 129.425 51.9393 131 58.8249 131L64.2682 131L69 131L71.7062 131C78.4278 131 84.8059 129.499 90.5361 126.808C103.185 120.868 112.676 109.128 115.738 94.928C115.773 94.763 115.887 94.6254 116.041 94.5636C119.989 92.9785 123.754 91.8102 126.543 91.6117C127.01 91.5784 127.258 90.9512 126.914 90.6276L122.928 86.879C122.669 86.6359 122.737 86.2018 123.056 86.0517C127.149 84.1288 128.384 84.0595 133.537 84.057C133.845 84.0569 134.078 83.7777 133.975 83.4806C132.576 79.4453 123.598 69.4264 113.535 66.678Z" fill="#F4F4F4"/>
<ellipse cx="36.5" cy="101.3" rx="5.5" ry="3.3" fill="#FFC7AF"/>
<ellipse cx="95.5" cy="101.3" rx="5.5" ry="3.3" fill="#FFC7AF"/>
<circle cx="6.5" cy="6.5" r="6.5" transform="matrix(-1 0 0 1 48 84)" fill="#282828"/>
<circle cx="2.25" cy="2.25" r="2.25" transform="matrix(-1 0 0 1 41.5 87)" fill="white"/>
<circle cx="1.5" cy="1.5" r="1.5" transform="matrix(-1 0 0 1 44 91)" fill="white"/>
<circle cx="6.5" cy="6.5" r="6.5" transform="matrix(-1 0 0 1 97 84)" fill="#282828"/>
<circle cx="2.25" cy="2.25" r="2.25" transform="matrix(-1 0 0 1 90.5 87)" fill="white"/>
<circle cx="1.5" cy="1.5" r="1.5" transform="matrix(-1 0 0 1 93 91)" fill="white"/>
<rect x="66.2634" y="103.567" width="1.93315" height="8.35123" rx="0.966577" fill="#282828"/>
<ellipse cx="67.1913" cy="101.321" rx="6.57272" ry="4.32117" fill="#282828"/>
<circle cx="63.8277" cy="99.4358" r="1.0439" fill="white"/>
<path d="M60.5 109C63.9797 112.132 70.5203 112.132 74 109" stroke="#282828" stroke-width="1.93315" stroke-linecap="round"/>
<path d="M21.6592 60.5238C23.4917 61.1918 25.9267 60.6353 27.2854 60.2158C27.8456 60.0428 28.0754 59.4123 27.7579 58.9194C26.988 57.7239 25.4823 55.7309 23.6498 55.0629C21.8173 54.3949 19.3822 54.9514 18.0236 55.3709C17.4634 55.5439 17.2335 56.1744 17.551 56.6674C18.321 57.8628 19.8267 59.8558 21.6592 60.5238Z" fill="#5EA985"/>
<path d="M36.1864 59.263C34.5289 60.2911 32.0316 60.2436 30.6159 60.1104C30.0321 60.0554 29.6784 59.4852 29.8885 58.9378C30.3981 57.6103 31.4651 55.3518 33.1226 54.3237C34.7801 53.2956 37.2775 53.3431 38.6932 53.4763C39.2769 53.5313 39.6307 54.1015 39.4205 54.6489C38.9109 55.9764 37.8439 58.2349 36.1864 59.263Z" fill="#5EA985"/>
<path d="M103.512 56.4856C105.515 58.2312 109.308 58.2602 111.036 58.1708C111.549 58.1443 111.925 57.7123 111.881 57.201C111.734 55.4767 111.186 51.7238 109.183 49.9782C107.179 48.2326 103.387 48.2035 101.658 48.2929C101.146 48.3194 100.77 48.7515 100.813 49.2627C100.961 50.9871 101.509 54.74 103.512 56.4856Z" fill="#5EA985"/>
<path d="M69.9579 100.224C68.3852 99.4617 67.2202 97.5632 66.6217 96.391C66.3564 95.8715 66.6471 95.2719 67.2193 95.1584C68.5102 94.9024 70.7224 94.6413 72.2951 95.4038C73.8677 96.1664 75.0328 98.0649 75.6313 99.237C75.8966 99.7566 75.6059 100.356 75.0337 100.47C73.7427 100.726 71.5306 100.987 69.9579 100.224Z" fill="#5EA985"/>
<path d="M108.154 78.151C105.741 79.2635 102.093 78.2259 100.46 77.6546C99.9753 77.4852 99.7354 76.9647 99.9211 76.4864C100.548 74.873 102.127 71.4251 104.54 70.3126C106.953 69.2001 110.601 70.2378 112.235 70.8091C112.719 70.9785 112.959 71.499 112.774 71.9773C112.147 73.5906 110.567 77.0385 108.154 78.151Z" fill="#5EA985"/>
<path fill-rule="evenodd" clip-rule="evenodd" d="M25.9901 55.4731C26.0502 55.2015 26.1184 54.9389 26.1933 54.6881C25.9833 54.8445 25.7601 54.9987 25.5257 55.1483C23.7599 56.2747 22.0241 56.7107 21.6486 56.1221C21.2731 55.5335 22.4002 54.1433 24.1659 53.0168C24.4004 52.8673 24.6344 52.7299 24.8647 52.6054C24.6056 52.5676 24.3387 52.5188 24.0672 52.4587C22.0221 52.0067 20.4864 51.0876 20.6371 50.4059C20.7878 49.7242 22.5678 49.538 24.6129 49.9901C24.8845 50.0501 25.1471 50.1184 25.3979 50.1933C25.2415 49.9833 25.0873 49.7601 24.9377 49.5257C23.8113 47.7599 23.3753 46.0241 23.9639 45.6486C24.5525 45.2731 25.9428 46.4002 27.0692 48.166C27.2187 48.4004 27.3561 48.6344 27.4806 48.8647C27.5184 48.6056 27.5672 48.3387 27.6273 48.0672C28.0793 46.0221 28.9984 44.4864 29.6801 44.6371C30.3618 44.7878 30.548 46.5678 30.0959 48.6129C30.0358 48.8845 29.9676 49.1471 29.8927 49.3979C30.1026 49.2415 30.3259 49.0873 30.5603 48.9377C32.3261 47.8113 34.0619 47.3753 34.4374 47.9639C34.8128 48.5525 33.6858 49.9428 31.92 51.0692C31.6856 51.2188 31.4517 51.3561 31.2214 51.4806C31.4804 51.5184 31.7473 51.5672 32.0188 51.6272C34.0639 52.0793 35.5996 52.9984 35.4489 53.6801C35.2982 54.3618 33.5182 54.548 31.4731 54.0959C31.2015 54.0358 30.9389 53.9676 30.6881 53.8927C30.8445 54.1026 30.9987 54.3259 31.1483 54.5604C32.2747 56.3261 32.7107 58.0619 32.1221 58.4374C31.5335 58.8129 30.1432 57.6858 29.0168 55.9201C28.8673 55.6856 28.7299 55.4517 28.6054 55.2214C28.5676 55.4804 28.5188 55.7473 28.4588 56.0188C28.0067 58.0639 27.0876 59.5996 26.4059 59.4489C25.7242 59.2982 25.538 57.5182 25.9901 55.4731Z" fill="white"/>
<circle cx="28.043" cy="52.043" r="1.73816" transform="rotate(-167.535 28.043 52.043)" fill="#FFCE05"/>
</svg>
