<svg width="121" height="130" viewBox="0 0 121 130" fill="none" xmlns="http://www.w3.org/2000/svg">
<path d="M31.4554 9.83527C23.5455 10.9184 16.6509 48.1729 16.6509 48.1729L52.701 43.8643C52.701 43.8643 38.9258 8.81236 31.4554 9.83527Z" fill="#FFCFBB"/>
<path d="M32.3563 15.8276C26.2665 16.6615 20.9584 45.3437 20.9584 45.3437L48.7133 42.0265C48.7133 42.0265 38.1078 15.04 32.3563 15.8276Z" fill="#FFDED0"/>
<path d="M93.6299 9.83527C101.54 10.9184 108.434 48.1729 108.434 48.1729L72.3844 43.8643C72.3844 43.8643 86.1595 8.81236 93.6299 9.83527Z" fill="#FFCFBB"/>
<path d="M92.729 15.8276C98.8188 16.6615 104.127 45.3437 104.127 45.3437L76.3721 42.0265C76.3721 42.0265 86.9776 15.04 92.729 15.8276Z" fill="#FFDED0"/>
<rect x="12" y="23" width="100" height="103" rx="45.6567" fill="#FFD1BD"/>
<g style="mix-blend-mode:multiply">
<path fill-rule="evenodd" clip-rule="evenodd" d="M57.2439 101.878C57.2439 102.513 57.1188 103.142 56.8757 103.729C56.6326 104.316 56.2762 104.849 55.827 105.299C55.3779 105.748 54.8446 106.104 54.2577 106.347C53.6708 106.59 53.0417 106.715 52.4065 106.715C51.7712 106.715 51.1422 106.59 50.5553 106.347C49.9684 106.104 49.4351 105.748 48.9859 105.299C48.5367 104.849 48.1804 104.316 47.9373 103.729C47.6942 103.142 47.5691 102.513 47.5691 101.878L52.4065 101.878H57.2439ZM66.9187 101.878H62.0813H57.2439C57.2439 102.513 57.369 103.142 57.6121 103.729C57.8552 104.316 58.2115 104.849 58.6607 105.299C59.1099 105.748 59.6432 106.104 60.2301 106.347C60.817 106.59 61.446 106.715 62.0813 106.715C62.7165 106.715 63.3456 106.59 63.9325 106.347C64.5194 106.104 65.0526 105.748 65.5018 105.299C65.951 104.849 66.3074 104.316 66.5505 103.729C66.7936 103.142 66.9187 102.513 66.9187 101.878ZM66.9187 101.878H71.7561H76.5935C76.5935 102.513 76.4684 103.142 76.2253 103.729C75.9822 104.316 75.6258 104.849 75.1766 105.299C74.7274 105.748 74.1942 106.104 73.6073 106.347C73.0204 106.59 72.3913 106.715 71.7561 106.715C71.1208 106.715 70.4918 106.59 69.9049 106.347C69.318 106.104 68.7847 105.748 68.3355 105.299C67.8863 104.849 67.53 104.316 67.2869 103.729C67.0438 103.142 66.9187 102.513 66.9187 101.878Z" fill="#F4B89F" fill-opacity="0.5"/>
</g>
<g style="mix-blend-mode:multiply">
<path fill-rule="evenodd" clip-rule="evenodd" d="M57.2439 91.2358C57.2439 91.8499 57.1188 92.4579 56.8757 93.0253C56.6326 93.5926 56.2762 94.1081 55.827 94.5423C55.3779 94.9765 54.8446 95.321 54.2577 95.556C53.6708 95.791 53.0417 95.9119 52.4065 95.9119C51.7712 95.9119 51.1422 95.791 50.5553 95.556C49.9684 95.321 49.4351 94.9765 48.9859 94.5423C48.5367 94.1081 48.1804 93.5926 47.9373 93.0253C47.6942 92.4579 47.5691 91.8499 47.5691 91.2358L52.4065 91.2358H57.2439ZM66.9187 91.2358H62.0813H57.2439C57.2439 91.8499 57.369 92.4579 57.6121 93.0253C57.8552 93.5926 58.2115 94.1081 58.6607 94.5423C59.1099 94.9765 59.6432 95.321 60.2301 95.556C60.817 95.791 61.446 95.9119 62.0813 95.9119C62.7165 95.9119 63.3456 95.791 63.9325 95.556C64.5194 95.321 65.0526 94.9765 65.5018 94.5423C65.951 94.1081 66.3074 93.5926 66.5505 93.0253C66.7936 92.4579 66.9187 91.8499 66.9187 91.2358ZM66.9187 91.2358H71.7561H76.5935C76.5935 91.8499 76.4684 92.4579 76.2253 93.0253C75.9822 93.5926 75.6258 94.1081 75.1766 94.5423C74.7274 94.9765 74.1942 95.321 73.6073 95.556C73.0204 95.791 72.3913 95.9119 71.7561 95.9119C71.1208 95.9119 70.4918 95.791 69.9049 95.556C69.318 95.321 68.7847 94.9765 68.3355 94.5423C67.8863 94.1081 67.53 93.5926 67.2869 93.0253C67.0438 92.4579 66.9187 91.8499 66.9187 91.2358Z" fill="#F4B89F" fill-opacity="0.5"/>
</g>
<g style="mix-blend-mode:multiply">
<path fill-rule="evenodd" clip-rule="evenodd" d="M50.6328 112.52H56.5989H62.565H68.5312C68.5312 114.103 67.9026 115.62 66.7837 116.739C65.6649 117.858 64.1474 118.486 62.565 118.486C60.9827 118.486 59.4652 117.858 58.3464 116.739C57.23 115.623 56.6017 114.109 56.5989 112.531C56.5975 113.311 56.4433 114.083 56.1448 114.803C55.845 115.527 55.4055 116.185 54.8515 116.739C54.2975 117.293 53.6398 117.732 52.9159 118.032C52.1921 118.332 51.4163 118.486 50.6328 118.486C49.8493 118.486 49.0735 118.332 48.3497 118.032C47.6258 117.732 46.9681 117.293 46.4141 116.739C45.8601 116.185 45.4207 115.527 45.1208 114.803C44.821 114.08 44.6667 113.304 44.6667 112.52L50.6328 112.52ZM80.0093 114.803C80.3091 114.08 80.4635 113.304 80.4635 112.52H74.4973L68.5312 112.52C68.5312 113.304 68.6855 114.08 68.9853 114.803C69.2852 115.527 69.7246 116.185 70.2786 116.739C70.8326 117.293 71.4903 117.732 72.2142 118.032C72.938 118.332 73.7138 118.486 74.4973 118.486C75.2808 118.486 76.0566 118.332 76.7805 118.032C77.5043 117.732 78.162 117.293 78.716 116.739C79.27 116.185 79.7095 115.527 80.0093 114.803Z" fill="#F4B89F" fill-opacity="0.5"/>
</g>
<path fill-rule="evenodd" clip-rule="evenodd" d="M17.1966 47.4821C13.8776 53.811 12 61.0146 12 68.6566V80.3433C12 98.643 22.7661 114.428 38.3099 121.71C44.297 114.967 47.9332 106.089 47.9332 96.3622V84.9481C47.9332 66.4062 34.7204 50.9503 17.1966 47.4821Z" fill="#FFDED0"/>
<path fill-rule="evenodd" clip-rule="evenodd" d="M106.817 47.5078C110.128 53.8305 112 61.0249 112 68.6567V80.3434C112 98.6037 101.28 114.36 85.7902 121.663C79.8278 114.926 76.2085 106.067 76.2085 96.3623V84.9481C76.2085 66.4515 89.3568 51.0258 106.817 47.5078Z" fill="#FFDED0"/>
<path d="M62.0708 62.5354C62.0708 78.2951 49.2951 91.0708 33.5354 91.0708C17.7757 91.0708 5 78.2951 5 62.5354C5 46.7757 17.7757 34 33.5354 34C49.2951 34 62.0708 46.7757 62.0708 62.5354Z" fill="white"/>
<path d="M55.5041 62.252C55.5041 74.5415 45.5415 84.5041 33.252 84.5041C20.9626 84.5041 11 74.5415 11 62.252C11 49.9626 20.9626 40 33.252 40C45.5415 40 55.5041 49.9626 55.5041 62.252Z" fill="#F3F3F3"/>
<path d="M48.5923 62.7961C48.5923 70.9678 41.9678 77.5923 33.7961 77.5923C25.6245 77.5923 19 70.9678 19 62.7961C19 54.6245 25.6245 48 33.7961 48C41.9678 48 48.5923 54.6245 48.5923 62.7961Z" fill="#323232"/>
<path d="M34.007 57.877C34.007 60.7955 31.6411 63.1614 28.7226 63.1614C25.8042 63.1614 23.4383 60.7955 23.4383 57.877C23.4383 54.9586 25.8042 52.5927 28.7226 52.5927C31.6411 52.5927 34.007 54.9586 34.007 57.877Z" fill="#F7F7F7"/>
<path d="M120.071 62.5354C120.071 78.2951 107.295 91.0708 91.5354 91.0708C75.7757 91.0708 63 78.2951 63 62.5354C63 46.7757 75.7757 34 91.5354 34C107.295 34 120.071 46.7757 120.071 62.5354Z" fill="white"/>
<path d="M113.504 62.252C113.504 74.5415 103.541 84.5041 91.252 84.5041C78.9626 84.5041 69 74.5415 69 62.252C69 49.9626 78.9626 40 91.252 40C103.541 40 113.504 49.9626 113.504 62.252Z" fill="#F3F3F3"/>
<path d="M106.592 62.7961C106.592 70.9678 99.9678 77.5923 91.7961 77.5923C83.6245 77.5923 77 70.9678 77 62.7961C77 54.6245 83.6245 48 91.7961 48C99.9678 48 106.592 54.6245 106.592 62.7961Z" fill="#323232"/>
<path d="M102.581 57.877C102.581 60.7955 100.215 63.1614 97.297 63.1614C94.3786 63.1614 92.0127 60.7955 92.0127 57.877C92.0127 54.9586 94.3786 52.5927 97.297 52.5927C100.215 52.5927 102.581 54.9586 102.581 57.877Z" fill="#F7F7F7"/>
<path d="M71 65.5949C71 62.5049 67.1944 60 62.5 60C57.8056 60 54 62.5049 54 65.5949C54 68.6849 57.8056 77 62.5 77C67.1944 77 71 68.6849 71 65.5949Z" fill="#FFD500"/>
<ellipse cx="28.7032" cy="83.9797" rx="7.2561" ry="4.35366" fill="#FFB99B"/>
<ellipse cx="96.4268" cy="83.9797" rx="7.2561" ry="4.35366" fill="#FFB99B"/>
<g filter="url(#filter0_f_303_22)">
<path d="M97 96L101.051 106.949L112 111L101.051 115.051L97 126L92.9486 115.051L82 111L92.9486 106.949L97 96Z" fill="white"/>
</g>
<path d="M97 96L101.051 106.949L112 111L101.051 115.051L97 126L92.9486 115.051L82 111L92.9486 106.949L97 96Z" fill="white"/>
<g filter="url(#filter1_f_303_22)">
<path d="M109.5 4L111.526 9.47432L117 11.5L111.526 13.5257L109.5 19L107.474 13.5257L102 11.5L107.474 9.47432L109.5 4Z" fill="white"/>
</g>
<path d="M109.5 4L111.526 9.47432L117 11.5L111.526 13.5257L109.5 19L107.474 13.5257L102 11.5L107.474 9.47432L109.5 4Z" fill="white"/>
<g filter="url(#filter2_f_303_22)">
<path d="M15.5 16L18.336 23.664L26 26.5L18.336 29.336L15.5 37L12.664 29.336L5 26.5L12.664 23.664L15.5 16Z" fill="white"/>
</g>
<path d="M15.5 16L18.336 23.664L26 26.5L18.336 29.336L15.5 37L12.664 29.336L5 26.5L12.664 23.664L15.5 16Z" fill="white"/>
<defs>
<filter id="filter0_f_303_22" x="78.25" y="92.25" width="37.5" height="37.5" filterUnits="userSpaceOnUse" color-interpolation-filters="sRGB">
<feFlood flood-opacity="0" result="BackgroundImageFix"/>
<feBlend mode="normal" in="SourceGraphic" in2="BackgroundImageFix" result="shape"/>
<feGaussianBlur stdDeviation="1.875" result="effect1_foregroundBlur_303_22"/>
</filter>
<filter id="filter1_f_303_22" x="98.8421" y="0.842105" width="21.3158" height="21.3158" filterUnits="userSpaceOnUse" color-interpolation-filters="sRGB">
<feFlood flood-opacity="0" result="BackgroundImageFix"/>
<feBlend mode="normal" in="SourceGraphic" in2="BackgroundImageFix" result="shape"/>
<feGaussianBlur stdDeviation="1.57895" result="effect1_foregroundBlur_303_22"/>
</filter>
<filter id="filter2_f_303_22" x="0.578948" y="11.5789" width="29.8421" height="29.8421" filterUnits="userSpaceOnUse" color-interpolation-filters="sRGB">
<feFlood flood-opacity="0" result="BackgroundImageFix"/>
<feBlend mode="normal" in="SourceGraphic" in2="BackgroundImageFix" result="shape"/>
<feGaussianBlur stdDeviation="2.21053" result="effect1_foregroundBlur_303_22"/>
</filter>
</defs>
</svg>
