<svg width="123" height="141" viewBox="0 0 123 141" fill="none" xmlns="http://www.w3.org/2000/svg">
<path d="M19.9285 94.0009C18.4847 91.9952 18.8113 89.2627 20.6288 87.5883L63.6017 48L104.412 87.5387C106.173 89.2456 106.444 91.9577 104.982 93.9276C97.6682 103.784 75.8676 131.5 62 131.5C48.1666 131.5 27.0691 103.92 19.9285 94.0009Z" fill="#FF9E77"/>
<path fill-rule="evenodd" clip-rule="evenodd" d="M39.1589 103.431C39.4911 103.293 39.8868 103.349 40.2446 103.584C40.5733 103.8 40.8494 104.148 41.0222 104.565C41.195 104.981 41.2466 105.422 41.1675 105.808C41.0814 106.227 40.8415 106.546 40.5093 106.684C40.1771 106.822 39.7814 106.767 39.4236 106.531C39.0949 106.315 38.8187 105.967 38.6459 105.551C38.4732 105.135 38.4216 104.693 38.5007 104.308C38.5868 103.889 38.8267 103.569 39.1589 103.431ZM42.9428 102.464C42.5851 102.229 42.1893 102.173 41.8571 102.311C41.5249 102.449 41.285 102.769 41.1989 103.188C41.1198 103.573 41.1714 104.015 41.3442 104.431C41.5169 104.847 41.7931 105.195 42.1218 105.411C42.4796 105.646 42.8753 105.702 43.2075 105.564C43.5397 105.426 43.7796 105.107 43.8657 104.687C43.9448 104.302 43.8932 103.861 43.7205 103.445C43.5477 103.028 43.2715 102.68 42.9428 102.464ZM44.5318 106.467C43.6211 105.986 42.6869 105.901 41.9012 106.228C41.1155 106.554 40.5162 107.275 40.2137 108.26C39.9417 109.144 39.9606 110.109 40.2642 110.84C40.4117 111.196 40.6327 111.421 40.9209 111.511C41.2055 111.599 41.5094 111.543 41.8208 111.414C42.1521 111.276 42.492 111.056 42.826 110.84C43.1179 110.65 43.3935 110.472 43.6235 110.376C43.822 110.294 44.1234 110.23 44.4425 110.162C45.1882 110.003 46.0334 109.823 46.3303 109.258C46.4714 108.989 46.4692 108.675 46.3238 108.325C46.0202 107.594 45.3503 106.899 44.5318 106.467ZM46.2372 104.09C46.0214 103.823 45.7378 103.681 45.4387 103.691C45.198 103.7 44.9685 103.81 44.7924 104.003C44.5497 104.269 44.4243 104.663 44.4484 105.082C44.4681 105.425 44.5865 105.747 44.7817 105.989C44.9976 106.256 45.2811 106.398 45.5802 106.387C45.6837 106.384 45.7852 106.361 45.8812 106.322C46.0084 106.269 46.1262 106.185 46.2266 106.075C46.4693 105.809 46.5947 105.416 46.5705 104.997L46.5705 104.997C46.5508 104.654 46.4324 104.332 46.2372 104.09ZM38.2849 106.705C38.6446 106.721 39.0116 106.909 39.2918 107.223C39.5208 107.479 39.6652 107.79 39.6986 108.099C39.7355 108.44 39.6355 108.741 39.4171 108.946C39.3415 109.017 39.254 109.073 39.1579 109.112C39.0307 109.165 38.8885 109.19 38.7397 109.183C38.38 109.167 38.013 108.979 37.7328 108.665L37.7328 108.665C37.5039 108.409 37.3594 108.098 37.3261 107.789C37.2892 107.447 37.3892 107.147 37.6076 106.942C37.7833 106.777 38.0239 106.693 38.2849 106.705Z" fill="white" fill-opacity="0.5"/>
<path fill-rule="evenodd" clip-rule="evenodd" d="M83.4924 102.892C83.792 103.091 83.9663 103.451 83.9704 103.879C83.9743 104.272 83.8391 104.696 83.5898 105.071C83.3404 105.446 83.0027 105.735 82.6387 105.884C82.2425 106.046 81.8435 106.025 81.5438 105.826C81.2442 105.627 81.07 105.268 81.0658 104.84C81.0619 104.446 81.1971 104.023 81.4465 103.648C81.6958 103.272 82.0335 102.983 82.3975 102.834C82.7937 102.672 83.1928 102.693 83.4924 102.892ZM86.4041 105.495C86.3999 105.067 86.2257 104.707 85.926 104.508C85.6264 104.309 85.2273 104.288 84.8311 104.451C84.4672 104.6 84.1294 104.888 83.8801 105.264C83.6308 105.639 83.4956 106.063 83.4994 106.456C83.5036 106.884 83.6778 107.244 83.9775 107.443C84.2771 107.642 84.6762 107.663 85.0724 107.5C85.4363 107.351 85.7741 107.063 86.0234 106.687C86.2727 106.312 86.4079 105.888 86.4041 105.495ZM83.9659 109.045C83.8574 108.021 83.4075 107.198 82.6988 106.727C81.9902 106.257 81.057 106.161 80.0711 106.459C79.185 106.726 78.3944 107.279 77.9563 107.939C77.7435 108.259 77.6794 108.568 77.7657 108.858C77.8508 109.143 78.0669 109.364 78.3478 109.551C78.6466 109.749 79.0189 109.909 79.3847 110.065C79.7043 110.202 80.0062 110.332 80.2137 110.47C80.3927 110.588 80.614 110.803 80.8483 111.03C81.3957 111.561 82.0163 112.162 82.6509 112.094C82.9526 112.061 83.212 111.884 83.4218 111.569C83.8599 110.909 84.0633 109.966 83.9659 109.045ZM86.8901 109.136C86.9917 108.808 86.9512 108.494 86.7761 108.251C86.6351 108.056 86.4152 107.927 86.1568 107.889C85.8007 107.835 85.4043 107.95 85.0693 108.204C84.7955 108.412 84.5941 108.689 84.5022 108.986C84.4006 109.314 84.4411 109.629 84.6162 109.871C84.6768 109.955 84.752 110.027 84.8386 110.085C84.9534 110.161 85.0882 110.212 85.2355 110.234C85.5916 110.287 85.988 110.172 86.323 109.919L86.3231 109.919C86.5968 109.711 86.7982 109.433 86.8901 109.136ZM80.2874 103.991C80.4746 104.298 80.5224 104.708 80.4183 105.115C80.3332 105.448 80.1554 105.742 79.9175 105.941C79.6545 106.162 79.349 106.247 79.0574 106.18C78.9565 106.156 78.8612 106.115 78.7746 106.057C78.6599 105.981 78.5603 105.877 78.4828 105.749C78.2956 105.442 78.2479 105.032 78.3519 104.625L78.3519 104.625C78.4369 104.292 78.6148 103.999 78.8528 103.799C79.1158 103.578 79.4212 103.493 79.7128 103.561C79.9474 103.615 80.1515 103.767 80.2874 103.991Z" fill="white" fill-opacity="0.5"/>
<path fill-rule="evenodd" clip-rule="evenodd" d="M66.4489 110.8C66.1042 110.291 65.6107 110 65.0949 110C64.579 110 64.0856 110.291 63.7409 110.8C63.4243 111.266 63.25 111.879 63.25 112.526C63.25 113.172 63.4243 113.785 63.7409 114.252C64.0856 114.76 64.5791 115.051 65.0949 115.051C65.6108 115.051 66.1042 114.76 66.4489 114.252C66.7655 113.785 66.9398 113.172 66.9398 112.526C66.9398 111.879 66.7655 111.266 66.4489 110.8ZM66.3526 116.975C65.4106 115.838 64.22 115.212 63 115.212C61.78 115.212 60.5893 115.838 59.6475 116.975C58.8008 117.997 58.2954 119.286 58.2954 120.421C58.2954 120.973 58.464 121.393 58.7966 121.67C59.1249 121.944 59.5583 122.037 60.0419 122.036C60.5564 122.036 61.1277 121.932 61.6891 121.829C62.1796 121.739 62.6429 121.654 63 121.654C63.3082 121.654 63.7428 121.734 64.2028 121.82C65.2779 122.019 66.4964 122.246 67.2004 121.66C67.535 121.382 67.7047 120.965 67.7047 120.421C67.7047 119.286 67.1992 117.997 66.3526 116.975ZM60.9051 110C61.421 110 61.9145 110.291 62.2591 110.8C62.5757 111.266 62.75 111.879 62.7501 112.526C62.7501 113.172 62.5757 113.785 62.2591 114.252C61.9145 114.76 61.421 115.051 60.9051 115.051C60.3892 115.051 59.8958 114.76 59.5511 114.252C59.2345 113.785 59.0602 113.172 59.0602 112.526C59.0602 111.879 59.2345 111.266 59.5511 110.8C59.8957 110.291 60.3892 110 60.9051 110ZM69.9185 114.764C69.7796 114.291 69.4818 113.948 69.08 113.797C68.7567 113.676 68.3917 113.696 68.0523 113.855C67.5846 114.074 67.2023 114.526 67.0035 115.095C66.8411 115.56 66.8208 116.052 66.9465 116.479C67.0855 116.952 67.3833 117.295 67.7851 117.446C67.9241 117.498 68.0708 117.524 68.2199 117.524C68.4175 117.524 68.6193 117.479 68.8127 117.388C69.2805 117.169 69.6628 116.717 69.8615 116.148V116.148C70.024 115.683 70.0442 115.192 69.9185 114.764ZM57.9477 113.855C58.4154 114.074 58.7977 114.526 58.9965 115.095C59.1589 115.56 59.1792 116.052 59.0535 116.479C58.9146 116.952 58.6168 117.295 58.215 117.446C58.076 117.498 57.9292 117.524 57.7802 117.524C57.5826 117.524 57.3808 117.479 57.1873 117.388C56.7196 117.169 56.3373 116.717 56.1385 116.148V116.148C55.9761 115.683 55.9558 115.192 56.0815 114.764C56.2204 114.291 56.5182 113.948 56.92 113.797C57.2433 113.676 57.6083 113.696 57.9477 113.855Z" fill="white" fill-opacity="0.5"/>
<path fill-rule="evenodd" clip-rule="evenodd" d="M6.61036 2.5C16.2371 -2.72592 31.3107 6.42198 42.9254 15.7111C48.7329 13.041 55.0261 11.5 61.5 11.5C67.947 11.5 74.1845 13.0282 79.9263 15.6778C91.5354 6.40016 106.585 -2.71968 116.2 2.5C129.245 9.5816 117.285 41.1126 110.35 56.7072C110.449 57.8076 110.5 58.9061 110.5 60C110.5 83.196 87.7335 102 61.5 102C35.2665 102 12 83.196 12 60C12 58.7189 12.071 57.4313 12.2095 56.1419C5.24328 40.3631 -6.27893 9.49705 6.61036 2.5Z" fill="white"/>
<path fill-rule="evenodd" clip-rule="evenodd" d="M17.5381 78.9874C42.1876 78.3871 62 56.4607 62 29.5C62 23.1804 60.9114 17.1374 58.9272 11.5808C53.3607 11.9299 47.9605 13.3962 42.9254 15.7111C31.3107 6.42198 16.2371 -2.72592 6.61036 2.5C-6.27893 9.49705 5.24328 40.3631 12.2095 56.1419C12.071 57.4313 12 58.7189 12 60C12 66.833 14.019 73.285 17.5381 78.9874Z" fill="#FED402"/>
<path fill-rule="evenodd" clip-rule="evenodd" d="M66.9722 11.8653C71.4735 12.4656 75.8263 13.7858 79.9263 15.6778C91.5354 6.40016 106.585 -2.71968 116.2 2.5C129.245 9.5816 117.285 41.1126 110.35 56.7073C110.449 57.8076 110.5 58.9062 110.5 60C110.5 66.7507 108.572 73.1294 105.191 78.7809C82.0829 76.4193 64 55.257 64 29.5C64 23.2881 65.0518 17.3435 66.9722 11.8653Z" fill="#FED402"/>
<g style="mix-blend-mode:multiply">
<path d="M9.89242 10.2701C3.19046 14.611 9.79806 33.2549 13.0493 41.2908C13.6698 42.8244 15.7621 42.9053 16.6118 41.4858C21.6082 33.1388 26.8207 28.103 35.1626 20.8623C36.1126 20.0377 36.0814 18.5657 35.0558 17.8373C30.0814 14.3042 16.7993 5.79638 9.89242 10.2701Z" fill="#FED402" fill-opacity="0.5"/>
<path d="M113.108 10.2701C119.81 14.611 113.202 33.2549 109.951 41.2908C109.33 42.8244 107.238 42.9053 106.388 41.4858C101.392 33.1388 96.1793 28.103 87.8374 20.8623C86.8874 20.0377 86.9186 18.5657 87.9442 17.8373C92.9186 14.3042 106.201 5.79638 113.108 10.2701Z" fill="#FED402" fill-opacity="0.5"/>
</g>
<ellipse cx="41.5" cy="51" rx="5.5" ry="7" fill="#56392B"/>
<ellipse cx="43.5" cy="50" rx="1.5" ry="2" fill="white"/>
<ellipse cx="5.5" cy="7" rx="5.5" ry="7" transform="matrix(-1 0 0 1 89 44)" fill="#56392B"/>
<ellipse cx="1.5" cy="2" rx="1.5" ry="2" transform="matrix(-1 0 0 1 83 48)" fill="white"/>
<path d="M70 64.5C70 66.433 66.866 68 63 68C59.134 68 56 66.433 56 64.5C56 62.567 59.134 60 63 60C66.866 60 70 62.567 70 64.5Z" fill="#56392B"/>
<circle cx="66" cy="63" r="1" fill="white"/>
<path d="M63 63V69C63 71.2091 61.2091 73 59 73H57.5C56.1193 73 55 71.8807 55 70.5V70.5" stroke="#56392B" stroke-width="2" stroke-linecap="round" stroke-linejoin="round"/>
<path d="M63 63V69C63 71.2091 64.7909 73 67 73H68.5C69.8807 73 71 71.8807 71 70.5V70.5" stroke="#56392B" stroke-width="2" stroke-linecap="round" stroke-linejoin="round"/>
<ellipse cx="37" cy="65" rx="8" ry="5" fill="#FEB1AA"/>
<ellipse cx="89" cy="65" rx="8" ry="5" fill="#FEB1AA"/>
</svg>
