<svg width="119" height="127" viewBox="0 0 119 127" fill="none" xmlns="http://www.w3.org/2000/svg">
<path d="M3 15.2728V3.81209C3 1.70673 4.70673 0 6.8121 0C8.91746 0 10.5841 1.72478 11.0114 3.78633C12.8183 12.5053 20.7237 19.091 29.9393 19.091H49V42H29.9393C15.2269 42 3 30.0084 3 15.2728Z" fill="#FAEDE5"/>
<path d="M115 15.2728V3.81209C115 1.70673 113.293 0 111.188 0C109.083 0 107.416 1.72478 106.989 3.78633C105.182 12.5053 97.2763 19.091 88.0607 19.091H69V42H88.0607C102.773 42 115 30.0084 115 15.2728Z" fill="#FAEDE5"/>
<path d="M59.3074 54.6224C61.5747 50.095 66.1538 47 71.4334 47C77.1435 47 82.034 50.6201 84.067 55.7573C85.6423 55.1018 87.3634 54.7409 89.1661 54.7409C96.3902 54.7409 102.303 60.5353 102.776 67.8654C109.381 70.0319 114 74.9984 114 80.7788C114 84.7123 111.861 88.2689 108.413 90.8228C109.283 92.6757 109.771 94.7553 109.771 96.9525C109.771 104.726 103.664 111.027 96.1308 111.027C94.328 111.027 92.6068 110.666 91.0316 110.011C88.9986 115.148 84.108 118.768 78.398 118.768C74.9089 118.768 71.7257 117.416 69.3135 115.193C66.8739 117.554 63.5923 119 59.9834 119C56.0699 119 52.5412 117.299 50.0538 114.575C47.5802 117.164 44.1421 118.768 40.3409 118.768C34.5354 118.768 29.577 115.026 27.6078 109.752C25.8781 110.571 23.9539 111.027 21.9263 111.027C14.3929 111.027 8.28578 104.726 8.28578 96.9525C8.28578 94.7019 8.79775 92.5747 9.70808 90.6881C5.56039 88.1683 3 84.7059 3 80.8847C3 75.5977 7.90168 70.9975 15.1275 68.6305C15.2234 60.9426 21.2932 54.7409 28.7668 54.7409C30.7944 54.7409 32.7187 55.1974 34.4483 56.0161C36.4176 50.7421 41.3759 47 47.1814 47C52.461 47 57.0401 50.095 59.3074 54.6224Z" fill="#463424"/>
<g style="mix-blend-mode:multiply">
<path fill-rule="evenodd" clip-rule="evenodd" d="M3.11914 79.4637C3.04036 79.9309 3 80.405 3 80.8847C3 84.4313 5.20561 87.6687 8.83882 90.1304C9.06492 89.3376 9.35685 88.5739 9.70808 87.846C6.08111 85.6425 3.6679 82.7183 3.11914 79.4637ZM8.35445 95.5315C8.30904 95.9988 8.28578 96.4728 8.28578 96.9525C8.28578 104.726 14.3929 111.027 21.9263 111.027C23.9539 111.027 25.8781 110.571 27.6078 109.752C29.577 115.026 34.5354 118.768 40.3409 118.768C44.1421 118.768 47.5802 117.164 50.0538 114.575C52.5412 117.299 56.0699 119 59.9834 119C63.5923 119 66.8739 117.554 69.3135 115.193C71.7257 117.416 74.9089 118.768 78.398 118.768C84.108 118.768 88.9986 115.148 91.0316 110.011C92.6068 110.666 94.328 111.027 96.1308 111.027C103.664 111.027 109.771 104.726 109.771 96.9525C109.771 96.4728 109.748 95.9988 109.703 95.5315C109.012 102.637 103.199 108.185 96.1308 108.185C94.328 108.185 92.6068 107.824 91.0316 107.169C88.9986 112.306 84.108 115.926 78.398 115.926C74.9089 115.926 71.7257 114.574 69.3135 112.351C66.8739 114.712 63.5923 116.158 59.9834 116.158C56.0699 116.158 52.5412 114.457 50.0538 111.733C47.5802 114.322 44.1421 115.926 40.3409 115.926C34.5354 115.926 29.577 112.184 27.6078 106.91C25.8781 107.728 23.9539 108.185 21.9263 108.185C14.8577 108.185 9.04493 102.637 8.35445 95.5315ZM109.231 90.1771C112.196 87.6852 114 84.3909 114 80.7788C114 80.2991 113.968 79.825 113.906 79.3577C113.459 82.7227 111.441 85.7382 108.413 87.9807C108.743 88.6823 109.017 89.4164 109.231 90.1771Z" fill="#463424"/>
</g>
<path d="M28.9317 36.0308C23.4362 36.6181 18.6306 38.2274 14.6479 40.8169C5.0062 47.0851 1.28499 58.366 1.1393 58.8454L0.285147 61.6247L3.16619 61.9757C3.96577 62.0731 23.0067 64.2371 32.3982 50.0629L28.9317 36.0308Z" fill="#D18059"/>
<g style="mix-blend-mode:multiply">
<path fill-rule="evenodd" clip-rule="evenodd" d="M0.365345 61.3637C5.87975 61.1288 18.9129 59.1629 26.753 46.6748L24.9663 36.657C26.2442 36.3856 27.5666 36.1767 28.9317 36.0308L32.3982 50.0629C23.0066 64.237 3.96576 62.0731 3.16618 61.9756L0.285134 61.6247L0.365345 61.3637Z" fill="#D18059"/>
</g>
<path d="M89.5905 36.0308C95.0859 36.6181 99.8915 38.2274 103.874 40.8169C113.516 47.0851 117.237 58.366 117.383 58.8454L118.237 61.6247L115.356 61.9757C114.556 62.0731 95.5155 64.2371 86.1239 50.0629L89.5905 36.0308Z" fill="#D18059"/>
<g style="mix-blend-mode:multiply">
<path fill-rule="evenodd" clip-rule="evenodd" d="M118.157 61.3637C112.642 61.1288 99.6092 59.1629 91.7691 46.6748L93.5558 36.657C92.278 36.3856 90.9555 36.1767 89.5905 36.0308L86.1239 50.0629C95.5155 64.237 114.556 62.0731 115.356 61.9756L118.237 61.6247L118.157 61.3637Z" fill="#D18059"/>
</g>
<path d="M16.4517 54.7145C11.0818 30.1996 29.7497 7 54.8458 7H61.7438C87.0508 7 105.875 30.3945 100.46 55.1154C99.8222 58.0291 98.857 60.8616 97.5833 63.5588L93.1954 72.851C91.7399 75.9332 90.7515 79.2148 90.2626 82.5881L89.916 84.9797C87.6679 100.492 74.3714 112 58.6974 112C42.8529 112 29.467 100.247 27.4176 84.5352L27.2247 83.0559C26.7449 79.3779 25.6531 75.8061 23.9943 72.4885L19.6909 63.8818C18.2359 60.9719 17.1479 57.8925 16.4517 54.7145Z" fill="#F0BF8E"/>
<ellipse cx="32" cy="71.4" rx="4" ry="2.4" fill="#FF946D"/>
<ellipse cx="85" cy="71.4" rx="4" ry="2.4" fill="#FF946D"/>
<path d="M64.8897 112.11C65.9223 116.127 70.8436 119.49 70.8436 119.49C70.8436 119.49 73.0795 114.291 72.047 110.274C71.0144 106.256 66.4858 102.535 66.4858 102.535C66.4858 102.535 63.8571 108.092 64.8897 112.11Z" fill="#ACCC5F"/>
<path d="M55.9986 110.455C53.4049 113.039 47.829 113.047 47.829 113.047C47.829 113.047 48.1872 107.806 50.7809 105.222C53.3746 102.637 58.7749 102.141 58.7749 102.141C58.7749 102.141 58.5923 107.871 55.9986 110.455Z" fill="#ACCC5F"/>
<path d="M64.6316 113.334C62.4676 118.392 55.1413 121.888 55.1413 121.888C55.1413 121.888 53.0048 114.663 55.1689 109.605C57.333 104.548 64.2741 100.545 64.2741 100.545C64.2741 100.545 66.7957 108.277 64.6316 113.334Z" fill="#BBD468"/>
<path d="M25 88.42C25 78.658 33.5817 71.2213 43.3134 71.9895C53.8279 72.8195 63.0651 72.8624 73.6198 72.0463C83.3675 71.2925 92 78.7165 92 88.4933C92 96.8019 85.6819 103.802 77.3911 104.346C64.0069 105.226 53.0584 105.213 39.6832 104.338C31.3547 103.793 25 96.7663 25 88.42Z" fill="#FAEDE5"/>
<circle cx="40" cy="89" r="3" fill="#463424"/>
<circle cx="78" cy="89" r="3" fill="#463424"/>
<path d="M90.8264 22.2774C88.5065 13.2107 76.5903 7 59.3267 7C46.2228 7 36.1998 9.60238 30.8112 15.5408C27.8985 18.2558 26 22.7026 26 27.7276C26 35.995 31.139 42.697 37.4783 42.697C40.1927 42.697 42.6871 41.4682 44.6522 39.4138C46.6173 41.4682 49.1116 42.697 51.8261 42.697C54.0615 42.697 56.1476 41.8636 57.9119 40.4221C59.9995 43.2445 62.9295 45 66.1739 45C69.148 45 71.8579 43.5249 73.8969 41.105C75.7685 42.833 78.0541 43.8485 80.5217 43.8485C86.861 43.8485 92 37.1465 92 28.8791C92 26.5096 91.5779 24.2688 90.8264 22.2774Z" fill="#4D3A2A"/>
<g style="mix-blend-mode:multiply">
<path fill-rule="evenodd" clip-rule="evenodd" d="M26.0756 26.0004C26.7322 33.4541 31.5869 39.2425 37.4783 39.2425C40.1927 39.2425 42.6871 38.0137 44.6522 35.9593C46.6172 38.0137 49.1116 39.2425 51.8261 39.2425C54.0615 39.2425 56.1476 38.4091 57.9119 36.9676C59.9995 39.79 62.9295 41.5455 66.1739 41.5455C69.148 41.5455 71.8579 40.0703 73.8969 37.6505C75.7685 39.3785 78.0541 40.394 80.5217 40.394C86.4131 40.394 91.2678 34.6056 91.9244 27.1519C91.9743 27.7186 92 28.2949 92 28.8791C92 37.1465 86.861 43.8485 80.5217 43.8485C78.0541 43.8485 75.7685 42.833 73.8969 41.105C71.8579 43.5249 69.148 45 66.1739 45C62.9295 45 59.9995 43.2445 57.9119 40.4221C56.1476 41.8636 54.0615 42.697 51.8261 42.697C49.1116 42.697 46.6172 41.4682 44.6522 39.4138C42.6871 41.4682 40.1927 42.697 37.4783 42.697C31.139 42.697 26 35.995 26 27.7276C26 27.1435 26.0257 26.5671 26.0756 26.0004Z" fill="#4D3A2A"/>
</g>
<circle cx="77" cy="64" r="5" fill="#463424"/>
<circle cx="79" cy="63" r="2" fill="white"/>
<circle cx="41" cy="64" r="5" fill="#463424"/>
<circle cx="43" cy="63" r="2" fill="white"/>
<path d="M70.2748 8.96865C66.8712 7.24966 61.5473 8.55015 59.9369 9.0083C59.6714 9.08382 59.5307 9.36238 59.6275 9.62085C60.2146 11.1889 62.3278 16.2455 65.7314 17.9645C69.135 19.6835 74.4589 18.383 76.0694 17.9248C76.3348 17.8493 76.4755 17.5708 76.3787 17.3123C75.7916 15.7443 73.6784 10.6876 70.2748 8.96865Z" fill="#BBD468"/>
<path d="M61.356 18.9219C61.2248 15.6697 58.0882 12.2416 57.0163 11.1615C56.8219 10.9656 56.5129 10.9781 56.3348 11.189C55.3535 12.3519 52.5032 16.0215 52.6344 19.2738C52.7656 22.526 55.9022 25.9541 56.9741 27.0342C57.1685 27.2301 57.4776 27.2176 57.6556 27.0067C58.637 25.8438 61.4872 22.1741 61.356 18.9219Z" fill="#BBD468"/>
</svg>
