<svg width="133" height="140" viewBox="0 0 133 140" fill="none" xmlns="http://www.w3.org/2000/svg">
<path d="M110.257 120.219C115.349 122.422 124.208 118.647 124.208 118.647C124.208 118.647 119.776 110.435 114.683 108.233C109.591 106.03 100.846 108.994 100.846 108.994C100.846 108.994 105.164 118.017 110.257 120.219Z" fill="#FFCE05"/>
<path d="M112.06 121.572C113.85 128.494 109.132 137.903 109.132 137.903C109.132 137.903 101.234 132.162 99.444 125.239C97.6541 118.317 101.812 109.766 101.812 109.766C101.812 109.766 110.27 114.649 112.06 121.572Z" fill="#FFCE05"/>
<path fill-rule="evenodd" clip-rule="evenodd" d="M25.9719 115.156C23.4737 110.775 21.534 106.77 20.1937 103.793C18.9384 101.006 20.1152 97.6558 22.5913 96.5862L66.3348 77.6901L109.067 96.607C111.482 97.6762 112.651 100.926 111.476 103.687C110.188 106.718 108.293 110.84 105.82 115.348C95.2268 125.086 81.2804 131 65.9999 131C50.6193 131 36.5904 125.008 25.9719 115.156Z" fill="#FFCE05"/>
<ellipse cx="66" cy="65.3862" rx="60" ry="51.5" fill="#FFD4DC"/>
<path d="M46.9818 12.4977C38.4512 5.17401 -0.248753 25.7518 3.86666 36.2521C7.98207 46.7525 26.9305 67.454 38.3207 58.679C49.711 49.904 55.5123 19.8213 46.9818 12.4977Z" fill="#FFA6B4"/>
<g style="mix-blend-mode:multiply">
<path fill-rule="evenodd" clip-rule="evenodd" d="M39.9857 11.0235C42.9974 10.7759 45.466 11.1962 46.9819 12.4977C55.5124 19.8213 49.7111 49.904 38.3208 58.679C35.9763 60.4852 33.3116 61.0425 30.522 60.697C32.2172 60.4681 33.8335 59.8248 35.3208 58.679C46.7111 49.904 52.5124 19.8213 43.9819 12.4977C43.0073 11.661 41.639 11.1885 39.9857 11.0235Z" fill="#FFA6B4" fill-opacity="0.6"/>
</g>
<path d="M85.6906 12.4977C94.2211 5.17401 132.921 25.7518 128.806 36.2521C124.69 46.7525 105.742 67.454 94.3516 58.679C82.9614 49.904 77.16 19.8213 85.6906 12.4977Z" fill="#FFA6B4"/>
<g style="mix-blend-mode:multiply">
<path fill-rule="evenodd" clip-rule="evenodd" d="M92.6867 11.0235C89.675 10.7759 87.2064 11.1962 85.6905 12.4977C77.16 19.8213 82.9613 49.904 94.3515 58.679C96.696 60.4852 99.3607 61.0425 102.15 60.697C100.455 60.4681 98.8389 59.8248 97.3515 58.679C85.9613 49.904 80.16 19.8213 88.6905 12.4977C89.6651 11.661 91.0334 11.1885 92.6867 11.0235Z" fill="#FFA6B4" fill-opacity="0.6"/>
</g>
<ellipse cx="66" cy="89.9719" rx="24" ry="16" fill="#FFA6B4"/>
<ellipse cx="55.5068" cy="90.7395" rx="3.4254" ry="4.6913" transform="rotate(1 55.5068 90.7395)" fill="#413E4E"/>
<g style="mix-blend-mode:multiply">
<ellipse cx="75.6124" cy="90.7266" rx="3.4254" ry="4.6913" fill="#413E4E"/>
</g>
<circle cx="28" cy="87.8862" r="8" fill="#FFA6B4"/>
<circle cx="104" cy="87.8862" r="8" fill="#FFA6B4"/>
<ellipse cx="40.6858" cy="71.1587" rx="6.68583" ry="8.35729" fill="#413E4E"/>
<ellipse cx="39.0144" cy="68.2336" rx="2.50719" ry="2.92505" fill="white"/>
<circle cx="42.7752" cy="72.4123" r="1.25359" fill="white"/>
<ellipse cx="6.68583" cy="8.35729" rx="6.68583" ry="8.35729" transform="matrix(-1 0 0 1 97.5154 62.8014)" fill="#413E4E"/>
<ellipse cx="2.50719" cy="2.92505" rx="2.50719" ry="2.92505" transform="matrix(-1 0 0 1 95.0082 65.3086)" fill="white"/>
<circle cx="1.25359" cy="1.25359" r="1.25359" transform="matrix(-1 0 0 1 89.9938 71.1587)" fill="white"/>
<ellipse cx="1.93269" cy="1.78352" rx="1.93269" ry="1.78352" transform="matrix(-0.993902 0.110268 0.117654 0.993055 81.9724 7.01428)" fill="#FFCE05"/>
<ellipse cx="1.93269" cy="1.78352" rx="1.93269" ry="1.78352" transform="matrix(-0.993902 0.110268 0.117654 0.993055 70.4481 1.1864)" fill="#FFCE05"/>
<ellipse cx="1.93269" cy="1.78352" rx="1.93269" ry="1.78352" transform="matrix(-0.993902 0.110268 0.117654 0.993055 57.6934 4.07751)" fill="#FFCE05"/>
<path d="M80.1174 13.4585L77.8098 25.1651C77.7123 25.6599 77.1958 25.9492 76.717 25.7826C69.4874 23.2661 64.1903 22.4345 56.3882 23.3662C55.8786 23.4271 55.4258 23.0226 55.4397 22.51L55.7834 9.81993C55.8031 9.09256 56.6856 8.74856 57.2004 9.26758L61.8851 13.9906C62.2709 14.3794 62.9186 14.2993 63.1915 13.8289L67.3696 6.62775C67.7295 6.00744 68.659 6.11347 68.8787 6.7999L71.607 15.3244C71.7654 15.8193 72.3339 16.0522 72.791 15.8095L78.9094 12.5609C79.5265 12.2332 80.2526 12.7727 80.1174 13.4585Z" fill="#FFCE05"/>
</svg>
