<svg width="122" height="90" viewBox="0 0 122 90" fill="none" xmlns="http://www.w3.org/2000/svg">
<path fill-rule="evenodd" clip-rule="evenodd" d="M104.642 27.148C106.863 19.1084 109.166 6.08927 102.5 1.59365C94.7742 -3.61697 80.219 5.31264 74.959 8.89999C70.0718 7.72572 64.8804 7.09364 59.5 7.09364C53.209 7.09364 47.1764 7.95778 41.5863 9.54235C36.0669 6.01983 23.0572 -1.18523 15.6787 3.79117C8.81904 8.41762 10.9783 21.4969 12.9564 29.1072C9.15179 34.7837 7 41.2424 7 48.0936C7 70.7373 30.5051 89.0936 59.5 89.0936C88.4949 89.0936 112 70.7373 112 48.0936C112 40.4411 109.315 33.2782 104.642 27.148Z" fill="#FCFCFC"/>
<ellipse cx="35" cy="58.0936" rx="4" ry="5" fill="#390B0B"/>
<ellipse cx="84" cy="58.0936" rx="4" ry="5" fill="#390B0B"/>
<ellipse cx="59.5" cy="67.0936" rx="5.5" ry="4" fill="#FFCE05"/>
<path d="M100 53.1249C107.707 52.0755 112.079 51.8087 120 52.1249" stroke="#390B0B" stroke-width="2.5" stroke-linecap="round" stroke-linejoin="round"/>
<path d="M99.3364 71.4984C105.992 73.2689 109.636 74.5742 115.917 77.6715" stroke="#390B0B" stroke-width="2.5" stroke-linecap="round" stroke-linejoin="round"/>
<path d="M102.5 62.6249C109.458 62.192 112.856 62.8632 119.804 63.7836" stroke="#390B0B" stroke-width="2.5" stroke-linecap="round" stroke-linejoin="round"/>
<path d="M22 53.1249C14.2932 52.0755 9.92126 51.8087 2 52.1249" stroke="#390B0B" stroke-width="2.5" stroke-linecap="round" stroke-linejoin="round"/>
<path d="M22.6636 71.4984C16.0079 73.2689 12.3641 74.5742 6.08296 77.6715" stroke="#390B0B" stroke-width="2.5" stroke-linecap="round" stroke-linejoin="round"/>
<path d="M19.5 62.6249C12.5418 62.192 9.14431 62.8632 2.19586 63.7836" stroke="#390B0B" stroke-width="2.5" stroke-linecap="round" stroke-linejoin="round"/>
<path d="M79.8034 26.3134C76.1897 34.063 65.1782 35.2281 57.6634 31.7238C50.1486 28.2196 50.2398 22.4145 53.8535 14.6649C57.4672 6.91519 62.3741 2.0019 69.8889 5.50613C77.4038 9.01035 83.4171 18.5637 79.8034 26.3134Z" fill="#FF78D1"/>
<path d="M79.8034 26.3134C76.1897 34.063 82.3752 43.2471 89.8901 46.7514C97.4049 50.2556 102.24 45.4145 105.854 37.6649C109.467 29.9152 109.63 24.0379 102.116 20.5336C94.6007 17.0294 83.4171 18.5637 79.8034 26.3134Z" fill="#FF78D1"/>
<path d="M65.6758 19.3294C66.9073 16.6885 70.1488 15.6593 72.7443 17.0633C78.6642 20.2655 83.9743 22.7153 91.0883 25.5529C93.8152 26.6406 95.0875 29.7802 93.8567 32.4197C92.5768 35.1643 89.1556 36.1669 86.5008 34.6045C80.4389 31.0369 75.2491 28.6261 68.7069 26.3106C65.8262 25.291 64.4062 22.052 65.6758 19.3294Z" fill="#FF78D1" stroke="white" stroke-width="1.8"/>
<circle cx="79.8895" cy="26.1288" r="7.42777" transform="rotate(25 79.8895 26.1288)" fill="#FF78D1" stroke="white" stroke-width="1.8"/>
</svg>
