<svg width="110" height="99" viewBox="0 0 110 99" fill="none" xmlns="http://www.w3.org/2000/svg">
<path d="M110 61.2642C110 84.606 85.3757 99 55 99C24.6243 99 0 84.606 0 61.2642C0 37.9223 24.6243 19 55 19C85.3757 19 110 37.9223 110 61.2642Z" fill="#D1E053"/>
<circle cx="33" cy="23" r="22" fill="white" stroke="#D1E053"/>
<circle cx="41.2776" cy="23.7224" r="7.5" fill="#323232"/>
<circle cx="22" cy="22" r="22" transform="matrix(-1 0 0 1 99 1)" fill="white" stroke="#D1E053"/>
<circle cx="7.5" cy="7.5" r="7.5" transform="matrix(-1 0 0 1 76.2224 16.2224)" fill="#323232"/>
<path d="M30 76.5C48.5 87.5 62 88 80.5 76.5" stroke="#323232" stroke-width="3" stroke-linecap="round" stroke-linejoin="round"/>
<circle cx="18" cy="60" r="12" fill="#FFBCC0"/>
<circle cx="92" cy="60" r="12" fill="#FFBCC0"/>
</svg>
