<svg width="108" height="109" viewBox="0 0 108 109" fill="none" xmlns="http://www.w3.org/2000/svg">
<path fill-rule="evenodd" clip-rule="evenodd" d="M5.64175 0.921777C-0.387008 2.79131 2.32136 38.7194 4.71047 52.3752C1.72365 57.5022 0.0540771 63.2288 0.0540771 69.2703C0.0540771 91.2124 22.0768 109 49.2433 109C76.4097 109 98.4324 91.2124 98.4324 69.2703C98.4324 61.0211 95.3197 53.3591 89.9912 47.0087C98.9813 35.7691 110.225 19.0099 106.629 15.1489C102.464 10.6772 73.1552 24.3261 62.0798 30.907C57.9876 30.0159 53.6841 29.5406 49.2433 29.5406C42.8679 29.5406 36.7758 30.5202 31.1851 32.3033C23.6901 18.6748 10.9588 -0.727047 5.64175 0.921777Z" fill="#FFE312"/>
<path d="M62.3689 75.7909C63.0702 75.8639 63.6066 76.4569 63.5699 77.1611C63.4677 79.1224 63.1235 81.0518 62.5487 82.8732C61.8533 85.0769 60.834 87.0792 59.5489 88.7659C58.2639 90.4525 56.7384 91.7905 55.0595 92.7033C53.3805 93.6161 51.581 94.0859 49.7638 94.0859C47.9465 94.0859 46.147 93.6161 44.4681 92.7033C42.7891 91.7905 41.2636 90.4525 39.9786 88.7659C38.6936 87.0792 37.6742 85.0769 36.9788 82.8732C36.403 81.0487 36.0586 79.1158 35.9571 77.151C35.921 76.4511 36.451 75.8602 37.1476 75.7827C41.9234 75.2517 45.8002 74.9957 49.7638 75.0084C53.5893 75.0207 57.4956 75.2833 62.3689 75.7909Z" fill="#ED653B"/>
<path fill-rule="evenodd" clip-rule="evenodd" d="M59.5697 88.7386C59.5628 88.7477 59.5559 88.7568 59.5489 88.7659C58.2639 90.4525 56.7384 91.7905 55.0595 92.7033C53.3805 93.6161 51.581 94.0859 49.7638 94.0859C47.9465 94.0859 46.147 93.6161 44.468 92.7033C42.7891 91.7905 41.2636 90.4525 39.9786 88.7659C39.7663 88.4873 39.5613 88.2 39.3638 87.9047C41.0021 83.3842 44.8477 80.211 49.3305 80.211C54.0841 80.211 58.1213 83.7793 59.5697 88.7386Z" fill="#FEB1AA"/>
<ellipse cx="49.3173" cy="67.5297" rx="4.46398" ry="1.30077" fill="#323232"/>
<ellipse cx="25.2118" cy="60.5923" rx="8.92796" ry="9.97257" fill="#323232"/>
<ellipse cx="27.8462" cy="56.69" rx="4.01758" ry="4.3359" fill="white"/>
<ellipse cx="21.5966" cy="59.725" rx="1.33919" ry="1.30077" fill="white"/>
<ellipse cx="23.8286" cy="61.8931" rx="0.892796" ry="0.86718" fill="white"/>
<ellipse cx="8.92796" cy="9.97257" rx="8.92796" ry="9.97257" transform="matrix(-1 0 0 1 82.3508 50.6197)" fill="#323232"/>
<ellipse cx="4.01758" cy="4.3359" rx="4.01758" ry="4.3359" transform="matrix(-1 0 0 1 74.8062 52.3541)" fill="white"/>
<ellipse cx="1.33919" cy="1.30077" rx="1.33919" ry="1.30077" transform="matrix(-1 0 0 1 78.3773 58.4243)" fill="white"/>
<ellipse cx="0.892796" cy="0.86718" rx="0.892796" ry="0.86718" transform="matrix(-1 0 0 1 75.6989 61.0259)" fill="white"/>
<path fill-rule="evenodd" clip-rule="evenodd" d="M21.4903 102.077C10.9461 96.2468 3.35548 87.1866 0.903748 76.6615C3.95049 73.9564 8.05231 72.2992 12.564 72.2992C21.9677 72.2992 29.591 79.4989 29.591 88.3803C29.591 94.1701 26.3512 99.2453 21.4903 102.077Z" fill="#ED653B"/>
<path fill-rule="evenodd" clip-rule="evenodd" d="M77.9928 101.511C73.6393 98.5983 70.7976 93.8027 70.7976 88.3803C70.7976 79.4989 78.4209 72.2992 87.8246 72.2992C91.5742 72.2992 95.0407 73.4439 97.8537 75.3834C95.8021 86.1136 88.4347 95.4263 77.9928 101.511Z" fill="#ED653B"/>
<ellipse cx="20.7855" cy="80.0304" rx="1.78559" ry="1.73436" transform="rotate(20 20.7855 80.0304)" fill="white" fill-opacity="0.35"/>
<ellipse cx="16.489" cy="84.0036" rx="2.67839" ry="2.60154" transform="rotate(20 16.489 84.0036)" fill="white" fill-opacity="0.35"/>
<ellipse cx="1.78559" cy="1.73436" rx="1.78559" ry="1.73436" transform="matrix(-0.939693 0.34202 0.34202 0.939693 79.8267 77.7899)" fill="white" fill-opacity="0.35"/>
<ellipse cx="2.67839" cy="2.60154" rx="2.67839" ry="2.60154" transform="matrix(-0.939693 0.34202 0.34202 0.939693 84.6655 80.6428)" fill="white" fill-opacity="0.35"/>
<path fill-rule="evenodd" clip-rule="evenodd" d="M3.05783 39.4461C1.52415 23.4121 1.06252 2.34176 5.64182 0.921716C9.05041 -0.135295 15.5061 7.4589 21.6758 16.6372C12.2084 19.8659 4.8675 28.5793 3.05783 39.4461Z" fill="#323232"/>
<path fill-rule="evenodd" clip-rule="evenodd" d="M87.5713 18.6358C93.7458 24.2286 95.7781 34.2038 92.4285 43.8955C100.862 32.8933 109.905 18.667 106.629 15.149C104.593 12.9638 96.5535 15.1059 87.5713 18.6358Z" fill="#323232"/>
</svg>
