<svg width="127" height="138" viewBox="0 0 127 138" fill="none" xmlns="http://www.w3.org/2000/svg">
<circle cx="25.9615" cy="25.9615" r="25.9615" fill="#C4C4C4"/>
<circle cx="24.6301" cy="25.9306" r="17.9733" fill="#FFDED0"/>
<circle cx="25.9615" cy="25.9615" r="25.9615" transform="matrix(-1 0 0 1 126.923 0)" fill="#C4C4C4"/>
<circle cx="17.9733" cy="17.9733" r="17.9733" transform="matrix(-1 0 0 1 120.266 7.95728)" fill="#FFDED0"/>
<path fill-rule="evenodd" clip-rule="evenodd" d="M61.9443 126.572C61.9463 126.596 61.9482 126.62 61.9501 126.644C61.9508 126.62 61.9516 126.596 61.9525 126.572H61.9443ZM104.879 109.519C105.124 109.501 105.37 109.492 105.619 109.492C111.012 109.492 115.384 113.864 115.384 119.257V120.095C115.384 125.488 111.012 129.86 105.619 129.86C103.198 129.86 100.983 128.979 99.2761 127.52C99.1753 132.825 94.8427 137.096 89.5128 137.096C85.2947 137.096 81.7013 134.421 80.3357 130.676C79.4298 134.863 75.7042 138 71.2458 138C66.2057 138 62.102 133.991 61.9501 128.987C61.5659 134.029 57.3535 138 52.2135 138C47.4903 138 43.5502 134.647 42.6443 130.191C41.3129 133.698 37.9209 136.191 33.9466 136.191C28.8103 136.191 24.6465 132.027 24.6465 126.891V126.704C22.8618 128.644 20.3016 129.86 17.4574 129.86C12.0643 129.86 7.69229 125.488 7.69229 120.095V119.257C7.69229 113.864 12.0643 109.492 17.4574 109.492C17.6956 109.492 17.9318 109.5 18.1657 109.517C24.0792 99.2328 35.1764 92.3075 47.891 92.3075H75.1527C87.8683 92.3075 98.9662 99.2338 104.879 109.519Z" fill="#D5DE72"/>
<path fill-rule="evenodd" clip-rule="evenodd" d="M115.007 80.0514C112.874 77.4731 111.538 74.2694 111.538 70.9232C111.538 42.9053 89.7983 20.1923 62.9806 20.1923C36.163 20.1923 14.423 42.9053 14.423 70.9232C14.423 74.2694 13.0869 77.4731 10.9539 80.0514C7.62508 84.0753 5.76922 88.552 5.76922 93.269C5.76922 110.793 31.3836 125 62.9806 125C94.5776 125 120.192 110.793 120.192 93.269C120.192 88.552 118.336 84.0753 115.007 80.0514Z" fill="#C4C4C4"/>
<path fill-rule="evenodd" clip-rule="evenodd" d="M112.698 76.3191C113.282 77.6571 114.067 78.915 115.007 80.0514C118.336 84.0753 120.192 88.552 120.192 93.2691C120.192 110.793 94.5776 125 62.9806 125C31.3836 125 5.76922 110.793 5.76922 93.2691C5.76922 88.552 7.62508 84.0753 10.9539 80.0514C11.894 78.915 12.6793 77.6572 13.2637 76.3191C15.9096 75.4616 18.7208 74.9999 21.6346 74.9999C29.7856 74.9999 37.1336 78.6128 42.3076 84.3977C47.4816 78.6128 54.8296 74.9999 62.9806 74.9999C71.1317 74.9999 78.4797 78.6127 83.6537 84.3977C88.8276 78.6127 96.1757 74.9999 104.327 74.9999C107.24 74.9999 110.052 75.4616 112.698 76.3191Z" fill="#EBEBEB"/>
<rect x="62.5662" y="77.1956" width="1.92307" height="11.5384" rx="0.961536" fill="#433D3C"/>
<ellipse cx="63.5732" cy="76.8046" rx="7.13278" ry="4.68937" fill="#433D3C"/>
<circle cx="59.8949" cy="75.289" r="1.4423" fill="white"/>
<path d="M55.7691 85.7207C59.4128 89.1193 67.51 89.1193 71.1537 85.7207" stroke="#433D3C" stroke-width="1.92307" stroke-linecap="round"/>
<ellipse cx="6.42867" cy="8.03584" rx="6.42867" ry="8.03584" transform="matrix(-1 0 0 1 47.4727 58.6537)" fill="#433D3C"/>
<ellipse cx="2.41075" cy="2.81254" rx="2.41075" ry="2.81254" transform="matrix(-1 0 0 1 45.0619 61.0645)" fill="white"/>
<circle cx="1.20538" cy="1.20538" r="1.20538" transform="matrix(-1 0 0 1 40.2404 66.6896)" fill="white"/>
<ellipse cx="6.42867" cy="8.03584" rx="6.42867" ry="8.03584" transform="matrix(-1 0 0 1 92.8031 58.6537)" fill="#433D3C"/>
<ellipse cx="2.41075" cy="2.81254" rx="2.41075" ry="2.81254" transform="matrix(-1 0 0 1 90.3924 61.0645)" fill="white"/>
<circle cx="1.20538" cy="1.20538" r="1.20538" transform="matrix(-1 0 0 1 85.5709 66.6896)" fill="white"/>
<circle cx="24" cy="92" r="11" fill="#FFDED0"/>
<circle cx="102" cy="92" r="11" fill="#FFDED0"/>
<path d="M84.6152 78.3238C91.2846 77.9139 95.0679 77.8097 101.923 77.9332" stroke="#343434" stroke-width="1.5" stroke-linecap="round" stroke-linejoin="round"/>
<path d="M101.849 89.4229C95.3134 88.2514 91.5845 87.7139 84.7754 87.0493" stroke="#343434" stroke-width="1.5" stroke-linecap="round" stroke-linejoin="round"/>
<path d="M84.5558 82.9295C91.141 82.7842 94.3631 83.0583 100.949 83.4421" stroke="#343434" stroke-width="1.5" stroke-linecap="round" stroke-linejoin="round"/>
<path d="M43.2691 78.3238C36.5998 77.9139 32.8164 77.8097 25.9615 77.9332" stroke="#343434" stroke-width="1.5" stroke-linecap="round" stroke-linejoin="round"/>
<path d="M26.0356 89.4229C32.5709 88.2514 36.2999 87.7139 43.1089 87.0493" stroke="#343434" stroke-width="1.5" stroke-linecap="round" stroke-linejoin="round"/>
<path d="M43.3286 82.9295C36.7434 82.7842 33.5213 83.0583 26.935 83.4421" stroke="#343434" stroke-width="1.5" stroke-linecap="round" stroke-linejoin="round"/>
<path d="M45.1808 20.4505C44.8919 20.8204 44.5093 21.1252 44.0716 21.3343L42.935 21.877C42.4972 22.0861 42.0197 22.192 41.5504 22.1842L30.0164 21.9926C27.8551 21.9567 26.2603 24.1755 27.2168 25.8506C29.8259 30.4196 31.6023 34.1571 33.5173 39.0586C34.2185 40.8534 36.9426 41.0056 38.2719 39.3038L45.6576 29.8485C45.9465 29.4786 46.3291 29.1738 46.7669 28.9647L47.1753 28.7697C47.613 28.5607 48.0905 28.4547 48.5598 28.4625L60.6148 28.6628C62.7623 28.6985 64.355 26.5058 63.4171 24.8347C60.8246 20.2155 59.0199 16.4739 57.0608 11.5555C56.3501 9.7712 53.6354 9.62683 52.3103 11.3232L45.1808 20.4505Z" fill="#FF8A70"/>
</svg>
